0 Lionhold - Castle of House Aurelion
0 Name: lionhold.ldr
0 Author: Nobles & Common Folk at Quarrel generator
0 !LICENSE Redistributable under CCAL version 2.0 : see CAreadme.txt

0 // Baseplate, moat and courtyard paths
1 2 320 0 320 1 0 0 0 1 0 0 0 1 3811.dat
0 STEP
1 1 580 -8 80 0 0 1 0 1 0 -1 0 0 3035.dat
1 1 580 -8 240 0 0 1 0 1 0 -1 0 0 3035.dat
1 1 580 -8 400 0 0 1 0 1 0 -1 0 0 3035.dat
1 1 580 -8 560 0 0 1 0 1 0 -1 0 0 3035.dat
0 STEP
1 43 560 -16 40 1 0 0 0 1 0 0 0 1 3068b.dat
1 73 600 -16 100 1 0 0 0 1 0 0 0 1 3068b.dat
1 73 580 -16 180 1 0 0 0 1 0 0 0 1 3068b.dat
1 43 560 -16 240 1 0 0 0 1 0 0 0 1 3068b.dat
1 43 600 -16 420 1 0 0 0 1 0 0 0 1 3068b.dat
1 43 560 -16 480 1 0 0 0 1 0 0 0 1 3068b.dat
1 43 580 -16 560 1 0 0 0 1 0 0 0 1 3068b.dat
1 43 600 -16 600 1 0 0 0 1 0 0 0 1 3068b.dat
0 STEP
1 28 480 -8 320 1 0 0 0 1 0 0 0 1 3032.dat
1 28 340 -8 320 1 0 0 0 1 0 0 0 1 3035.dat
1 19 630 -8 320 0 0 1 0 1 0 -1 0 0 3666.dat
0 STEP
1 28 310 -8 90 1 0 0 0 1 0 0 0 1 3024.dat
1 28 370 -8 190 1 0 0 0 1 0 0 0 1 3024.dat
1 28 170 -8 490 1 0 0 0 1 0 0 0 1 3024.dat
1 28 330 -8 470 1 0 0 0 1 0 0 0 1 3024.dat
0 STEP
0 // Gatehouse - lower level with gate passage
1 72 460 -24 230 1 0 0 0 1 0 0 0 1 3010.dat
1 71 520 -24 230 1 0 0 0 1 0 0 0 1 3004.dat
1 72 440 -24 410 1 0 0 0 1 0 0 0 1 3004.dat
1 71 500 -24 410 1 0 0 0 1 0 0 0 1 3010.dat
1 72 430 -24 260 0 0 1 0 1 0 -1 0 0 3004.dat
1 71 430 -24 380 0 0 1 0 1 0 -1 0 0 3004.dat
1 72 530 -24 260 0 0 1 0 1 0 -1 0 0 98283.dat
1 72 530 -24 380 0 0 1 0 1 0 -1 0 0 3004.dat
1 71 480 -24 270 1 0 0 0 1 0 0 0 1 3010.dat
1 72 480 -24 370 1 0 0 0 1 0 0 0 1 3010.dat
1 71 430 -48 240 0 0 1 0 1 0 -1 0 0 3004.dat
1 71 430 -48 270 0 0 1 0 1 0 -1 0 0 3005.dat
1 71 430 -48 380 0 0 1 0 1 0 -1 0 0 98283.dat
1 72 430 -48 410 0 0 1 0 1 0 -1 0 0 3005.dat
1 71 530 -48 250 0 0 1 0 1 0 -1 0 0 3622.dat
1 72 530 -48 390 0 0 1 0 1 0 -1 0 0 3622.dat
1 71 460 -48 230 1 0 0 0 1 0 0 0 1 98283.dat
1 72 500 -48 230 1 0 0 0 1 0 0 0 1 3004.dat
1 71 480 -48 410 1 0 0 0 1 0 0 0 1 3010.dat
1 71 460 -48 270 1 0 0 0 1 0 0 0 1 3004.dat
1 71 500 -48 270 1 0 0 0 1 0 0 0 1 3004.dat
1 71 460 -48 370 1 0 0 0 1 0 0 0 1 3004.dat
1 71 500 -48 370 1 0 0 0 1 0 0 0 1 3004.dat
0 STEP
1 71 460 -72 230 1 0 0 0 1 0 0 0 1 3010.dat
1 71 520 -72 230 1 0 0 0 1 0 0 0 1 3004.dat
1 71 440 -72 410 1 0 0 0 1 0 0 0 1 98283.dat
1 71 500 -72 410 1 0 0 0 1 0 0 0 1 3010.dat
1 72 430 -72 260 0 0 1 0 1 0 -1 0 0 3004.dat
1 71 430 -72 380 0 0 1 0 1 0 -1 0 0 3004.dat
1 71 530 -72 260 0 0 1 0 1 0 -1 0 0 3004.dat
1 71 530 -72 380 0 0 1 0 1 0 -1 0 0 98283.dat
1 71 480 -72 270 1 0 0 0 1 0 0 0 1 3010.dat
1 71 480 -72 370 1 0 0 0 1 0 0 0 1 3010.dat
1 71 430 -96 240 0 0 1 0 1 0 -1 0 0 3004.dat
1 71 430 -96 270 0 0 1 0 1 0 -1 0 0 3005.dat
1 72 430 -96 380 0 0 1 0 1 0 -1 0 0 3004.dat
1 71 430 -96 410 0 0 1 0 1 0 -1 0 0 3005.dat
1 71 530 -96 250 0 0 1 0 1 0 -1 0 0 3622.dat
1 72 530 -96 390 0 0 1 0 1 0 -1 0 0 3622.dat
1 71 460 -96 230 1 0 0 0 1 0 0 0 1 3004.dat
1 71 500 -96 230 1 0 0 0 1 0 0 0 1 98283.dat
1 71 480 -96 410 1 0 0 0 1 0 0 0 1 3010.dat
1 71 460 -96 270 1 0 0 0 1 0 0 0 1 98283.dat
1 71 500 -96 270 1 0 0 0 1 0 0 0 1 98283.dat
1 71 460 -96 370 1 0 0 0 1 0 0 0 1 3004.dat
1 71 500 -96 370 1 0 0 0 1 0 0 0 1 3004.dat
0 STEP
1 71 460 -120 230 1 0 0 0 1 0 0 0 1 3010.dat
1 71 520 -120 230 1 0 0 0 1 0 0 0 1 98283.dat
1 71 440 -120 410 1 0 0 0 1 0 0 0 1 98283.dat
1 71 500 -120 410 1 0 0 0 1 0 0 0 1 3010.dat
1 71 430 -120 260 0 0 1 0 1 0 -1 0 0 3004.dat
1 71 430 -120 380 0 0 1 0 1 0 -1 0 0 3004.dat
1 71 530 -120 260 0 0 1 0 1 0 -1 0 0 3004.dat
1 71 530 -120 380 0 0 1 0 1 0 -1 0 0 3004.dat
1 71 480 -120 270 1 0 0 0 1 0 0 0 1 3010.dat
1 71 480 -120 370 1 0 0 0 1 0 0 0 1 3010.dat
1 71 430 -144 240 0 0 1 0 1 0 -1 0 0 98283.dat
1 71 430 -144 270 0 0 1 0 1 0 -1 0 0 3005.dat
1 71 430 -144 380 0 0 1 0 1 0 -1 0 0 98283.dat
1 72 430 -144 410 0 0 1 0 1 0 -1 0 0 3005.dat
1 72 530 -144 250 0 0 1 0 1 0 -1 0 0 3622.dat
1 71 530 -144 390 0 0 1 0 1 0 -1 0 0 3622.dat
1 71 460 -144 230 1 0 0 0 1 0 0 0 1 3004.dat
1 71 500 -144 230 1 0 0 0 1 0 0 0 1 3004.dat
1 71 480 -144 410 1 0 0 0 1 0 0 0 1 3010.dat
1 71 460 -144 270 1 0 0 0 1 0 0 0 1 3004.dat
1 71 500 -144 270 1 0 0 0 1 0 0 0 1 98283.dat
1 71 460 -144 370 1 0 0 0 1 0 0 0 1 3004.dat
1 71 500 -144 370 1 0 0 0 1 0 0 0 1 98283.dat
0 STEP
1 71 460 -168 230 1 0 0 0 1 0 0 0 1 3010.dat
1 71 520 -168 230 1 0 0 0 1 0 0 0 1 3004.dat
1 71 440 -168 410 1 0 0 0 1 0 0 0 1 3004.dat
1 71 500 -168 410 1 0 0 0 1 0 0 0 1 3010.dat
1 71 430 -168 260 0 0 1 0 1 0 -1 0 0 3004.dat
1 71 430 -168 380 0 0 1 0 1 0 -1 0 0 98283.dat
1 71 530 -168 260 0 0 1 0 1 0 -1 0 0 98283.dat
1 71 530 -168 380 0 0 1 0 1 0 -1 0 0 98283.dat
1 71 480 -168 270 1 0 0 0 1 0 0 0 1 3010.dat
1 71 480 -168 370 1 0 0 0 1 0 0 0 1 3010.dat
1 71 430 -192 240 0 0 1 0 1 0 -1 0 0 98283.dat
1 71 430 -192 270 0 0 1 0 1 0 -1 0 0 3005.dat
1 72 430 -192 380 0 0 1 0 1 0 -1 0 0 98283.dat
1 71 430 -192 410 0 0 1 0 1 0 -1 0 0 3005.dat
1 71 530 -192 250 0 0 1 0 1 0 -1 0 0 3622.dat
1 71 530 -192 390 0 0 1 0 1 0 -1 0 0 3622.dat
1 71 460 -192 230 1 0 0 0 1 0 0 0 1 3004.dat
1 71 500 -192 230 1 0 0 0 1 0 0 0 1 98283.dat
1 71 480 -192 410 1 0 0 0 1 0 0 0 1 3010.dat
1 71 460 -192 270 1 0 0 0 1 0 0 0 1 98283.dat
1 71 500 -192 270 1 0 0 0 1 0 0 0 1 3004.dat
1 71 460 -192 370 1 0 0 0 1 0 0 0 1 98283.dat
1 71 500 -192 370 1 0 0 0 1 0 0 0 1 3004.dat
0 STEP
1 71 530 -216 320 0 0 1 0 1 0 -1 0 0 3455.dat
1 71 430 -216 320 0 0 1 0 1 0 -1 0 0 3455.dat
1 71 460 -216 230 1 0 0 0 1 0 0 0 1 3010.dat
1 71 520 -216 230 1 0 0 0 1 0 0 0 1 3004.dat
1 71 440 -216 410 1 0 0 0 1 0 0 0 1 98283.dat
1 72 500 -216 410 1 0 0 0 1 0 0 0 1 3010.dat
1 72 430 -216 250 0 0 1 0 1 0 -1 0 0 3005.dat
1 71 430 -216 390 0 0 1 0 1 0 -1 0 0 3005.dat
1 71 530 -216 250 0 0 1 0 1 0 -1 0 0 3005.dat
1 71 530 -216 390 0 0 1 0 1 0 -1 0 0 3005.dat
1 72 480 -216 270 1 0 0 0 1 0 0 0 1 3010.dat
1 71 480 -216 370 1 0 0 0 1 0 0 0 1 3010.dat
0 STEP
1 72 480 -224 320 0 0 1 0 1 0 -1 0 0 3035.dat
0 STEP
1 0 510 -216 320 0 0 1 0 1 0 -1 0 0 30055.dat
1 0 510 -168 320 0 0 1 0 1 0 -1 0 0 30055.dat
0 STEP
0 // Gatehouse - upper gate room and battlements
1 71 430 -240 240 0 0 1 0 1 0 -1 0 0 3004.dat
1 71 430 -240 300 0 0 1 0 1 0 -1 0 0 3010.dat
1 71 430 -240 380 0 0 1 0 1 0 -1 0 0 3010.dat
1 72 530 -240 260 0 0 1 0 1 0 -1 0 0 3010.dat
1 71 530 -240 360 0 0 1 0 1 0 -1 0 0 3009.dat
1 71 460 -240 230 1 0 0 0 1 0 0 0 1 3004.dat
1 71 500 -240 230 1 0 0 0 1 0 0 0 1 3004.dat
1 71 480 -240 410 1 0 0 0 1 0 0 0 1 3010.dat
1 71 530 -304 300 0 0 -1 0 1 0 1 0 0 30044.dat
1 0 522 -272.75 296.75 0 0 -1 0 1 0 1 0 0 30046.dat
1 71 530 -304 340 0 0 -1 0 1 0 1 0 0 30044.dat
1 0 522 -272.75 336.75 0 0 -1 0 1 0 1 0 0 30046.dat
1 71 530 -312 300 0 0 1 0 1 0 -1 0 0 3023.dat
1 71 530 -312 340 0 0 1 0 1 0 -1 0 0 3023.dat
1 71 430 -304 320 0 0 1 0 1 0 -1 0 0 30044.dat
1 0 422 -272.75 316.75 0 0 1 0 1 0 -1 0 0 30046.dat
1 71 430 -312 320 0 0 1 0 1 0 -1 0 0 3023.dat
1 71 460 -264 230 1 0 0 0 1 0 0 0 1 3010.dat
1 71 520 -264 230 1 0 0 0 1 0 0 0 1 3004.dat
1 71 440 -264 410 1 0 0 0 1 0 0 0 1 3004.dat
1 71 500 -264 410 1 0 0 0 1 0 0 0 1 3010.dat
1 71 430 -264 270 0 0 1 0 1 0 -1 0 0 3622.dat
1 71 430 -264 370 0 0 1 0 1 0 -1 0 0 3622.dat
1 71 530 -264 260 0 0 1 0 1 0 -1 0 0 3004.dat
1 71 530 -264 380 0 0 1 0 1 0 -1 0 0 3004.dat
0 STEP
1 71 430 -288 240 0 0 1 0 1 0 -1 0 0 98283.dat
1 71 430 -288 280 0 0 1 0 1 0 -1 0 0 3004.dat
1 71 430 -288 360 0 0 1 0 1 0 -1 0 0 3004.dat
1 71 430 -288 400 0 0 1 0 1 0 -1 0 0 3004.dat
1 71 530 -288 250 0 0 1 0 1 0 -1 0 0 3622.dat
1 71 530 -288 390 0 0 1 0 1 0 -1 0 0 3622.dat
1 71 460 -288 230 1 0 0 0 1 0 0 0 1 98283.dat
1 71 500 -288 230 1 0 0 0 1 0 0 0 1 98283.dat
1 71 480 -288 410 1 0 0 0 1 0 0 0 1 3010.dat
1 71 460 -312 230 1 0 0 0 1 0 0 0 1 3010.dat
1 71 520 -312 230 1 0 0 0 1 0 0 0 1 3004.dat
1 71 440 -312 410 1 0 0 0 1 0 0 0 1 3004.dat
1 71 500 -312 410 1 0 0 0 1 0 0 0 1 3010.dat
1 71 430 -312 270 0 0 1 0 1 0 -1 0 0 3622.dat
1 72 430 -312 370 0 0 1 0 1 0 -1 0 0 3622.dat
1 71 530 -312 260 0 0 1 0 1 0 -1 0 0 3004.dat
1 71 530 -312 380 0 0 1 0 1 0 -1 0 0 98283.dat
0 STEP
1 71 430 -336 240 0 0 1 0 1 0 -1 0 0 3004.dat
1 71 430 -336 300 0 0 1 0 1 0 -1 0 0 3010.dat
1 71 430 -336 380 0 0 1 0 1 0 -1 0 0 3010.dat
1 71 530 -336 260 0 0 1 0 1 0 -1 0 0 3010.dat
1 71 530 -336 360 0 0 1 0 1 0 -1 0 0 3009.dat
1 71 460 -336 230 1 0 0 0 1 0 0 0 1 3004.dat
1 71 500 -336 230 1 0 0 0 1 0 0 0 1 3004.dat
1 71 480 -336 410 1 0 0 0 1 0 0 0 1 3010.dat
1 71 460 -360 230 1 0 0 0 1 0 0 0 1 3010.dat
1 71 520 -360 230 1 0 0 0 1 0 0 0 1 98283.dat
1 71 440 -360 410 1 0 0 0 1 0 0 0 1 3004.dat
1 71 500 -360 410 1 0 0 0 1 0 0 0 1 3010.dat
1 71 430 -360 280 0 0 1 0 1 0 -1 0 0 3010.dat
1 71 430 -360 360 0 0 1 0 1 0 -1 0 0 3010.dat
1 71 530 -360 260 0 0 1 0 1 0 -1 0 0 98283.dat
1 71 530 -360 340 0 0 1 0 1 0 -1 0 0 3009.dat
0 STEP
1 71 430 -384 240 0 0 1 0 1 0 -1 0 0 98283.dat
1 71 430 -384 300 0 0 1 0 1 0 -1 0 0 3010.dat
1 71 430 -384 380 0 0 1 0 1 0 -1 0 0 3010.dat
1 71 530 -384 260 0 0 1 0 1 0 -1 0 0 3010.dat
1 71 530 -384 360 0 0 1 0 1 0 -1 0 0 3009.dat
1 71 460 -384 230 1 0 0 0 1 0 0 0 1 3004.dat
1 71 500 -384 230 1 0 0 0 1 0 0 0 1 3004.dat
1 72 480 -384 410 1 0 0 0 1 0 0 0 1 3010.dat
1 72 460 -408 230 1 0 0 0 1 0 0 0 1 3010.dat
1 71 520 -408 230 1 0 0 0 1 0 0 0 1 98283.dat
1 71 440 -408 410 1 0 0 0 1 0 0 0 1 3004.dat
1 71 500 -408 410 1 0 0 0 1 0 0 0 1 3010.dat
1 71 430 -408 280 0 0 1 0 1 0 -1 0 0 3010.dat
1 72 430 -408 360 0 0 1 0 1 0 -1 0 0 3010.dat
1 71 530 -408 260 0 0 1 0 1 0 -1 0 0 3004.dat
1 72 530 -408 340 0 0 1 0 1 0 -1 0 0 3009.dat
0 STEP
1 72 480 -416 320 0 0 1 0 1 0 -1 0 0 3033.dat
0 STEP
1 71 430 -440 230 1 0 0 0 1 0 0 0 1 3005.dat
1 71 430 -448 230 1 0 0 0 1 0 0 0 1 3070b.dat
1 71 530 -440 230 1 0 0 0 1 0 0 0 1 3005.dat
1 71 530 -448 230 1 0 0 0 1 0 0 0 1 3070b.dat
1 71 430 -440 410 1 0 0 0 1 0 0 0 1 3005.dat
1 71 430 -448 410 1 0 0 0 1 0 0 0 1 3070b.dat
1 71 530 -440 410 1 0 0 0 1 0 0 0 1 3005.dat
1 71 530 -448 410 1 0 0 0 1 0 0 0 1 3070b.dat
1 71 470 -440 230 1 0 0 0 1 0 0 0 1 3005.dat
1 71 470 -448 230 1 0 0 0 1 0 0 0 1 3070b.dat
1 71 470 -440 410 1 0 0 0 1 0 0 0 1 3005.dat
1 71 470 -448 410 1 0 0 0 1 0 0 0 1 3070b.dat
1 71 430 -440 270 1 0 0 0 1 0 0 0 1 3005.dat
1 71 430 -448 270 1 0 0 0 1 0 0 0 1 3070b.dat
1 71 430 -440 310 1 0 0 0 1 0 0 0 1 3005.dat
1 71 430 -448 310 1 0 0 0 1 0 0 0 1 3070b.dat
1 71 430 -440 350 1 0 0 0 1 0 0 0 1 3005.dat
1 71 430 -448 350 1 0 0 0 1 0 0 0 1 3070b.dat
1 71 530 -440 270 1 0 0 0 1 0 0 0 1 3005.dat
1 71 530 -448 270 1 0 0 0 1 0 0 0 1 3070b.dat
1 71 530 -440 310 1 0 0 0 1 0 0 0 1 3005.dat
1 71 530 -448 310 1 0 0 0 1 0 0 0 1 3070b.dat
1 71 530 -440 350 1 0 0 0 1 0 0 0 1 3005.dat
1 71 530 -448 350 1 0 0 0 1 0 0 0 1 3070b.dat
0 STEP
1 70 510 -440 250 1 0 0 0 1 0 0 0 1 3062b.dat
1 70 510 -464 250 1 0 0 0 1 0 0 0 1 3062b.dat
1 4 510 -488 250 0 0 1 0 1 0 -1 0 0 4495b.dat
1 297 510 -512 250 1 0 0 0 1 0 0 0 1 4589.dat
1 70 510 -440 390 1 0 0 0 1 0 0 0 1 3062b.dat
1 70 510 -464 390 1 0 0 0 1 0 0 0 1 3062b.dat
1 4 510 -488 390 0 0 1 0 1 0 -1 0 0 4495b.dat
1 297 510 -512 390 1 0 0 0 1 0 0 0 1 4589.dat
0 STEP
0 // South-east tower
1 71 480 -184 130 -1 0 0 0 1 0 0 0 -1 30044.dat
1 0 476.75 -152.75 122 -1 0 0 0 1 0 0 0 -1 30046.dat
1 71 480 -192 130 1 0 0 0 1 0 0 0 1 3023.dat
1 71 460 -24 30 1 0 0 0 1 0 0 0 1 3010.dat
1 72 520 -24 30 1 0 0 0 1 0 0 0 1 98283.dat
1 72 440 -24 130 1 0 0 0 1 0 0 0 1 3004.dat
1 72 500 -24 130 1 0 0 0 1 0 0 0 1 3010.dat
1 71 430 -24 80 0 0 1 0 1 0 -1 0 0 3010.dat
1 71 530 -24 60 0 0 1 0 1 0 -1 0 0 3004.dat
1 71 530 -24 100 0 0 1 0 1 0 -1 0 0 3004.dat
1 71 430 -48 40 0 0 1 0 1 0 -1 0 0 3004.dat
1 71 430 -48 100 0 0 1 0 1 0 -1 0 0 3010.dat
1 72 530 -48 60 0 0 1 0 1 0 -1 0 0 3010.dat
1 71 530 -48 120 0 0 1 0 1 0 -1 0 0 3004.dat
1 71 460 -48 30 1 0 0 0 1 0 0 0 1 98283.dat
1 71 500 -48 30 1 0 0 0 1 0 0 0 1 3004.dat
1 71 480 -48 130 1 0 0 0 1 0 0 0 1 3010.dat
0 STEP
1 71 460 -72 30 1 0 0 0 1 0 0 0 1 3010.dat
1 71 520 -72 30 1 0 0 0 1 0 0 0 1 3004.dat
1 71 440 -72 130 1 0 0 0 1 0 0 0 1 3004.dat
1 72 500 -72 130 1 0 0 0 1 0 0 0 1 3010.dat
1 71 430 -72 80 0 0 1 0 1 0 -1 0 0 3010.dat
1 71 530 -72 60 0 0 1 0 1 0 -1 0 0 98283.dat
1 71 530 -72 100 0 0 1 0 1 0 -1 0 0 3004.dat
1 71 430 -96 40 0 0 1 0 1 0 -1 0 0 3004.dat
1 71 430 -96 100 0 0 1 0 1 0 -1 0 0 3010.dat
1 71 530 -96 60 0 0 1 0 1 0 -1 0 0 3010.dat
1 71 530 -96 120 0 0 1 0 1 0 -1 0 0 3004.dat
1 71 460 -96 30 1 0 0 0 1 0 0 0 1 3004.dat
1 71 500 -96 30 1 0 0 0 1 0 0 0 1 3004.dat
1 71 480 -96 130 1 0 0 0 1 0 0 0 1 3010.dat
0 STEP
1 71 440 -120 30 1 0 0 0 1 0 0 0 1 3004.dat
1 71 510 -120 30 1 0 0 0 1 0 0 0 1 3622.dat
1 71 440 -120 130 1 0 0 0 1 0 0 0 1 3004.dat
1 71 500 -120 130 1 0 0 0 1 0 0 0 1 3010.dat
1 71 430 -120 80 0 0 1 0 1 0 -1 0 0 3010.dat
1 71 530 -120 50 0 0 1 0 1 0 -1 0 0 3005.dat
1 71 530 -120 100 0 0 1 0 1 0 -1 0 0 3004.dat
1 71 430 -144 40 0 0 1 0 1 0 -1 0 0 98283.dat
1 72 430 -144 100 0 0 1 0 1 0 -1 0 0 3010.dat
1 71 530 -144 40 0 0 1 0 1 0 -1 0 0 3004.dat
1 71 530 -144 110 0 0 1 0 1 0 -1 0 0 3622.dat
1 71 450 -144 30 1 0 0 0 1 0 0 0 1 3005.dat
1 72 500 -144 30 1 0 0 0 1 0 0 0 1 3004.dat
1 72 450 -144 130 1 0 0 0 1 0 0 0 1 3005.dat
1 71 510 -144 130 1 0 0 0 1 0 0 0 1 3005.dat
0 STEP
1 71 460 -168 30 1 0 0 0 1 0 0 0 1 3010.dat
1 71 520 -168 30 1 0 0 0 1 0 0 0 1 3004.dat
1 71 440 -168 130 1 0 0 0 1 0 0 0 1 98283.dat
1 71 520 -168 130 1 0 0 0 1 0 0 0 1 3004.dat
1 71 430 -168 80 0 0 1 0 1 0 -1 0 0 3010.dat
1 71 530 -168 60 0 0 1 0 1 0 -1 0 0 3004.dat
1 71 530 -168 100 0 0 1 0 1 0 -1 0 0 3004.dat
1 72 430 -192 40 0 0 1 0 1 0 -1 0 0 98283.dat
1 71 430 -192 100 0 0 1 0 1 0 -1 0 0 3010.dat
1 71 530 -192 60 0 0 1 0 1 0 -1 0 0 3010.dat
1 71 530 -192 120 0 0 1 0 1 0 -1 0 0 3004.dat
1 71 460 -192 30 1 0 0 0 1 0 0 0 1 3004.dat
1 71 500 -192 30 1 0 0 0 1 0 0 0 1 98283.dat
1 71 450 -192 130 1 0 0 0 1 0 0 0 1 3005.dat
1 71 510 -192 130 1 0 0 0 1 0 0 0 1 3005.dat
0 STEP
1 71 460 -216 30 1 0 0 0 1 0 0 0 1 3010.dat
1 71 520 -216 30 1 0 0 0 1 0 0 0 1 3004.dat
1 71 440 -216 130 1 0 0 0 1 0 0 0 1 3004.dat
1 71 500 -216 130 1 0 0 0 1 0 0 0 1 3010.dat
1 71 430 -216 80 0 0 1 0 1 0 -1 0 0 3010.dat
1 71 530 -216 60 0 0 1 0 1 0 -1 0 0 3004.dat
1 71 530 -216 100 0 0 1 0 1 0 -1 0 0 98283.dat
1 71 430 -240 40 0 0 1 0 1 0 -1 0 0 3004.dat
1 71 430 -240 100 0 0 1 0 1 0 -1 0 0 3010.dat
1 71 530 -240 60 0 0 1 0 1 0 -1 0 0 3010.dat
1 71 530 -240 120 0 0 1 0 1 0 -1 0 0 3004.dat
1 71 460 -240 30 1 0 0 0 1 0 0 0 1 98283.dat
1 71 500 -240 30 1 0 0 0 1 0 0 0 1 3004.dat
1 71 480 -240 130 1 0 0 0 1 0 0 0 1 3010.dat
0 STEP
1 71 450 -264 30 1 0 0 0 1 0 0 0 1 3622.dat
1 71 520 -264 30 1 0 0 0 1 0 0 0 1 3004.dat
1 71 440 -264 130 1 0 0 0 1 0 0 0 1 3004.dat
1 71 500 -264 130 1 0 0 0 1 0 0 0 1 3010.dat
1 71 430 -264 80 0 0 1 0 1 0 -1 0 0 3010.dat
1 71 530 -264 60 0 0 1 0 1 0 -1 0 0 98283.dat
1 71 530 -264 110 0 0 1 0 1 0 -1 0 0 3005.dat
1 71 430 -288 40 0 0 1 0 1 0 -1 0 0 3004.dat
1 71 430 -288 100 0 0 1 0 1 0 -1 0 0 3010.dat
1 71 530 -288 50 0 0 1 0 1 0 -1 0 0 3622.dat
1 72 530 -288 120 0 0 1 0 1 0 -1 0 0 98283.dat
1 71 460 -288 30 1 0 0 0 1 0 0 0 1 3004.dat
1 71 510 -288 30 1 0 0 0 1 0 0 0 1 3005.dat
1 71 480 -288 130 1 0 0 0 1 0 0 0 1 3010.dat
0 STEP
1 71 460 -312 30 1 0 0 0 1 0 0 0 1 3010.dat
1 71 520 -312 30 1 0 0 0 1 0 0 0 1 3004.dat
1 71 440 -312 130 1 0 0 0 1 0 0 0 1 3004.dat
1 71 500 -312 130 1 0 0 0 1 0 0 0 1 3010.dat
1 71 430 -312 80 0 0 1 0 1 0 -1 0 0 3010.dat
1 71 530 -312 60 0 0 1 0 1 0 -1 0 0 3004.dat
1 71 530 -312 100 0 0 1 0 1 0 -1 0 0 3004.dat
1 71 430 -336 40 0 0 1 0 1 0 -1 0 0 98283.dat
1 71 430 -336 100 0 0 1 0 1 0 -1 0 0 3010.dat
1 71 530 -336 60 0 0 1 0 1 0 -1 0 0 3010.dat
1 71 530 -336 120 0 0 1 0 1 0 -1 0 0 3004.dat
1 71 460 -336 30 1 0 0 0 1 0 0 0 1 3004.dat
1 71 500 -336 30 1 0 0 0 1 0 0 0 1 98283.dat
1 71 480 -336 130 1 0 0 0 1 0 0 0 1 3010.dat
0 STEP
1 71 450 -360 30 1 0 0 0 1 0 0 0 1 3665a.dat
1 71 450 -360 130 -1 0 0 0 1 0 0 0 -1 3665a.dat
1 71 430 -360 50 0 0 1 0 1 0 -1 0 0 3665a.dat
1 71 530 -360 50 0 0 -1 0 1 0 1 0 0 3665a.dat
1 71 490 -360 30 1 0 0 0 1 0 0 0 1 3665a.dat
1 71 490 -360 130 -1 0 0 0 1 0 0 0 -1 3665a.dat
1 71 430 -360 90 0 0 1 0 1 0 -1 0 0 3665a.dat
1 71 530 -360 90 0 0 -1 0 1 0 1 0 0 3665a.dat
1 71 430 -360 30 1 0 0 0 1 0 0 0 1 3005.dat
1 71 470 -360 30 1 0 0 0 1 0 0 0 1 3005.dat
1 71 520 -360 30 1 0 0 0 1 0 0 0 1 98283.dat
1 71 430 -360 130 1 0 0 0 1 0 0 0 1 3005.dat
1 71 470 -360 130 1 0 0 0 1 0 0 0 1 3005.dat
1 71 520 -360 130 1 0 0 0 1 0 0 0 1 3004.dat
1 71 430 -360 70 0 0 1 0 1 0 -1 0 0 3005.dat
1 71 430 -360 110 0 0 1 0 1 0 -1 0 0 3005.dat
1 71 530 -360 70 0 0 1 0 1 0 -1 0 0 3005.dat
1 71 530 -360 110 0 0 1 0 1 0 -1 0 0 3005.dat
0 STEP
1 72 480 -368 80 1 0 0 0 1 0 0 0 1 41539.dat
0 STEP
1 71 410 -392 10 1 0 0 0 1 0 0 0 1 3005.dat
1 71 410 -400 10 1 0 0 0 1 0 0 0 1 3070b.dat
1 71 550 -392 10 1 0 0 0 1 0 0 0 1 3005.dat
1 71 550 -400 10 1 0 0 0 1 0 0 0 1 3070b.dat
1 71 410 -392 150 1 0 0 0 1 0 0 0 1 3005.dat
1 71 410 -400 150 1 0 0 0 1 0 0 0 1 3070b.dat
1 71 550 -392 150 1 0 0 0 1 0 0 0 1 3005.dat
1 71 550 -400 150 1 0 0 0 1 0 0 0 1 3070b.dat
1 71 450 -392 10 1 0 0 0 1 0 0 0 1 3005.dat
1 71 450 -400 10 1 0 0 0 1 0 0 0 1 3070b.dat
1 71 490 -392 10 1 0 0 0 1 0 0 0 1 3005.dat
1 71 490 -400 10 1 0 0 0 1 0 0 0 1 3070b.dat
1 71 450 -392 150 1 0 0 0 1 0 0 0 1 3005.dat
1 71 450 -400 150 1 0 0 0 1 0 0 0 1 3070b.dat
1 71 490 -392 150 1 0 0 0 1 0 0 0 1 3005.dat
1 71 490 -400 150 1 0 0 0 1 0 0 0 1 3070b.dat
1 71 410 -392 50 1 0 0 0 1 0 0 0 1 3005.dat
1 71 410 -400 50 1 0 0 0 1 0 0 0 1 3070b.dat
1 71 410 -392 90 1 0 0 0 1 0 0 0 1 3005.dat
1 71 410 -400 90 1 0 0 0 1 0 0 0 1 3070b.dat
1 71 550 -392 50 1 0 0 0 1 0 0 0 1 3005.dat
1 71 550 -400 50 1 0 0 0 1 0 0 0 1 3070b.dat
1 71 550 -392 90 1 0 0 0 1 0 0 0 1 3005.dat
1 71 550 -400 90 1 0 0 0 1 0 0 0 1 3070b.dat
0 STEP
1 70 470 -392 70 1 0 0 0 1 0 0 0 1 3062b.dat
1 70 470 -416 70 1 0 0 0 1 0 0 0 1 3062b.dat
1 70 470 -440 70 1 0 0 0 1 0 0 0 1 3062b.dat
1 14 470 -464 70 1 0 0 0 1 0 0 0 1 4495b.dat
1 297 470 -488 70 1 0 0 0 1 0 0 0 1 4589.dat
0 STEP
0 // North-east tower
1 71 480 -184 510 1 0 0 0 1 0 0 0 1 30044.dat
1 0 476.75 -152.75 502 1 0 0 0 1 0 0 0 1 30046.dat
1 71 480 -192 510 1 0 0 0 1 0 0 0 1 3023.dat
1 72 460 -24 510 1 0 0 0 1 0 0 0 1 3010.dat
1 71 520 -24 510 1 0 0 0 1 0 0 0 1 3004.dat
1 71 440 -24 610 1 0 0 0 1 0 0 0 1 98283.dat
1 72 500 -24 610 1 0 0 0 1 0 0 0 1 3010.dat
1 71 430 -24 560 0 0 1 0 1 0 -1 0 0 3010.dat
1 72 530 -24 540 0 0 1 0 1 0 -1 0 0 98283.dat
1 71 530 -24 580 0 0 1 0 1 0 -1 0 0 3004.dat
1 71 430 -48 520 0 0 1 0 1 0 -1 0 0 98283.dat
1 71 430 -48 580 0 0 1 0 1 0 -1 0 0 3010.dat
1 71 530 -48 540 0 0 1 0 1 0 -1 0 0 3010.dat
1 71 530 -48 600 0 0 1 0 1 0 -1 0 0 3004.dat
1 71 460 -48 510 1 0 0 0 1 0 0 0 1 98283.dat
1 71 500 -48 510 1 0 0 0 1 0 0 0 1 98283.dat
1 71 480 -48 610 1 0 0 0 1 0 0 0 1 3010.dat
0 STEP
1 71 460 -72 510 1 0 0 0 1 0 0 0 1 3010.dat
1 71 520 -72 510 1 0 0 0 1 0 0 0 1 98283.dat
1 71 440 -72 610 1 0 0 0 1 0 0 0 1 98283.dat
1 71 500 -72 610 1 0 0 0 1 0 0 0 1 3010.dat
1 71 430 -72 560 0 0 1 0 1 0 -1 0 0 3010.dat
1 71 530 -72 540 0 0 1 0 1 0 -1 0 0 98283.dat
1 72 530 -72 580 0 0 1 0 1 0 -1 0 0 3004.dat
1 71 430 -96 520 0 0 1 0 1 0 -1 0 0 3004.dat
1 71 430 -96 580 0 0 1 0 1 0 -1 0 0 3010.dat
1 71 530 -96 540 0 0 1 0 1 0 -1 0 0 3010.dat
1 71 530 -96 600 0 0 1 0 1 0 -1 0 0 3004.dat
1 71 460 -96 510 1 0 0 0 1 0 0 0 1 98283.dat
1 71 500 -96 510 1 0 0 0 1 0 0 0 1 3004.dat
1 71 480 -96 610 1 0 0 0 1 0 0 0 1 3010.dat
0 STEP
1 71 460 -120 510 1 0 0 0 1 0 0 0 1 3010.dat
1 71 520 -120 510 1 0 0 0 1 0 0 0 1 3004.dat
1 71 440 -120 610 1 0 0 0 1 0 0 0 1 98283.dat
1 71 470 -120 610 1 0 0 0 1 0 0 0 1 3005.dat
1 72 520 -120 610 1 0 0 0 1 0 0 0 1 3004.dat
1 71 430 -120 560 0 0 1 0 1 0 -1 0 0 3010.dat
1 71 530 -120 540 0 0 1 0 1 0 -1 0 0 3004.dat
1 71 530 -120 590 0 0 1 0 1 0 -1 0 0 3005.dat
1 71 430 -144 520 0 0 1 0 1 0 -1 0 0 3004.dat
1 71 430 -144 580 0 0 1 0 1 0 -1 0 0 3010.dat
1 71 530 -144 530 0 0 1 0 1 0 -1 0 0 3622.dat
1 71 530 -144 600 0 0 1 0 1 0 -1 0 0 98283.dat
1 71 450 -144 510 1 0 0 0 1 0 0 0 1 3005.dat
1 71 510 -144 510 1 0 0 0 1 0 0 0 1 3005.dat
1 71 460 -144 610 1 0 0 0 1 0 0 0 1 3004.dat
1 71 510 -144 610 1 0 0 0 1 0 0 0 1 3005.dat
0 STEP
1 71 440 -168 510 1 0 0 0 1 0 0 0 1 3004.dat
1 71 520 -168 510 1 0 0 0 1 0 0 0 1 3004.dat
1 71 440 -168 610 1 0 0 0 1 0 0 0 1 3004.dat
1 71 500 -168 610 1 0 0 0 1 0 0 0 1 3010.dat
1 72 430 -168 560 0 0 1 0 1 0 -1 0 0 3010.dat
1 71 530 -168 540 0 0 1 0 1 0 -1 0 0 3004.dat
1 72 530 -168 580 0 0 1 0 1 0 -1 0 0 3004.dat
1 71 430 -192 520 0 0 1 0 1 0 -1 0 0 3004.dat
1 71 430 -192 580 0 0 1 0 1 0 -1 0 0 3010.dat
1 71 530 -192 540 0 0 1 0 1 0 -1 0 0 3010.dat
1 71 530 -192 600 0 0 1 0 1 0 -1 0 0 98283.dat
1 71 450 -192 510 1 0 0 0 1 0 0 0 1 3005.dat
1 71 510 -192 510 1 0 0 0 1 0 0 0 1 3005.dat
1 71 480 -192 610 1 0 0 0 1 0 0 0 1 3010.dat
0 STEP
1 71 460 -216 510 1 0 0 0 1 0 0 0 1 3010.dat
1 71 520 -216 510 1 0 0 0 1 0 0 0 1 3004.dat
1 71 440 -216 610 1 0 0 0 1 0 0 0 1 3004.dat
1 71 500 -216 610 1 0 0 0 1 0 0 0 1 3010.dat
1 72 430 -216 560 0 0 1 0 1 0 -1 0 0 3010.dat
1 71 530 -216 540 0 0 1 0 1 0 -1 0 0 3004.dat
1 71 530 -216 580 0 0 1 0 1 0 -1 0 0 3004.dat
1 72 430 -240 520 0 0 1 0 1 0 -1 0 0 98283.dat
1 71 430 -240 580 0 0 1 0 1 0 -1 0 0 3010.dat
1 72 530 -240 540 0 0 1 0 1 0 -1 0 0 3010.dat
1 71 530 -240 600 0 0 1 0 1 0 -1 0 0 3004.dat
1 71 460 -240 510 1 0 0 0 1 0 0 0 1 3004.dat
1 71 500 -240 510 1 0 0 0 1 0 0 0 1 3004.dat
1 71 480 -240 610 1 0 0 0 1 0 0 0 1 3010.dat
0 STEP
1 71 460 -264 510 1 0 0 0 1 0 0 0 1 3010.dat
1 71 520 -264 510 1 0 0 0 1 0 0 0 1 98283.dat
1 71 440 -264 610 1 0 0 0 1 0 0 0 1 3004.dat
1 72 500 -264 610 1 0 0 0 1 0 0 0 1 3004.dat
1 71 530 -264 610 1 0 0 0 1 0 0 0 1 3005.dat
1 71 430 -264 560 0 0 1 0 1 0 -1 0 0 3010.dat
1 71 530 -264 530 0 0 1 0 1 0 -1 0 0 3005.dat
1 71 530 -264 580 0 0 1 0 1 0 -1 0 0 3004.dat
1 72 430 -288 520 0 0 1 0 1 0 -1 0 0 3004.dat
1 71 430 -288 580 0 0 1 0 1 0 -1 0 0 3010.dat
1 71 530 -288 520 0 0 1 0 1 0 -1 0 0 3004.dat
1 71 530 -288 590 0 0 1 0 1 0 -1 0 0 3622.dat
1 71 460 -288 510 1 0 0 0 1 0 0 0 1 3004.dat
1 71 500 -288 510 1 0 0 0 1 0 0 0 1 98283.dat
1 71 450 -288 610 1 0 0 0 1 0 0 0 1 3005.dat
1 71 500 -288 610 1 0 0 0 1 0 0 0 1 98283.dat
0 STEP
1 71 460 -312 510 1 0 0 0 1 0 0 0 1 3010.dat
1 72 520 -312 510 1 0 0 0 1 0 0 0 1 98283.dat
1 71 440 -312 610 1 0 0 0 1 0 0 0 1 3004.dat
1 71 500 -312 610 1 0 0 0 1 0 0 0 1 3010.dat
1 71 430 -312 560 0 0 1 0 1 0 -1 0 0 3010.dat
1 72 530 -312 540 0 0 1 0 1 0 -1 0 0 3004.dat
1 71 530 -312 580 0 0 1 0 1 0 -1 0 0 98283.dat
1 71 430 -336 520 0 0 1 0 1 0 -1 0 0 3004.dat
1 71 430 -336 580 0 0 1 0 1 0 -1 0 0 3010.dat
1 71 530 -336 540 0 0 1 0 1 0 -1 0 0 3010.dat
1 71 530 -336 600 0 0 1 0 1 0 -1 0 0 3004.dat
1 71 460 -336 510 1 0 0 0 1 0 0 0 1 3004.dat
1 71 500 -336 510 1 0 0 0 1 0 0 0 1 3004.dat
1 71 480 -336 610 1 0 0 0 1 0 0 0 1 3010.dat
0 STEP
1 71 450 -360 510 1 0 0 0 1 0 0 0 1 3665a.dat
1 71 450 -360 610 -1 0 0 0 1 0 0 0 -1 3665a.dat
1 71 430 -360 530 0 0 1 0 1 0 -1 0 0 3665a.dat
1 71 530 -360 530 0 0 -1 0 1 0 1 0 0 3665a.dat
1 71 490 -360 510 1 0 0 0 1 0 0 0 1 3665a.dat
1 71 490 -360 610 -1 0 0 0 1 0 0 0 -1 3665a.dat
1 71 430 -360 570 0 0 1 0 1 0 -1 0 0 3665a.dat
1 71 530 -360 570 0 0 -1 0 1 0 1 0 0 3665a.dat
1 71 430 -360 510 1 0 0 0 1 0 0 0 1 3005.dat
1 71 470 -360 510 1 0 0 0 1 0 0 0 1 3005.dat
1 71 520 -360 510 1 0 0 0 1 0 0 0 1 3004.dat
1 71 430 -360 610 1 0 0 0 1 0 0 0 1 3005.dat
1 72 470 -360 610 1 0 0 0 1 0 0 0 1 3005.dat
1 71 520 -360 610 1 0 0 0 1 0 0 0 1 98283.dat
1 71 430 -360 550 0 0 1 0 1 0 -1 0 0 3005.dat
1 71 430 -360 590 0 0 1 0 1 0 -1 0 0 3005.dat
1 71 530 -360 550 0 0 1 0 1 0 -1 0 0 3005.dat
1 71 530 -360 590 0 0 1 0 1 0 -1 0 0 3005.dat
0 STEP
1 72 480 -368 560 1 0 0 0 1 0 0 0 1 41539.dat
0 STEP
1 71 410 -392 490 1 0 0 0 1 0 0 0 1 3005.dat
1 71 410 -400 490 1 0 0 0 1 0 0 0 1 3070b.dat
1 71 550 -392 490 1 0 0 0 1 0 0 0 1 3005.dat
1 71 550 -400 490 1 0 0 0 1 0 0 0 1 3070b.dat
1 71 410 -392 630 1 0 0 0 1 0 0 0 1 3005.dat
1 71 410 -400 630 1 0 0 0 1 0 0 0 1 3070b.dat
1 71 550 -392 630 1 0 0 0 1 0 0 0 1 3005.dat
1 71 550 -400 630 1 0 0 0 1 0 0 0 1 3070b.dat
1 71 450 -392 490 1 0 0 0 1 0 0 0 1 3005.dat
1 71 450 -400 490 1 0 0 0 1 0 0 0 1 3070b.dat
1 71 490 -392 490 1 0 0 0 1 0 0 0 1 3005.dat
1 71 490 -400 490 1 0 0 0 1 0 0 0 1 3070b.dat
1 71 450 -392 630 1 0 0 0 1 0 0 0 1 3005.dat
1 71 450 -400 630 1 0 0 0 1 0 0 0 1 3070b.dat
1 71 490 -392 630 1 0 0 0 1 0 0 0 1 3005.dat
1 71 490 -400 630 1 0 0 0 1 0 0 0 1 3070b.dat
1 71 410 -392 530 1 0 0 0 1 0 0 0 1 3005.dat
1 71 410 -400 530 1 0 0 0 1 0 0 0 1 3070b.dat
1 71 410 -392 570 1 0 0 0 1 0 0 0 1 3005.dat
1 71 410 -400 570 1 0 0 0 1 0 0 0 1 3070b.dat
1 71 550 -392 530 1 0 0 0 1 0 0 0 1 3005.dat
1 71 550 -400 530 1 0 0 0 1 0 0 0 1 3070b.dat
1 71 550 -392 570 1 0 0 0 1 0 0 0 1 3005.dat
1 71 550 -400 570 1 0 0 0 1 0 0 0 1 3070b.dat
0 STEP
1 70 470 -392 550 1 0 0 0 1 0 0 0 1 3062b.dat
1 70 470 -416 550 1 0 0 0 1 0 0 0 1 3062b.dat
1 70 470 -440 550 1 0 0 0 1 0 0 0 1 3062b.dat
1 14 470 -464 550 1 0 0 0 1 0 0 0 1 4495b.dat
1 297 470 -488 550 1 0 0 0 1 0 0 0 1 4589.dat
0 STEP
0 // South-west tower
1 71 80 -328 30 1 0 0 0 1 0 0 0 1 30044.dat
1 0 76.75 -296.75 22 1 0 0 0 1 0 0 0 1 30046.dat
1 71 80 -336 30 1 0 0 0 1 0 0 0 1 3023.dat
1 71 30 -328 80 0 0 1 0 1 0 -1 0 0 30044.dat
1 0 22 -296.75 76.75 0 0 1 0 1 0 -1 0 0 30046.dat
1 71 30 -336 80 0 0 1 0 1 0 -1 0 0 3023.dat
1 71 130 -328 80 0 0 -1 0 1 0 1 0 0 30044.dat
1 0 122 -296.75 76.75 0 0 -1 0 1 0 1 0 0 30046.dat
1 71 130 -336 80 0 0 1 0 1 0 -1 0 0 3023.dat
1 71 60 -24 30 1 0 0 0 1 0 0 0 1 3010.dat
1 72 120 -24 30 1 0 0 0 1 0 0 0 1 3004.dat
1 72 40 -24 130 1 0 0 0 1 0 0 0 1 3004.dat
1 71 100 -24 130 1 0 0 0 1 0 0 0 1 3010.dat
1 71 30 -24 80 0 0 1 0 1 0 -1 0 0 3010.dat
1 72 130 -24 60 0 0 1 0 1 0 -1 0 0 98283.dat
1 71 130 -24 100 0 0 1 0 1 0 -1 0 0 3004.dat
1 71 30 -48 40 0 0 1 0 1 0 -1 0 0 3004.dat
1 71 30 -48 100 0 0 1 0 1 0 -1 0 0 3010.dat
1 71 130 -48 60 0 0 1 0 1 0 -1 0 0 3010.dat
1 71 130 -48 120 0 0 1 0 1 0 -1 0 0 3004.dat
1 71 60 -48 30 1 0 0 0 1 0 0 0 1 3004.dat
1 71 100 -48 30 1 0 0 0 1 0 0 0 1 98283.dat
1 71 80 -48 130 1 0 0 0 1 0 0 0 1 3010.dat
0 STEP
1 71 60 -72 30 1 0 0 0 1 0 0 0 1 3010.dat
1 71 120 -72 30 1 0 0 0 1 0 0 0 1 98283.dat
1 72 40 -72 130 1 0 0 0 1 0 0 0 1 98283.dat
1 71 100 -72 130 1 0 0 0 1 0 0 0 1 3010.dat
1 71 30 -72 80 0 0 1 0 1 0 -1 0 0 3010.dat
1 71 130 -72 60 0 0 1 0 1 0 -1 0 0 3004.dat
1 72 130 -72 100 0 0 1 0 1 0 -1 0 0 98283.dat
1 71 30 -96 40 0 0 1 0 1 0 -1 0 0 3004.dat
1 71 30 -96 100 0 0 1 0 1 0 -1 0 0 3010.dat
1 71 130 -96 60 0 0 1 0 1 0 -1 0 0 3010.dat
1 71 130 -96 120 0 0 1 0 1 0 -1 0 0 98283.dat
1 71 60 -96 30 1 0 0 0 1 0 0 0 1 3004.dat
1 71 100 -96 30 1 0 0 0 1 0 0 0 1 98283.dat
1 71 80 -96 130 1 0 0 0 1 0 0 0 1 3010.dat
0 STEP
1 71 40 -120 30 1 0 0 0 1 0 0 0 1 3004.dat
1 71 110 -120 30 1 0 0 0 1 0 0 0 1 3622.dat
1 71 40 -120 130 1 0 0 0 1 0 0 0 1 3004.dat
1 71 100 -120 130 1 0 0 0 1 0 0 0 1 3010.dat
1 71 30 -120 50 0 0 1 0 1 0 -1 0 0 3005.dat
1 71 30 -120 100 0 0 1 0 1 0 -1 0 0 3004.dat
1 71 130 -120 60 0 0 1 0 1 0 -1 0 0 98283.dat
1 71 130 -120 100 0 0 1 0 1 0 -1 0 0 3004.dat
1 71 30 -144 40 0 0 1 0 1 0 -1 0 0 3004.dat
1 71 30 -144 100 0 0 1 0 1 0 -1 0 0 98283.dat
1 71 30 -144 130 0 0 1 0 1 0 -1 0 0 3005.dat
1 72 130 -144 60 0 0 1 0 1 0 -1 0 0 3010.dat
1 72 130 -144 120 0 0 1 0 1 0 -1 0 0 3004.dat
1 71 50 -144 30 1 0 0 0 1 0 0 0 1 3005.dat
1 71 100 -144 30 1 0 0 0 1 0 0 0 1 98283.dat
1 71 80 -144 130 1 0 0 0 1 0 0 0 1 3010.dat
0 STEP
1 72 60 -168 30 1 0 0 0 1 0 0 0 1 3010.dat
1 71 120 -168 30 1 0 0 0 1 0 0 0 1 3004.dat
1 72 40 -168 130 1 0 0 0 1 0 0 0 1 98283.dat
1 71 100 -168 130 1 0 0 0 1 0 0 0 1 3010.dat
1 71 30 -168 80 0 0 1 0 1 0 -1 0 0 3010.dat
1 71 130 -168 60 0 0 1 0 1 0 -1 0 0 98283.dat
1 71 130 -168 100 0 0 1 0 1 0 -1 0 0 3004.dat
1 71 30 -192 40 0 0 1 0 1 0 -1 0 0 98283.dat
1 71 30 -192 100 0 0 1 0 1 0 -1 0 0 3010.dat
1 71 130 -192 60 0 0 1 0 1 0 -1 0 0 3010.dat
1 71 130 -192 120 0 0 1 0 1 0 -1 0 0 3004.dat
1 71 60 -192 30 1 0 0 0 1 0 0 0 1 3004.dat
1 71 100 -192 30 1 0 0 0 1 0 0 0 1 98283.dat
1 71 80 -192 130 1 0 0 0 1 0 0 0 1 3010.dat
0 STEP
1 71 60 -216 30 1 0 0 0 1 0 0 0 1 3010.dat
1 71 120 -216 30 1 0 0 0 1 0 0 0 1 3004.dat
1 71 40 -216 130 1 0 0 0 1 0 0 0 1 3004.dat
1 71 100 -216 130 1 0 0 0 1 0 0 0 1 3010.dat
1 71 30 -216 80 0 0 1 0 1 0 -1 0 0 3010.dat
1 71 130 -216 60 0 0 1 0 1 0 -1 0 0 3004.dat
1 71 130 -216 100 0 0 1 0 1 0 -1 0 0 3004.dat
1 71 30 -240 40 0 0 1 0 1 0 -1 0 0 3004.dat
1 71 30 -240 100 0 0 1 0 1 0 -1 0 0 3010.dat
1 71 130 -240 60 0 0 1 0 1 0 -1 0 0 3010.dat
1 71 130 -240 120 0 0 1 0 1 0 -1 0 0 3004.dat
1 71 60 -240 30 1 0 0 0 1 0 0 0 1 98283.dat
1 72 100 -240 30 1 0 0 0 1 0 0 0 1 3004.dat
1 71 80 -240 130 1 0 0 0 1 0 0 0 1 3010.dat
0 STEP
1 71 60 -264 30 1 0 0 0 1 0 0 0 1 3010.dat
1 71 120 -264 30 1 0 0 0 1 0 0 0 1 3004.dat
1 71 40 -264 130 1 0 0 0 1 0 0 0 1 98283.dat
1 71 100 -264 130 1 0 0 0 1 0 0 0 1 3010.dat
1 71 30 -264 80 0 0 1 0 1 0 -1 0 0 3010.dat
1 72 130 -264 60 0 0 1 0 1 0 -1 0 0 98283.dat
1 71 130 -264 100 0 0 1 0 1 0 -1 0 0 3004.dat
1 72 30 -288 40 0 0 1 0 1 0 -1 0 0 3004.dat
1 71 30 -288 120 0 0 1 0 1 0 -1 0 0 3004.dat
1 71 130 -288 40 0 0 1 0 1 0 -1 0 0 98283.dat
1 71 130 -288 120 0 0 1 0 1 0 -1 0 0 3004.dat
1 71 50 -288 30 1 0 0 0 1 0 0 0 1 3005.dat
1 71 110 -288 30 1 0 0 0 1 0 0 0 1 3005.dat
1 71 80 -288 130 1 0 0 0 1 0 0 0 1 3010.dat
0 STEP
1 71 40 -312 30 1 0 0 0 1 0 0 0 1 3004.dat
1 71 120 -312 30 1 0 0 0 1 0 0 0 1 3004.dat
1 71 40 -312 130 1 0 0 0 1 0 0 0 1 3004.dat
1 71 100 -312 130 1 0 0 0 1 0 0 0 1 3010.dat
1 71 30 -312 50 0 0 1 0 1 0 -1 0 0 3005.dat
1 71 30 -312 110 0 0 1 0 1 0 -1 0 0 3005.dat
1 71 130 -312 50 0 0 1 0 1 0 -1 0 0 3005.dat
1 71 130 -312 110 0 0 1 0 1 0 -1 0 0 3005.dat
1 71 30 -336 40 0 0 1 0 1 0 -1 0 0 3004.dat
1 71 30 -336 120 0 0 1 0 1 0 -1 0 0 3004.dat
1 71 130 -336 40 0 0 1 0 1 0 -1 0 0 3004.dat
1 71 130 -336 120 0 0 1 0 1 0 -1 0 0 3004.dat
1 71 50 -336 30 1 0 0 0 1 0 0 0 1 3005.dat
1 71 110 -336 30 1 0 0 0 1 0 0 0 1 3005.dat
1 71 80 -336 130 1 0 0 0 1 0 0 0 1 3010.dat
0 STEP
1 71 60 -360 30 1 0 0 0 1 0 0 0 1 3010.dat
1 71 120 -360 30 1 0 0 0 1 0 0 0 1 3004.dat
1 71 40 -360 130 1 0 0 0 1 0 0 0 1 98283.dat
1 71 100 -360 130 1 0 0 0 1 0 0 0 1 3010.dat
1 71 30 -360 80 0 0 1 0 1 0 -1 0 0 3010.dat
1 71 130 -360 60 0 0 1 0 1 0 -1 0 0 3004.dat
1 72 130 -360 100 0 0 1 0 1 0 -1 0 0 98283.dat
1 71 30 -384 40 0 0 1 0 1 0 -1 0 0 3004.dat
1 71 30 -384 100 0 0 1 0 1 0 -1 0 0 3010.dat
1 71 130 -384 60 0 0 1 0 1 0 -1 0 0 3010.dat
1 72 130 -384 120 0 0 1 0 1 0 -1 0 0 3004.dat
1 71 60 -384 30 1 0 0 0 1 0 0 0 1 3004.dat
1 72 100 -384 30 1 0 0 0 1 0 0 0 1 98283.dat
1 71 80 -384 130 1 0 0 0 1 0 0 0 1 3010.dat
0 STEP
1 71 60 -408 30 1 0 0 0 1 0 0 0 1 3010.dat
1 71 120 -408 30 1 0 0 0 1 0 0 0 1 3004.dat
1 71 40 -408 130 1 0 0 0 1 0 0 0 1 98283.dat
1 71 100 -408 130 1 0 0 0 1 0 0 0 1 3010.dat
1 71 30 -408 80 0 0 1 0 1 0 -1 0 0 3010.dat
1 71 130 -408 60 0 0 1 0 1 0 -1 0 0 3004.dat
1 71 130 -408 100 0 0 1 0 1 0 -1 0 0 3004.dat
1 71 50 -432 30 1 0 0 0 1 0 0 0 1 3665a.dat
1 71 50 -432 130 -1 0 0 0 1 0 0 0 -1 3665a.dat
1 71 30 -432 50 0 0 1 0 1 0 -1 0 0 3665a.dat
1 71 130 -432 50 0 0 -1 0 1 0 1 0 0 3665a.dat
1 71 90 -432 30 1 0 0 0 1 0 0 0 1 3665a.dat
1 71 90 -432 130 -1 0 0 0 1 0 0 0 -1 3665a.dat
1 71 30 -432 90 0 0 1 0 1 0 -1 0 0 3665a.dat
1 71 130 -432 90 0 0 -1 0 1 0 1 0 0 3665a.dat
1 71 30 -432 30 0 0 1 0 1 0 -1 0 0 3005.dat
1 71 30 -432 70 0 0 1 0 1 0 -1 0 0 3005.dat
1 71 30 -432 120 0 0 1 0 1 0 -1 0 0 3004.dat
1 71 130 -432 30 0 0 1 0 1 0 -1 0 0 3005.dat
1 71 130 -432 70 0 0 1 0 1 0 -1 0 0 3005.dat
1 71 130 -432 120 0 0 1 0 1 0 -1 0 0 3004.dat
1 71 70 -432 30 1 0 0 0 1 0 0 0 1 3005.dat
1 71 110 -432 30 1 0 0 0 1 0 0 0 1 3005.dat
1 72 70 -432 130 1 0 0 0 1 0 0 0 1 3005.dat
1 71 110 -432 130 1 0 0 0 1 0 0 0 1 3005.dat
0 STEP
1 72 80 -440 80 1 0 0 0 1 0 0 0 1 41539.dat
0 STEP
1 4 130 -464 30 1 0 0 0 1 0 0 0 1 3045.dat
1 4 30 -464 30 0 0 1 0 1 0 -1 0 0 3045.dat
1 4 30 -464 130 -1 0 0 0 1 0 0 0 -1 3045.dat
1 4 130 -464 130 0 0 -1 0 1 0 1 0 0 3045.dat
1 4 80 -464 30 1 0 0 0 1 0 0 0 1 3037.dat
1 4 80 -464 130 -1 0 0 0 1 0 0 0 -1 3037.dat
1 4 30 -464 80 0 0 1 0 1 0 -1 0 0 3037.dat
1 4 130 -464 80 0 0 -1 0 1 0 1 0 0 3037.dat
0 STEP
1 4 110 -488 50 1 0 0 0 1 0 0 0 1 3045.dat
1 4 50 -488 50 0 0 1 0 1 0 -1 0 0 3045.dat
1 4 50 -488 110 -1 0 0 0 1 0 0 0 -1 3045.dat
1 4 110 -488 110 0 0 -1 0 1 0 1 0 0 3045.dat
1 4 80 -488 50 1 0 0 0 1 0 0 0 1 3039.dat
1 4 80 -488 110 -1 0 0 0 1 0 0 0 -1 3039.dat
1 4 50 -488 80 0 0 1 0 1 0 -1 0 0 3039.dat
1 4 110 -488 80 0 0 -1 0 1 0 1 0 0 3039.dat
0 STEP
1 4 90 -512 70 1 0 0 0 1 0 0 0 1 3045.dat
1 4 70 -512 70 0 0 1 0 1 0 -1 0 0 3045.dat
1 4 70 -512 90 -1 0 0 0 1 0 0 0 -1 3045.dat
1 4 90 -512 90 0 0 -1 0 1 0 1 0 0 3045.dat
0 STEP
1 4 80 -560 80 1 0 0 0 1 0 0 0 1 3688.dat
1 70 80 -584 80 1 0 0 0 1 0 0 0 1 3062b.dat
1 4 80 -608 80 1 0 0 0 1 0 0 0 1 4495b.dat
1 297 80 -632 80 1 0 0 0 1 0 0 0 1 4589.dat
0 STEP
0 // North-west tower
1 71 80 -328 610 -1 0 0 0 1 0 0 0 -1 30044.dat
1 0 76.75 -296.75 602 -1 0 0 0 1 0 0 0 -1 30046.dat
1 71 80 -336 610 1 0 0 0 1 0 0 0 1 3023.dat
1 71 30 -328 560 0 0 1 0 1 0 -1 0 0 30044.dat
1 0 22 -296.75 556.75 0 0 1 0 1 0 -1 0 0 30046.dat
1 71 30 -336 560 0 0 1 0 1 0 -1 0 0 3023.dat
1 71 130 -328 560 0 0 -1 0 1 0 1 0 0 30044.dat
1 0 122 -296.75 556.75 0 0 -1 0 1 0 1 0 0 30046.dat
1 71 130 -336 560 0 0 1 0 1 0 -1 0 0 3023.dat
1 71 60 -24 510 1 0 0 0 1 0 0 0 1 3010.dat
1 72 120 -24 510 1 0 0 0 1 0 0 0 1 3004.dat
1 72 40 -24 610 1 0 0 0 1 0 0 0 1 98283.dat
1 71 100 -24 610 1 0 0 0 1 0 0 0 1 3010.dat
1 71 30 -24 560 0 0 1 0 1 0 -1 0 0 3010.dat
1 72 130 -24 540 0 0 1 0 1 0 -1 0 0 98283.dat
1 72 130 -24 580 0 0 1 0 1 0 -1 0 0 3004.dat
1 71 30 -48 520 0 0 1 0 1 0 -1 0 0 3004.dat
1 71 30 -48 580 0 0 1 0 1 0 -1 0 0 3010.dat
1 71 130 -48 540 0 0 1 0 1 0 -1 0 0 3010.dat
1 71 130 -48 600 0 0 1 0 1 0 -1 0 0 98283.dat
1 71 60 -48 510 1 0 0 0 1 0 0 0 1 3004.dat
1 71 100 -48 510 1 0 0 0 1 0 0 0 1 3004.dat
1 71 80 -48 610 1 0 0 0 1 0 0 0 1 3010.dat
0 STEP
1 71 60 -72 510 1 0 0 0 1 0 0 0 1 3010.dat
1 71 120 -72 510 1 0 0 0 1 0 0 0 1 98283.dat
1 71 40 -72 610 1 0 0 0 1 0 0 0 1 98283.dat
1 71 100 -72 610 1 0 0 0 1 0 0 0 1 3010.dat
1 71 30 -72 560 0 0 1 0 1 0 -1 0 0 3010.dat
1 71 130 -72 540 0 0 1 0 1 0 -1 0 0 98283.dat
1 71 130 -72 580 0 0 1 0 1 0 -1 0 0 3004.dat
1 72 30 -96 520 0 0 1 0 1 0 -1 0 0 3004.dat
1 71 30 -96 580 0 0 1 0 1 0 -1 0 0 3010.dat
1 71 130 -96 540 0 0 1 0 1 0 -1 0 0 3010.dat
1 71 130 -96 600 0 0 1 0 1 0 -1 0 0 3004.dat
1 71 60 -96 510 1 0 0 0 1 0 0 0 1 3004.dat
1 71 100 -96 510 1 0 0 0 1 0 0 0 1 3004.dat
1 72 80 -96 610 1 0 0 0 1 0 0 0 1 3010.dat
0 STEP
1 71 60 -120 510 1 0 0 0 1 0 0 0 1 3010.dat
1 71 120 -120 510 1 0 0 0 1 0 0 0 1 3004.dat
1 71 40 -120 610 1 0 0 0 1 0 0 0 1 98283.dat
1 71 70 -120 610 1 0 0 0 1 0 0 0 1 3005.dat
1 71 120 -120 610 1 0 0 0 1 0 0 0 1 98283.dat
1 72 30 -120 540 0 0 1 0 1 0 -1 0 0 98283.dat
1 71 30 -120 590 0 0 1 0 1 0 -1 0 0 3005.dat
1 71 130 -120 540 0 0 1 0 1 0 -1 0 0 3004.dat
1 71 130 -120 580 0 0 1 0 1 0 -1 0 0 98283.dat
1 71 30 -144 520 0 0 1 0 1 0 -1 0 0 3004.dat
1 71 30 -144 550 0 0 1 0 1 0 -1 0 0 3005.dat
1 71 30 -144 600 0 0 1 0 1 0 -1 0 0 3004.dat
1 72 130 -144 540 0 0 1 0 1 0 -1 0 0 3010.dat
1 71 130 -144 600 0 0 1 0 1 0 -1 0 0 3004.dat
1 71 60 -144 510 1 0 0 0 1 0 0 0 1 3004.dat
1 71 100 -144 510 1 0 0 0 1 0 0 0 1 98283.dat
1 71 60 -144 610 1 0 0 0 1 0 0 0 1 3004.dat
1 71 110 -144 610 1 0 0 0 1 0 0 0 1 3005.dat
0 STEP
1 71 60 -168 510 1 0 0 0 1 0 0 0 1 3010.dat
1 71 120 -168 510 1 0 0 0 1 0 0 0 1 3004.dat
1 71 40 -168 610 1 0 0 0 1 0 0 0 1 98283.dat
1 71 100 -168 610 1 0 0 0 1 0 0 0 1 3010.dat
1 71 30 -168 560 0 0 1 0 1 0 -1 0 0 3010.dat
1 71 130 -168 540 0 0 1 0 1 0 -1 0 0 98283.dat
1 71 130 -168 580 0 0 1 0 1 0 -1 0 0 3004.dat
1 71 30 -192 520 0 0 1 0 1 0 -1 0 0 3004.dat
1 71 30 -192 580 0 0 1 0 1 0 -1 0 0 3010.dat
1 71 130 -192 540 0 0 1 0 1 0 -1 0 0 3010.dat
1 71 130 -192 600 0 0 1 0 1 0 -1 0 0 3004.dat
1 72 60 -192 510 1 0 0 0 1 0 0 0 1 98283.dat
1 72 100 -192 510 1 0 0 0 1 0 0 0 1 3004.dat
1 71 80 -192 610 1 0 0 0 1 0 0 0 1 3010.dat
0 STEP
1 71 60 -216 510 1 0 0 0 1 0 0 0 1 3010.dat
1 71 120 -216 510 1 0 0 0 1 0 0 0 1 3004.dat
1 71 40 -216 610 1 0 0 0 1 0 0 0 1 98283.dat
1 71 100 -216 610 1 0 0 0 1 0 0 0 1 3010.dat
1 71 30 -216 560 0 0 1 0 1 0 -1 0 0 3010.dat
1 71 130 -216 540 0 0 1 0 1 0 -1 0 0 3004.dat
1 72 130 -216 580 0 0 1 0 1 0 -1 0 0 3004.dat
1 71 30 -240 520 0 0 1 0 1 0 -1 0 0 3004.dat
1 71 30 -240 580 0 0 1 0 1 0 -1 0 0 3010.dat
1 71 130 -240 540 0 0 1 0 1 0 -1 0 0 3010.dat
1 71 130 -240 600 0 0 1 0 1 0 -1 0 0 3004.dat
1 71 60 -240 510 1 0 0 0 1 0 0 0 1 3004.dat
1 72 100 -240 510 1 0 0 0 1 0 0 0 1 3004.dat
1 71 80 -240 610 1 0 0 0 1 0 0 0 1 3010.dat
0 STEP
1 71 60 -264 510 1 0 0 0 1 0 0 0 1 3010.dat
1 71 120 -264 510 1 0 0 0 1 0 0 0 1 3004.dat
1 71 40 -264 610 1 0 0 0 1 0 0 0 1 98283.dat
1 71 100 -264 610 1 0 0 0 1 0 0 0 1 3010.dat
1 71 30 -264 560 0 0 1 0 1 0 -1 0 0 3010.dat
1 71 130 -264 540 0 0 1 0 1 0 -1 0 0 98283.dat
1 71 130 -264 580 0 0 1 0 1 0 -1 0 0 3004.dat
1 71 30 -288 520 0 0 1 0 1 0 -1 0 0 3004.dat
1 71 30 -288 600 0 0 1 0 1 0 -1 0 0 98283.dat
1 71 130 -288 520 0 0 1 0 1 0 -1 0 0 3004.dat
1 71 130 -288 600 0 0 1 0 1 0 -1 0 0 3004.dat
1 71 60 -288 510 1 0 0 0 1 0 0 0 1 98283.dat
1 71 100 -288 510 1 0 0 0 1 0 0 0 1 3004.dat
1 71 50 -288 610 1 0 0 0 1 0 0 0 1 3005.dat
1 71 110 -288 610 1 0 0 0 1 0 0 0 1 3005.dat
0 STEP
1 71 60 -312 510 1 0 0 0 1 0 0 0 1 3010.dat
1 71 120 -312 510 1 0 0 0 1 0 0 0 1 3004.dat
1 71 40 -312 610 1 0 0 0 1 0 0 0 1 98283.dat
1 72 120 -312 610 1 0 0 0 1 0 0 0 1 98283.dat
1 71 30 -312 530 0 0 1 0 1 0 -1 0 0 3005.dat
1 71 30 -312 590 0 0 1 0 1 0 -1 0 0 3005.dat
1 71 130 -312 530 0 0 1 0 1 0 -1 0 0 3005.dat
1 71 130 -312 590 0 0 1 0 1 0 -1 0 0 3005.dat
1 71 30 -336 520 0 0 1 0 1 0 -1 0 0 3004.dat
1 71 30 -336 600 0 0 1 0 1 0 -1 0 0 3004.dat
1 71 130 -336 520 0 0 1 0 1 0 -1 0 0 3004.dat
1 71 130 -336 600 0 0 1 0 1 0 -1 0 0 3004.dat
1 71 60 -336 510 1 0 0 0 1 0 0 0 1 98283.dat
1 71 100 -336 510 1 0 0 0 1 0 0 0 1 3004.dat
1 71 50 -336 610 1 0 0 0 1 0 0 0 1 3005.dat
1 71 110 -336 610 1 0 0 0 1 0 0 0 1 3005.dat
0 STEP
1 71 60 -360 510 1 0 0 0 1 0 0 0 1 3010.dat
1 71 120 -360 510 1 0 0 0 1 0 0 0 1 98283.dat
1 71 40 -360 610 1 0 0 0 1 0 0 0 1 98283.dat
1 71 100 -360 610 1 0 0 0 1 0 0 0 1 3010.dat
1 71 30 -360 560 0 0 1 0 1 0 -1 0 0 3010.dat
1 71 130 -360 540 0 0 1 0 1 0 -1 0 0 3004.dat
1 72 130 -360 580 0 0 1 0 1 0 -1 0 0 98283.dat
1 71 30 -384 520 0 0 1 0 1 0 -1 0 0 3004.dat
1 71 30 -384 580 0 0 1 0 1 0 -1 0 0 3010.dat
1 71 130 -384 540 0 0 1 0 1 0 -1 0 0 3010.dat
1 71 130 -384 600 0 0 1 0 1 0 -1 0 0 3004.dat
1 71 60 -384 510 1 0 0 0 1 0 0 0 1 3004.dat
1 71 100 -384 510 1 0 0 0 1 0 0 0 1 3004.dat
1 72 80 -384 610 1 0 0 0 1 0 0 0 1 3010.dat
0 STEP
1 71 60 -408 510 1 0 0 0 1 0 0 0 1 3010.dat
1 71 120 -408 510 1 0 0 0 1 0 0 0 1 98283.dat
1 71 40 -408 610 1 0 0 0 1 0 0 0 1 3004.dat
1 71 100 -408 610 1 0 0 0 1 0 0 0 1 3010.dat
1 71 30 -408 560 0 0 1 0 1 0 -1 0 0 3010.dat
1 71 130 -408 540 0 0 1 0 1 0 -1 0 0 3004.dat
1 71 130 -408 580 0 0 1 0 1 0 -1 0 0 3004.dat
1 71 50 -432 510 1 0 0 0 1 0 0 0 1 3665a.dat
1 71 50 -432 610 -1 0 0 0 1 0 0 0 -1 3665a.dat
1 71 30 -432 530 0 0 1 0 1 0 -1 0 0 3665a.dat
1 71 130 -432 530 0 0 -1 0 1 0 1 0 0 3665a.dat
1 71 90 -432 510 1 0 0 0 1 0 0 0 1 3665a.dat
1 71 90 -432 610 -1 0 0 0 1 0 0 0 -1 3665a.dat
1 71 30 -432 570 0 0 1 0 1 0 -1 0 0 3665a.dat
1 71 130 -432 570 0 0 -1 0 1 0 1 0 0 3665a.dat
1 72 30 -432 510 0 0 1 0 1 0 -1 0 0 3005.dat
1 71 30 -432 550 0 0 1 0 1 0 -1 0 0 3005.dat
1 71 30 -432 600 0 0 1 0 1 0 -1 0 0 3004.dat
1 71 130 -432 510 0 0 1 0 1 0 -1 0 0 3005.dat
1 71 130 -432 550 0 0 1 0 1 0 -1 0 0 3005.dat
1 71 130 -432 600 0 0 1 0 1 0 -1 0 0 3004.dat
1 71 70 -432 510 1 0 0 0 1 0 0 0 1 3005.dat
1 71 110 -432 510 1 0 0 0 1 0 0 0 1 3005.dat
1 71 70 -432 610 1 0 0 0 1 0 0 0 1 3005.dat
1 71 110 -432 610 1 0 0 0 1 0 0 0 1 3005.dat
0 STEP
1 72 80 -440 560 1 0 0 0 1 0 0 0 1 41539.dat
0 STEP
1 4 130 -464 510 1 0 0 0 1 0 0 0 1 3045.dat
1 4 30 -464 510 0 0 1 0 1 0 -1 0 0 3045.dat
1 4 30 -464 610 -1 0 0 0 1 0 0 0 -1 3045.dat
1 4 130 -464 610 0 0 -1 0 1 0 1 0 0 3045.dat
1 4 80 -464 510 1 0 0 0 1 0 0 0 1 3037.dat
1 4 80 -464 610 -1 0 0 0 1 0 0 0 -1 3037.dat
1 4 30 -464 560 0 0 1 0 1 0 -1 0 0 3037.dat
1 4 130 -464 560 0 0 -1 0 1 0 1 0 0 3037.dat
0 STEP
1 4 110 -488 530 1 0 0 0 1 0 0 0 1 3045.dat
1 4 50 -488 530 0 0 1 0 1 0 -1 0 0 3045.dat
1 4 50 -488 590 -1 0 0 0 1 0 0 0 -1 3045.dat
1 4 110 -488 590 0 0 -1 0 1 0 1 0 0 3045.dat
1 4 80 -488 530 1 0 0 0 1 0 0 0 1 3039.dat
1 4 80 -488 590 -1 0 0 0 1 0 0 0 -1 3039.dat
1 4 50 -488 560 0 0 1 0 1 0 -1 0 0 3039.dat
1 4 110 -488 560 0 0 -1 0 1 0 1 0 0 3039.dat
0 STEP
1 4 90 -512 550 1 0 0 0 1 0 0 0 1 3045.dat
1 4 70 -512 550 0 0 1 0 1 0 -1 0 0 3045.dat
1 4 70 -512 570 -1 0 0 0 1 0 0 0 -1 3045.dat
1 4 90 -512 570 0 0 -1 0 1 0 1 0 0 3045.dat
0 STEP
1 4 80 -560 560 1 0 0 0 1 0 0 0 1 3688.dat
1 70 80 -584 560 1 0 0 0 1 0 0 0 1 3062b.dat
1 4 80 -608 560 1 0 0 0 1 0 0 0 1 4495b.dat
1 297 80 -632 560 1 0 0 0 1 0 0 0 1 4589.dat
0 STEP
0 // South curtain wall
1 71 180 -24 30 1 0 0 0 1 0 0 0 1 3010.dat
1 71 260 -24 30 1 0 0 0 1 0 0 0 1 3010.dat
1 71 360 -24 30 1 0 0 0 1 0 0 0 1 3009.dat
1 71 160 -48 30 1 0 0 0 1 0 0 0 1 3004.dat
1 71 220 -48 30 1 0 0 0 1 0 0 0 1 3010.dat
1 71 300 -48 30 1 0 0 0 1 0 0 0 1 3010.dat
1 71 380 -48 30 1 0 0 0 1 0 0 0 1 3010.dat
1 71 180 -72 30 1 0 0 0 1 0 0 0 1 3010.dat
1 71 260 -72 30 1 0 0 0 1 0 0 0 1 3010.dat
1 71 360 -72 30 1 0 0 0 1 0 0 0 1 3009.dat
0 STEP
1 71 160 -96 30 1 0 0 0 1 0 0 0 1 98283.dat
1 71 220 -96 30 1 0 0 0 1 0 0 0 1 3010.dat
1 71 300 -96 30 1 0 0 0 1 0 0 0 1 3010.dat
1 71 380 -96 30 1 0 0 0 1 0 0 0 1 3010.dat
1 71 170 -120 30 1 0 0 0 1 0 0 0 1 3622.dat
1 71 250 -120 30 1 0 0 0 1 0 0 0 1 3622.dat
1 71 330 -120 30 1 0 0 0 1 0 0 0 1 3622.dat
1 71 400 -120 30 1 0 0 0 1 0 0 0 1 98283.dat
1 71 160 -144 30 1 0 0 0 1 0 0 0 1 3004.dat
1 71 190 -144 30 1 0 0 0 1 0 0 0 1 3005.dat
1 71 240 -144 30 1 0 0 0 1 0 0 0 1 98283.dat
1 71 270 -144 30 1 0 0 0 1 0 0 0 1 3005.dat
1 71 320 -144 30 1 0 0 0 1 0 0 0 1 98283.dat
1 71 350 -144 30 1 0 0 0 1 0 0 0 1 3005.dat
1 71 400 -144 30 1 0 0 0 1 0 0 0 1 98283.dat
0 STEP
1 72 180 -168 30 1 0 0 0 1 0 0 0 1 3010.dat
1 71 260 -168 30 1 0 0 0 1 0 0 0 1 3010.dat
1 71 360 -168 30 1 0 0 0 1 0 0 0 1 3009.dat
1 71 160 -192 30 1 0 0 0 1 0 0 0 1 3004.dat
1 71 220 -192 30 1 0 0 0 1 0 0 0 1 3010.dat
1 71 300 -192 30 1 0 0 0 1 0 0 0 1 3010.dat
1 71 380 -192 30 1 0 0 0 1 0 0 0 1 3010.dat
0 STEP
1 72 260 -200 40 1 0 0 0 1 0 0 0 1 2445.dat
1 72 400 -200 40 1 0 0 0 1 0 0 0 1 3022.dat
0 STEP
1 71 160 -224 30 1 0 0 0 1 0 0 0 1 3004.dat
1 71 160 -232 30 1 0 0 0 1 0 0 0 1 3069b.dat
1 71 220 -224 30 1 0 0 0 1 0 0 0 1 3004.dat
1 71 220 -232 30 1 0 0 0 1 0 0 0 1 3069b.dat
1 71 280 -224 30 1 0 0 0 1 0 0 0 1 3004.dat
1 71 280 -232 30 1 0 0 0 1 0 0 0 1 3069b.dat
1 71 340 -224 30 1 0 0 0 1 0 0 0 1 3004.dat
1 71 340 -232 30 1 0 0 0 1 0 0 0 1 3069b.dat
1 71 400 -224 30 1 0 0 0 1 0 0 0 1 3004.dat
1 71 400 -232 30 1 0 0 0 1 0 0 0 1 3069b.dat
0 STEP
0 // North curtain wall
1 71 180 -24 610 1 0 0 0 1 0 0 0 1 3010.dat
1 71 260 -24 610 1 0 0 0 1 0 0 0 1 3010.dat
1 71 360 -24 610 1 0 0 0 1 0 0 0 1 3009.dat
1 72 160 -48 610 1 0 0 0 1 0 0 0 1 3004.dat
1 71 220 -48 610 1 0 0 0 1 0 0 0 1 3010.dat
1 71 300 -48 610 1 0 0 0 1 0 0 0 1 3010.dat
1 71 380 -48 610 1 0 0 0 1 0 0 0 1 3010.dat
1 72 180 -72 610 1 0 0 0 1 0 0 0 1 3010.dat
1 71 260 -72 610 1 0 0 0 1 0 0 0 1 3010.dat
1 71 360 -72 610 1 0 0 0 1 0 0 0 1 3009.dat
0 STEP
1 71 160 -96 610 1 0 0 0 1 0 0 0 1 98283.dat
1 71 220 -96 610 1 0 0 0 1 0 0 0 1 3010.dat
1 71 300 -96 610 1 0 0 0 1 0 0 0 1 3010.dat
1 71 380 -96 610 1 0 0 0 1 0 0 0 1 3010.dat
1 71 170 -120 610 1 0 0 0 1 0 0 0 1 3622.dat
1 71 250 -120 610 1 0 0 0 1 0 0 0 1 3622.dat
1 72 330 -120 610 1 0 0 0 1 0 0 0 1 3622.dat
1 72 400 -120 610 1 0 0 0 1 0 0 0 1 3004.dat
1 71 160 -144 610 1 0 0 0 1 0 0 0 1 3004.dat
1 71 190 -144 610 1 0 0 0 1 0 0 0 1 3005.dat
1 71 240 -144 610 1 0 0 0 1 0 0 0 1 3004.dat
1 71 270 -144 610 1 0 0 0 1 0 0 0 1 3005.dat
1 71 320 -144 610 1 0 0 0 1 0 0 0 1 3004.dat
1 71 350 -144 610 1 0 0 0 1 0 0 0 1 3005.dat
1 71 400 -144 610 1 0 0 0 1 0 0 0 1 3004.dat
0 STEP
1 71 180 -168 610 1 0 0 0 1 0 0 0 1 3010.dat
1 71 260 -168 610 1 0 0 0 1 0 0 0 1 3010.dat
1 71 360 -168 610 1 0 0 0 1 0 0 0 1 3009.dat
1 71 160 -192 610 1 0 0 0 1 0 0 0 1 3004.dat
1 71 220 -192 610 1 0 0 0 1 0 0 0 1 3010.dat
1 71 300 -192 610 1 0 0 0 1 0 0 0 1 3010.dat
1 71 380 -192 610 1 0 0 0 1 0 0 0 1 3010.dat
0 STEP
1 72 260 -200 600 1 0 0 0 1 0 0 0 1 2445.dat
1 72 400 -200 600 1 0 0 0 1 0 0 0 1 3022.dat
0 STEP
1 71 160 -224 610 1 0 0 0 1 0 0 0 1 3004.dat
1 71 160 -232 610 1 0 0 0 1 0 0 0 1 3069b.dat
1 71 220 -224 610 1 0 0 0 1 0 0 0 1 3004.dat
1 71 220 -232 610 1 0 0 0 1 0 0 0 1 3069b.dat
1 71 280 -224 610 1 0 0 0 1 0 0 0 1 3004.dat
1 71 280 -232 610 1 0 0 0 1 0 0 0 1 3069b.dat
1 71 340 -224 610 1 0 0 0 1 0 0 0 1 3004.dat
1 71 340 -232 610 1 0 0 0 1 0 0 0 1 3069b.dat
1 71 400 -224 610 1 0 0 0 1 0 0 0 1 3004.dat
1 71 400 -232 610 1 0 0 0 1 0 0 0 1 3069b.dat
0 STEP
0 // West curtain wall
1 71 30 -24 180 0 0 1 0 1 0 -1 0 0 3010.dat
1 72 30 -24 260 0 0 1 0 1 0 -1 0 0 3010.dat
1 72 30 -24 340 0 0 1 0 1 0 -1 0 0 3010.dat
1 71 30 -24 440 0 0 1 0 1 0 -1 0 0 3009.dat
1 71 30 -48 160 0 0 1 0 1 0 -1 0 0 3004.dat
1 71 30 -48 220 0 0 1 0 1 0 -1 0 0 3010.dat
1 71 30 -48 300 0 0 1 0 1 0 -1 0 0 3010.dat
1 71 30 -48 380 0 0 1 0 1 0 -1 0 0 3010.dat
1 71 30 -48 460 0 0 1 0 1 0 -1 0 0 3010.dat
1 71 30 -72 180 0 0 1 0 1 0 -1 0 0 3010.dat
1 71 30 -72 260 0 0 1 0 1 0 -1 0 0 3010.dat
1 72 30 -72 340 0 0 1 0 1 0 -1 0 0 3010.dat
1 71 30 -72 440 0 0 1 0 1 0 -1 0 0 3009.dat
0 STEP
1 71 30 -96 160 0 0 1 0 1 0 -1 0 0 3004.dat
1 71 30 -96 220 0 0 1 0 1 0 -1 0 0 3010.dat
1 71 30 -96 300 0 0 1 0 1 0 -1 0 0 3010.dat
1 71 30 -96 380 0 0 1 0 1 0 -1 0 0 3010.dat
1 71 30 -96 460 0 0 1 0 1 0 -1 0 0 3010.dat
1 71 30 -120 180 0 0 1 0 1 0 -1 0 0 3010.dat
1 71 30 -120 230 0 0 1 0 1 0 -1 0 0 3005.dat
1 71 30 -120 290 0 0 1 0 1 0 -1 0 0 3622.dat
1 71 30 -120 370 0 0 1 0 1 0 -1 0 0 3622.dat
1 71 30 -120 460 0 0 1 0 1 0 -1 0 0 3010.dat
1 71 30 -144 160 0 0 1 0 1 0 -1 0 0 98283.dat
1 71 30 -144 210 0 0 1 0 1 0 -1 0 0 3622.dat
1 71 30 -144 280 0 0 1 0 1 0 -1 0 0 98283.dat
1 71 30 -144 310 0 0 1 0 1 0 -1 0 0 3005.dat
1 72 30 -144 360 0 0 1 0 1 0 -1 0 0 3004.dat
1 71 30 -144 390 0 0 1 0 1 0 -1 0 0 3005.dat
1 71 30 -144 440 0 0 1 0 1 0 -1 0 0 3004.dat
1 72 30 -144 480 0 0 1 0 1 0 -1 0 0 3004.dat
0 STEP
1 71 30 -168 180 0 0 1 0 1 0 -1 0 0 3010.dat
1 71 30 -168 260 0 0 1 0 1 0 -1 0 0 3010.dat
1 71 30 -168 340 0 0 1 0 1 0 -1 0 0 3010.dat
1 72 30 -168 440 0 0 1 0 1 0 -1 0 0 3009.dat
1 71 30 -192 160 0 0 1 0 1 0 -1 0 0 3004.dat
1 71 30 -192 220 0 0 1 0 1 0 -1 0 0 3010.dat
1 71 30 -192 300 0 0 1 0 1 0 -1 0 0 3010.dat
1 71 30 -192 380 0 0 1 0 1 0 -1 0 0 3010.dat
1 71 30 -192 460 0 0 1 0 1 0 -1 0 0 3010.dat
0 STEP
1 72 40 -200 300 0 0 1 0 1 0 -1 0 0 4282.dat
1 72 40 -200 480 1 0 0 0 1 0 0 0 1 3022.dat
0 STEP
1 71 30 -224 160 0 0 1 0 1 0 -1 0 0 3004.dat
1 71 30 -232 160 0 0 1 0 1 0 -1 0 0 3069b.dat
1 71 30 -224 220 0 0 1 0 1 0 -1 0 0 3004.dat
1 71 30 -232 220 0 0 1 0 1 0 -1 0 0 3069b.dat
1 71 30 -224 280 0 0 1 0 1 0 -1 0 0 3004.dat
1 71 30 -232 280 0 0 1 0 1 0 -1 0 0 3069b.dat
1 71 30 -224 340 0 0 1 0 1 0 -1 0 0 3004.dat
1 71 30 -232 340 0 0 1 0 1 0 -1 0 0 3069b.dat
1 71 30 -224 400 0 0 1 0 1 0 -1 0 0 3004.dat
1 71 30 -232 400 0 0 1 0 1 0 -1 0 0 3069b.dat
1 71 30 -224 460 0 0 1 0 1 0 -1 0 0 3004.dat
1 71 30 -232 460 0 0 1 0 1 0 -1 0 0 3069b.dat
0 STEP
0 // East curtain walls
1 71 530 -24 180 0 0 1 0 1 0 -1 0 0 3010.dat
1 71 530 -48 160 0 0 1 0 1 0 -1 0 0 98283.dat
1 71 530 -48 200 0 0 1 0 1 0 -1 0 0 3004.dat
1 71 530 -72 180 0 0 1 0 1 0 -1 0 0 3010.dat
0 STEP
1 71 530 -96 160 0 0 1 0 1 0 -1 0 0 3004.dat
1 71 530 -96 200 0 0 1 0 1 0 -1 0 0 3004.dat
1 71 530 -120 150 0 0 1 0 1 0 -1 0 0 3005.dat
1 71 530 -120 200 0 0 1 0 1 0 -1 0 0 3004.dat
1 71 530 -144 150 0 0 1 0 1 0 -1 0 0 3005.dat
1 71 530 -144 200 0 0 1 0 1 0 -1 0 0 3004.dat
0 STEP
1 71 530 -168 180 0 0 1 0 1 0 -1 0 0 3010.dat
1 71 530 -192 160 0 0 1 0 1 0 -1 0 0 3004.dat
1 71 530 -192 200 0 0 1 0 1 0 -1 0 0 98283.dat
0 STEP
1 72 520 -200 180 0 0 1 0 1 0 -1 0 0 3020.dat
0 STEP
1 71 530 -224 160 0 0 1 0 1 0 -1 0 0 3004.dat
1 71 530 -232 160 0 0 1 0 1 0 -1 0 0 3069b.dat
1 71 530 -224 210 0 0 1 0 1 0 -1 0 0 3005.dat
1 71 530 -232 210 0 0 1 0 1 0 -1 0 0 3070b.dat
0 STEP
1 71 530 -24 460 0 0 1 0 1 0 -1 0 0 3010.dat
1 71 530 -48 440 0 0 1 0 1 0 -1 0 0 3004.dat
1 71 530 -48 480 0 0 1 0 1 0 -1 0 0 3004.dat
1 71 530 -72 460 0 0 1 0 1 0 -1 0 0 3010.dat
0 STEP
1 71 530 -96 440 0 0 1 0 1 0 -1 0 0 3004.dat
1 71 530 -96 480 0 0 1 0 1 0 -1 0 0 3004.dat
1 71 530 -120 430 0 0 1 0 1 0 -1 0 0 3005.dat
1 71 530 -120 480 0 0 1 0 1 0 -1 0 0 3004.dat
1 72 530 -144 430 0 0 1 0 1 0 -1 0 0 3005.dat
1 71 530 -144 480 0 0 1 0 1 0 -1 0 0 3004.dat
0 STEP
1 71 530 -168 460 0 0 1 0 1 0 -1 0 0 3010.dat
1 71 530 -192 440 0 0 1 0 1 0 -1 0 0 98283.dat
1 71 530 -192 480 0 0 1 0 1 0 -1 0 0 98283.dat
0 STEP
1 72 520 -200 460 0 0 1 0 1 0 -1 0 0 3020.dat
0 STEP
1 71 530 -224 440 0 0 1 0 1 0 -1 0 0 3004.dat
1 71 530 -232 440 0 0 1 0 1 0 -1 0 0 3069b.dat
1 71 530 -224 490 0 0 1 0 1 0 -1 0 0 3005.dat
1 71 530 -232 490 0 0 1 0 1 0 -1 0 0 3070b.dat
0 STEP
0 // Great Hall - walls
1 15 120 -112 210 1 0 0 0 1 0 0 0 1 30044.dat
1 0 116.75 -80.75 202 1 0 0 0 1 0 0 0 1 30046.dat
1 15 200 -112 210 1 0 0 0 1 0 0 0 1 30044.dat
1 0 196.75 -80.75 202 1 0 0 0 1 0 0 0 1 30046.dat
1 72 100 -24 210 1 0 0 0 1 0 0 0 1 3010.dat
1 72 200 -24 210 1 0 0 0 1 0 0 0 1 3009.dat
1 72 80 -24 430 1 0 0 0 1 0 0 0 1 3004.dat
1 71 140 -24 430 1 0 0 0 1 0 0 0 1 3010.dat
1 72 220 -24 430 1 0 0 0 1 0 0 0 1 3010.dat
1 71 70 -24 260 0 0 1 0 1 0 -1 0 0 3010.dat
1 71 70 -24 360 0 0 1 0 1 0 -1 0 0 3009.dat
1 72 250 -24 240 0 0 1 0 1 0 -1 0 0 3004.dat
1 72 250 -24 270 0 0 1 0 1 0 -1 0 0 3005.dat
1 72 250 -24 380 0 0 1 0 1 0 -1 0 0 3004.dat
1 72 250 -24 410 0 0 1 0 1 0 -1 0 0 3005.dat
1 71 70 -48 220 0 0 1 0 1 0 -1 0 0 3004.dat
1 71 70 -48 280 0 0 1 0 1 0 -1 0 0 3010.dat
1 71 70 -48 380 0 0 1 0 1 0 -1 0 0 3009.dat
1 71 250 -48 240 0 0 1 0 1 0 -1 0 0 3010.dat
1 71 250 -48 400 0 0 1 0 1 0 -1 0 0 3010.dat
1 71 100 -48 210 1 0 0 0 1 0 0 0 1 98283.dat
1 71 180 -48 210 1 0 0 0 1 0 0 0 1 3009.dat
1 71 120 -48 430 1 0 0 0 1 0 0 0 1 3010.dat
1 71 200 -48 430 1 0 0 0 1 0 0 0 1 3010.dat
0 STEP
1 71 250 -144 320 0 0 1 0 1 0 -1 0 0 3455.dat
1 15 250 -112 240 0 0 -1 0 1 0 1 0 0 30044.dat
1 0 242 -80.75 236.75 0 0 -1 0 1 0 1 0 0 30046.dat
1 15 250 -120 240 0 0 1 0 1 0 -1 0 0 3023.dat
1 15 250 -112 400 0 0 -1 0 1 0 1 0 0 30044.dat
1 0 242 -80.75 396.75 0 0 -1 0 1 0 1 0 0 30046.dat
1 15 250 -120 400 0 0 1 0 1 0 -1 0 0 3023.dat
1 15 70 -112 240 0 0 1 0 1 0 -1 0 0 30044.dat
1 0 62 -80.75 236.75 0 0 1 0 1 0 -1 0 0 30046.dat
1 15 70 -120 240 0 0 1 0 1 0 -1 0 0 3023.dat
1 15 70 -112 320 0 0 1 0 1 0 -1 0 0 30044.dat
1 0 62 -80.75 316.75 0 0 1 0 1 0 -1 0 0 30046.dat
1 15 70 -120 320 0 0 1 0 1 0 -1 0 0 3023.dat
1 15 70 -112 400 0 0 1 0 1 0 -1 0 0 30044.dat
1 0 62 -80.75 396.75 0 0 1 0 1 0 -1 0 0 30046.dat
1 15 70 -120 400 0 0 1 0 1 0 -1 0 0 3023.dat
1 15 120 -120 210 1 0 0 0 1 0 0 0 1 3023.dat
1 15 120 -112 430 -1 0 0 0 1 0 0 0 -1 30044.dat
1 0 116.75 -80.75 422 -1 0 0 0 1 0 0 0 -1 30046.dat
1 15 120 -120 430 1 0 0 0 1 0 0 0 1 3023.dat
1 15 200 -120 210 1 0 0 0 1 0 0 0 1 3023.dat
1 15 200 -112 430 -1 0 0 0 1 0 0 0 -1 30044.dat
1 0 196.75 -80.75 422 -1 0 0 0 1 0 0 0 -1 30046.dat
1 15 200 -120 430 1 0 0 0 1 0 0 0 1 3023.dat
0 STEP
1 71 80 -72 210 1 0 0 0 1 0 0 0 1 3004.dat
1 72 160 -72 210 1 0 0 0 1 0 0 0 1 3004.dat
1 71 240 -72 210 1 0 0 0 1 0 0 0 1 98283.dat
1 71 80 -72 430 1 0 0 0 1 0 0 0 1 98283.dat
1 71 160 -72 430 1 0 0 0 1 0 0 0 1 3004.dat
1 71 240 -72 430 1 0 0 0 1 0 0 0 1 98283.dat
1 71 70 -72 280 0 0 1 0 1 0 -1 0 0 3004.dat
1 72 70 -72 360 0 0 1 0 1 0 -1 0 0 98283.dat
1 71 250 -72 270 0 0 1 0 1 0 -1 0 0 3005.dat
1 71 250 -72 370 0 0 1 0 1 0 -1 0 0 3005.dat
1 71 70 -96 210 0 0 1 0 1 0 -1 0 0 3005.dat
1 71 70 -96 280 0 0 1 0 1 0 -1 0 0 3004.dat
1 72 70 -96 360 0 0 1 0 1 0 -1 0 0 98283.dat
1 71 70 -96 430 0 0 1 0 1 0 -1 0 0 3005.dat
1 71 250 -96 210 0 0 1 0 1 0 -1 0 0 3005.dat
1 71 250 -96 270 0 0 1 0 1 0 -1 0 0 3005.dat
1 71 250 -96 370 0 0 1 0 1 0 -1 0 0 3005.dat
1 71 250 -96 430 0 0 1 0 1 0 -1 0 0 3005.dat
1 71 90 -96 210 1 0 0 0 1 0 0 0 1 3005.dat
1 71 160 -96 210 1 0 0 0 1 0 0 0 1 3004.dat
1 71 230 -96 210 1 0 0 0 1 0 0 0 1 3005.dat
1 71 90 -96 430 1 0 0 0 1 0 0 0 1 3005.dat
1 71 160 -96 430 1 0 0 0 1 0 0 0 1 3004.dat
1 71 230 -96 430 1 0 0 0 1 0 0 0 1 3005.dat
0 STEP
1 72 80 -120 210 1 0 0 0 1 0 0 0 1 3004.dat
1 71 160 -120 210 1 0 0 0 1 0 0 0 1 98283.dat
1 71 240 -120 210 1 0 0 0 1 0 0 0 1 3004.dat
1 71 80 -120 430 1 0 0 0 1 0 0 0 1 3004.dat
1 71 160 -120 430 1 0 0 0 1 0 0 0 1 3004.dat
1 71 240 -120 430 1 0 0 0 1 0 0 0 1 3004.dat
1 71 70 -120 280 0 0 1 0 1 0 -1 0 0 3004.dat
1 71 70 -120 360 0 0 1 0 1 0 -1 0 0 3004.dat
1 71 250 -120 270 0 0 1 0 1 0 -1 0 0 3005.dat
1 71 250 -120 370 0 0 1 0 1 0 -1 0 0 3005.dat
1 71 70 -144 220 0 0 1 0 1 0 -1 0 0 98283.dat
1 71 70 -144 280 0 0 1 0 1 0 -1 0 0 3010.dat
1 71 70 -144 380 0 0 1 0 1 0 -1 0 0 3009.dat
1 71 250 -144 230 0 0 1 0 1 0 -1 0 0 3622.dat
1 71 250 -144 410 0 0 1 0 1 0 -1 0 0 3622.dat
1 71 100 -144 210 1 0 0 0 1 0 0 0 1 3004.dat
1 71 180 -144 210 1 0 0 0 1 0 0 0 1 3009.dat
1 71 120 -144 430 1 0 0 0 1 0 0 0 1 3010.dat
1 71 200 -144 430 1 0 0 0 1 0 0 0 1 3010.dat
0 STEP
1 72 100 -168 210 1 0 0 0 1 0 0 0 1 3010.dat
1 71 200 -168 210 1 0 0 0 1 0 0 0 1 3009.dat
1 71 80 -168 430 1 0 0 0 1 0 0 0 1 3004.dat
1 72 140 -168 430 1 0 0 0 1 0 0 0 1 3010.dat
1 71 220 -168 430 1 0 0 0 1 0 0 0 1 3010.dat
1 71 70 -168 260 0 0 1 0 1 0 -1 0 0 3010.dat
1 71 70 -168 360 0 0 1 0 1 0 -1 0 0 3009.dat
1 71 250 -168 240 0 0 1 0 1 0 -1 0 0 3004.dat
1 71 250 -168 300 0 0 1 0 1 0 -1 0 0 3010.dat
1 71 250 -168 380 0 0 1 0 1 0 -1 0 0 3010.dat
1 71 70 -192 220 0 0 1 0 1 0 -1 0 0 3004.dat
1 71 70 -192 280 0 0 1 0 1 0 -1 0 0 3010.dat
1 71 70 -192 380 0 0 1 0 1 0 -1 0 0 3009.dat
1 71 250 -192 240 0 0 1 0 1 0 -1 0 0 3010.dat
1 71 250 -192 320 0 0 1 0 1 0 -1 0 0 3010.dat
1 72 250 -192 400 0 0 1 0 1 0 -1 0 0 3010.dat
1 71 100 -192 210 1 0 0 0 1 0 0 0 1 3004.dat
1 71 180 -192 210 1 0 0 0 1 0 0 0 1 3009.dat
1 71 120 -192 430 1 0 0 0 1 0 0 0 1 3010.dat
1 71 200 -192 430 1 0 0 0 1 0 0 0 1 3010.dat
0 STEP
1 4 120 -8 340 0 0 1 0 1 0 -1 0 0 3035.dat
0 STEP
0 // Great Hall - roof
1 72 140 -200 210 1 0 0 0 1 0 0 0 1 3460.dat
1 72 240 -200 210 1 0 0 0 1 0 0 0 1 3023.dat
1 72 70 -200 300 0 0 1 0 1 0 -1 0 0 3460.dat
1 72 250 -200 300 0 0 1 0 1 0 -1 0 0 3460.dat
1 72 70 -200 410 0 0 1 0 1 0 -1 0 0 3623.dat
1 72 250 -200 410 0 0 1 0 1 0 -1 0 0 3623.dat
1 72 160 -200 430 1 0 0 0 1 0 0 0 1 3460.dat
0 STEP
1 4 90 -224 240 0 0 1 0 1 0 -1 0 0 3037.dat
1 4 90 -224 320 0 0 1 0 1 0 -1 0 0 3037.dat
1 4 90 -224 400 0 0 1 0 1 0 -1 0 0 3037.dat
1 4 230 -224 240 0 0 -1 0 1 0 1 0 0 3037.dat
1 4 230 -224 320 0 0 -1 0 1 0 1 0 0 3037.dat
1 4 230 -224 400 0 0 -1 0 1 0 1 0 0 3037.dat
1 71 140 -224 210 1 0 0 0 1 0 0 0 1 3010.dat
1 71 200 -224 210 1 0 0 0 1 0 0 0 1 3004.dat
1 71 140 -224 430 1 0 0 0 1 0 0 0 1 3010.dat
1 71 200 -224 430 1 0 0 0 1 0 0 0 1 3004.dat
0 STEP
1 4 110 -248 240 0 0 1 0 1 0 -1 0 0 3037.dat
1 4 110 -248 320 0 0 1 0 1 0 -1 0 0 3037.dat
1 4 110 -248 400 0 0 1 0 1 0 -1 0 0 3037.dat
1 4 210 -248 240 0 0 -1 0 1 0 1 0 0 3037.dat
1 4 210 -248 320 0 0 -1 0 1 0 1 0 0 3037.dat
1 4 210 -248 400 0 0 -1 0 1 0 1 0 0 3037.dat
1 71 140 -248 210 1 0 0 0 1 0 0 0 1 3004.dat
1 71 180 -248 210 1 0 0 0 1 0 0 0 1 3004.dat
1 71 140 -248 430 1 0 0 0 1 0 0 0 1 3004.dat
1 71 180 -248 430 1 0 0 0 1 0 0 0 1 3004.dat
0 STEP
1 4 130 -272 240 0 0 1 0 1 0 -1 0 0 3037.dat
1 4 130 -272 320 0 0 1 0 1 0 -1 0 0 3037.dat
1 4 130 -272 400 0 0 1 0 1 0 -1 0 0 3037.dat
1 4 190 -272 240 0 0 -1 0 1 0 1 0 0 3037.dat
1 4 190 -272 320 0 0 -1 0 1 0 1 0 0 3037.dat
1 4 190 -272 400 0 0 -1 0 1 0 1 0 0 3037.dat
1 71 160 -272 210 1 0 0 0 1 0 0 0 1 3004.dat
1 71 160 -272 430 1 0 0 0 1 0 0 0 1 3004.dat
0 STEP
1 4 150 -296 240 0 0 1 0 1 0 -1 0 0 3037.dat
1 4 150 -296 320 0 0 1 0 1 0 -1 0 0 3037.dat
1 4 150 -296 400 0 0 1 0 1 0 -1 0 0 3037.dat
1 4 170 -296 240 0 0 -1 0 1 0 1 0 0 3037.dat
1 4 170 -296 320 0 0 -1 0 1 0 1 0 0 3037.dat
1 4 170 -296 400 0 0 -1 0 1 0 1 0 0 3037.dat
0 STEP
1 320 160 -320 220 0 0 1 0 1 0 -1 0 0 3043.dat
1 320 160 -320 260 0 0 1 0 1 0 -1 0 0 3043.dat
1 320 160 -320 300 0 0 1 0 1 0 -1 0 0 3043.dat
1 320 160 -320 340 0 0 1 0 1 0 -1 0 0 3043.dat
1 320 160 -320 380 0 0 1 0 1 0 -1 0 0 3043.dat
1 320 160 -320 420 0 0 1 0 1 0 -1 0 0 3043.dat
0 STEP
0 // Stable lean-to and courtyard details
1 72 220 -24 570 1 0 0 0 1 0 0 0 1 3010.dat
1 72 320 -24 570 1 0 0 0 1 0 0 0 1 3009.dat
1 70 200 -48 570 1 0 0 0 1 0 0 0 1 3004.dat
1 70 260 -48 570 1 0 0 0 1 0 0 0 1 3010.dat
1 70 340 -48 570 1 0 0 0 1 0 0 0 1 3010.dat
1 70 220 -72 570 1 0 0 0 1 0 0 0 1 3010.dat
1 70 320 -72 570 1 0 0 0 1 0 0 0 1 3009.dat
1 70 200 -96 570 1 0 0 0 1 0 0 0 1 3004.dat
1 70 260 -96 570 1 0 0 0 1 0 0 0 1 3010.dat
1 70 340 -96 570 1 0 0 0 1 0 0 0 1 3010.dat
1 70 220 -120 570 1 0 0 0 1 0 0 0 1 3010.dat
1 70 320 -120 570 1 0 0 0 1 0 0 0 1 3009.dat
1 70 190 -24 510 1 0 0 0 1 0 0 0 1 3062b.dat
1 70 190 -48 510 1 0 0 0 1 0 0 0 1 3062b.dat
1 70 190 -72 510 1 0 0 0 1 0 0 0 1 3062b.dat
1 70 190 -96 510 1 0 0 0 1 0 0 0 1 3062b.dat
1 70 190 -120 510 1 0 0 0 1 0 0 0 1 3062b.dat
1 70 270 -24 510 1 0 0 0 1 0 0 0 1 3062b.dat
1 70 270 -48 510 1 0 0 0 1 0 0 0 1 3062b.dat
1 70 270 -72 510 1 0 0 0 1 0 0 0 1 3062b.dat
1 70 270 -96 510 1 0 0 0 1 0 0 0 1 3062b.dat
1 70 270 -120 510 1 0 0 0 1 0 0 0 1 3062b.dat
1 70 370 -24 510 1 0 0 0 1 0 0 0 1 3062b.dat
1 70 370 -48 510 1 0 0 0 1 0 0 0 1 3062b.dat
1 70 370 -72 510 1 0 0 0 1 0 0 0 1 3062b.dat
1 70 370 -96 510 1 0 0 0 1 0 0 0 1 3062b.dat
1 70 370 -120 510 1 0 0 0 1 0 0 0 1 3062b.dat
0 STEP
1 70 280 -128 540 1 0 0 0 1 0 0 0 1 3030.dat
0 STEP
1 19 220 -24 540 1 0 0 0 1 0 0 0 1 3003.dat
1 14 220 -32 540 1 0 0 0 1 0 0 0 1 3022.dat
1 70 320 -40 540 1 0 0 0 1 0 0 0 1 2489.dat
0 STEP
1 70 580 -16 320 1 0 0 0 1 0 0 0 1 3031.dat
1 70 550 -24 320 0 0 1 0 1 0 -1 0 0 2431.dat
1 308 570 -24 320 0 0 1 0 1 0 -1 0 0 2431.dat
1 70 590 -24 320 0 0 1 0 1 0 -1 0 0 2431.dat
1 308 610 -24 320 0 0 1 0 1 0 -1 0 0 2431.dat
0 STEP
