0 Millbrook - Village of the Common Folk
0 Name: millbrook.ldr
0 Author: Nobles & Common Folk at Quarrel generator
0 !LICENSE Redistributable under CCAL version 2.0 : see CAreadme.txt

0 // Baseplates and the road
1 2 320 0 320 1 0 0 0 1 0 0 0 1 3811.dat
1 2 960 0 320 1 0 0 0 1 0 0 0 1 3811.dat
0 STEP
1 19 560 -8 180 1 0 0 0 1 0 0 0 1 3034.dat
1 28 560 -8 220 1 0 0 0 1 0 0 0 1 3034.dat
1 19 560 -8 260 1 0 0 0 1 0 0 0 1 3034.dat
1 19 80 -8 280 1 0 0 0 1 0 0 0 1 3034.dat
1 19 240 -8 280 1 0 0 0 1 0 0 0 1 3034.dat
1 19 400 -8 280 1 0 0 0 1 0 0 0 1 3034.dat
1 19 560 -8 300 1 0 0 0 1 0 0 0 1 3034.dat
1 19 80 -8 320 1 0 0 0 1 0 0 0 1 3034.dat
1 19 240 -8 320 1 0 0 0 1 0 0 0 1 3034.dat
1 28 400 -8 320 1 0 0 0 1 0 0 0 1 3034.dat
1 19 560 -8 340 1 0 0 0 1 0 0 0 1 3034.dat
1 19 80 -8 360 1 0 0 0 1 0 0 0 1 3034.dat
1 28 240 -8 360 1 0 0 0 1 0 0 0 1 3034.dat
1 19 400 -8 360 1 0 0 0 1 0 0 0 1 3034.dat
1 19 520 -8 370 1 0 0 0 1 0 0 0 1 3710.dat
1 19 600 -8 370 1 0 0 0 1 0 0 0 1 3710.dat
1 19 120 -8 400 1 0 0 0 1 0 0 0 1 3020.dat
1 19 400 -8 400 1 0 0 0 1 0 0 0 1 3795.dat
1 19 120 -8 440 1 0 0 0 1 0 0 0 1 3020.dat
1 28 400 -8 440 1 0 0 0 1 0 0 0 1 3795.dat
0 STEP
1 28 720 -8 280 1 0 0 0 1 0 0 0 1 3034.dat
1 28 880 -8 280 1 0 0 0 1 0 0 0 1 3034.dat
1 19 1040 -8 280 1 0 0 0 1 0 0 0 1 3034.dat
1 19 1200 -8 280 1 0 0 0 1 0 0 0 1 3034.dat
1 19 720 -8 320 1 0 0 0 1 0 0 0 1 3034.dat
1 19 880 -8 320 1 0 0 0 1 0 0 0 1 3034.dat
1 19 1040 -8 320 1 0 0 0 1 0 0 0 1 3034.dat
1 19 1200 -8 320 1 0 0 0 1 0 0 0 1 3034.dat
1 28 720 -8 360 1 0 0 0 1 0 0 0 1 3034.dat
1 19 880 -8 360 1 0 0 0 1 0 0 0 1 3034.dat
1 28 1040 -8 360 1 0 0 0 1 0 0 0 1 3034.dat
1 19 1200 -8 360 1 0 0 0 1 0 0 0 1 3034.dat
1 28 820 -8 400 1 0 0 0 1 0 0 0 1 3020.dat
1 19 1140 -8 400 1 0 0 0 1 0 0 0 1 3020.dat
1 19 820 -8 440 1 0 0 0 1 0 0 0 1 3020.dat
1 28 1140 -8 440 1 0 0 0 1 0 0 0 1 3020.dat
0 STEP
1 28 80 -16 290 1 0 0 0 1 0 0 0 1 3069b.dat
1 28 200 -16 350 1 0 0 0 1 0 0 0 1 3069b.dat
1 71 300 -16 310 1 0 0 0 1 0 0 0 1 3069b.dat
1 71 420 -16 270 1 0 0 0 1 0 0 0 1 3069b.dat
1 71 500 -16 210 1 0 0 0 1 0 0 0 1 3069b.dat
1 28 760 -16 330 1 0 0 0 1 0 0 0 1 3069b.dat
1 71 900 -16 290 1 0 0 0 1 0 0 0 1 3069b.dat
1 28 1040 -16 350 1 0 0 0 1 0 0 0 1 3069b.dat
1 71 1180 -16 310 1 0 0 0 1 0 0 0 1 3069b.dat
0 STEP
0 // Miller's cottage - ground floor
1 70 120 -144 470 1 0 0 0 1 0 0 0 1 60596.dat
1 70 83.75 -136.75 463.75 1 0 0 0 1 0 0 0 1 60616a.dat
1 70 200 -96 470 1 0 0 0 1 0 0 0 1 60592.dat
1 47 196.5 -89 467 1 0 0 0 1 0 0 0 1 60601.dat
1 70 120 -96 590 -1 0 0 0 1 0 0 0 -1 60592.dat
1 47 116.5 -89 577 -1 0 0 0 1 0 0 0 -1 60601.dat
1 28 60 -24 470 1 0 0 0 1 0 0 0 1 98283.dat
1 19 200 -24 470 1 0 0 0 1 0 0 0 1 3010.dat
1 19 60 -24 590 1 0 0 0 1 0 0 0 1 3004.dat
1 28 120 -24 590 1 0 0 0 1 0 0 0 1 3010.dat
1 71 200 -24 590 1 0 0 0 1 0 0 0 1 3010.dat
1 19 50 -24 520 0 0 1 0 1 0 -1 0 0 3010.dat
1 28 50 -24 570 0 0 1 0 1 0 -1 0 0 3005.dat
1 28 230 -24 500 0 0 1 0 1 0 -1 0 0 3004.dat
1 71 230 -24 550 0 0 1 0 1 0 -1 0 0 3622.dat
1 28 50 -48 480 0 0 1 0 1 0 -1 0 0 98283.dat
1 28 50 -48 530 0 0 1 0 1 0 -1 0 0 3622.dat
1 19 50 -48 580 0 0 1 0 1 0 -1 0 0 98283.dat
1 28 230 -48 500 0 0 1 0 1 0 -1 0 0 3010.dat
1 19 230 -48 570 0 0 1 0 1 0 -1 0 0 3622.dat
1 19 70 -48 470 1 0 0 0 1 0 0 0 1 3005.dat
1 28 180 -48 470 1 0 0 0 1 0 0 0 1 98283.dat
1 28 210 -48 470 1 0 0 0 1 0 0 0 1 3005.dat
1 19 100 -48 590 1 0 0 0 1 0 0 0 1 3010.dat
1 28 180 -48 590 1 0 0 0 1 0 0 0 1 3010.dat
0 STEP
1 19 60 -72 470 1 0 0 0 1 0 0 0 1 98283.dat
1 71 170 -72 470 1 0 0 0 1 0 0 0 1 3005.dat
1 19 230 -72 470 1 0 0 0 1 0 0 0 1 3005.dat
1 19 60 -72 590 1 0 0 0 1 0 0 0 1 3004.dat
1 19 90 -72 590 1 0 0 0 1 0 0 0 1 3005.dat
1 19 160 -72 590 1 0 0 0 1 0 0 0 1 3004.dat
1 28 210 -72 590 1 0 0 0 1 0 0 0 1 3622.dat
1 19 50 -72 520 0 0 1 0 1 0 -1 0 0 3010.dat
1 19 50 -72 570 0 0 1 0 1 0 -1 0 0 3005.dat
1 19 230 -72 500 0 0 1 0 1 0 -1 0 0 3004.dat
1 19 230 -72 550 0 0 1 0 1 0 -1 0 0 3622.dat
1 19 50 -96 480 0 0 1 0 1 0 -1 0 0 3004.dat
1 19 50 -96 530 0 0 1 0 1 0 -1 0 0 3622.dat
1 19 50 -96 580 0 0 1 0 1 0 -1 0 0 3004.dat
1 19 230 -96 500 0 0 1 0 1 0 -1 0 0 3010.dat
1 28 230 -96 570 0 0 1 0 1 0 -1 0 0 3622.dat
1 19 70 -96 470 1 0 0 0 1 0 0 0 1 3005.dat
1 19 170 -96 470 1 0 0 0 1 0 0 0 1 3005.dat
1 19 80 -96 590 1 0 0 0 1 0 0 0 1 3004.dat
1 19 180 -96 590 1 0 0 0 1 0 0 0 1 3010.dat
0 STEP
1 71 60 -120 470 1 0 0 0 1 0 0 0 1 3004.dat
1 71 200 -120 470 1 0 0 0 1 0 0 0 1 3010.dat
1 28 60 -120 590 1 0 0 0 1 0 0 0 1 98283.dat
1 19 120 -120 590 1 0 0 0 1 0 0 0 1 3010.dat
1 71 200 -120 590 1 0 0 0 1 0 0 0 1 3010.dat
1 19 50 -120 520 0 0 1 0 1 0 -1 0 0 3010.dat
1 71 50 -120 570 0 0 1 0 1 0 -1 0 0 3005.dat
1 28 230 -120 500 0 0 1 0 1 0 -1 0 0 98283.dat
1 71 230 -120 550 0 0 1 0 1 0 -1 0 0 3622.dat
1 19 50 -144 480 0 0 1 0 1 0 -1 0 0 98283.dat
1 19 50 -144 530 0 0 1 0 1 0 -1 0 0 3622.dat
1 19 50 -144 580 0 0 1 0 1 0 -1 0 0 98283.dat
1 28 230 -144 500 0 0 1 0 1 0 -1 0 0 3010.dat
1 19 230 -144 570 0 0 1 0 1 0 -1 0 0 3622.dat
1 19 70 -144 470 1 0 0 0 1 0 0 0 1 3005.dat
1 28 180 -144 470 1 0 0 0 1 0 0 0 1 3004.dat
1 71 210 -144 470 1 0 0 0 1 0 0 0 1 3005.dat
1 71 100 -144 590 1 0 0 0 1 0 0 0 1 3010.dat
1 71 180 -144 590 1 0 0 0 1 0 0 0 1 3010.dat
0 STEP
0 // Miller's cottage - timber-framed upper floor
1 70 120 -152 520 1 0 0 0 1 0 0 0 1 41539.dat
1 70 220 -152 520 0 0 1 0 1 0 -1 0 0 3034.dat
0 STEP
1 70 80 -200 450 1 0 0 0 1 0 0 0 1 60592.dat
1 47 76.5 -193 447 1 0 0 0 1 0 0 0 1 60601.dat
1 70 200 -200 450 1 0 0 0 1 0 0 0 1 60592.dat
1 47 196.5 -193 447 1 0 0 0 1 0 0 0 1 60601.dat
1 308 50 -176 450 1 0 0 0 1 0 0 0 1 3005.dat
1 308 50 -176 510 1 0 0 0 1 0 0 0 1 3005.dat
1 308 50 -176 570 1 0 0 0 1 0 0 0 1 3005.dat
1 308 50 -176 590 1 0 0 0 1 0 0 0 1 3005.dat
1 308 110 -176 450 1 0 0 0 1 0 0 0 1 3005.dat
1 308 110 -176 590 1 0 0 0 1 0 0 0 1 3005.dat
1 308 170 -176 450 1 0 0 0 1 0 0 0 1 3005.dat
1 308 170 -176 590 1 0 0 0 1 0 0 0 1 3005.dat
1 308 230 -176 450 1 0 0 0 1 0 0 0 1 3005.dat
1 308 230 -176 510 1 0 0 0 1 0 0 0 1 3005.dat
1 308 230 -176 570 1 0 0 0 1 0 0 0 1 3005.dat
1 308 230 -176 590 1 0 0 0 1 0 0 0 1 3005.dat
1 15 140 -176 450 1 0 0 0 1 0 0 0 1 3004.dat
1 15 80 -176 590 1 0 0 0 1 0 0 0 1 3004.dat
1 15 140 -176 590 1 0 0 0 1 0 0 0 1 3004.dat
1 15 200 -176 590 1 0 0 0 1 0 0 0 1 3004.dat
1 15 50 -176 480 0 0 1 0 1 0 -1 0 0 3004.dat
1 15 50 -176 540 0 0 1 0 1 0 -1 0 0 3004.dat
1 15 230 -176 480 0 0 1 0 1 0 -1 0 0 3004.dat
1 15 230 -176 540 0 0 1 0 1 0 -1 0 0 3004.dat
0 STEP
1 308 50 -200 450 1 0 0 0 1 0 0 0 1 3005.dat
1 308 50 -200 510 1 0 0 0 1 0 0 0 1 3005.dat
1 308 50 -200 570 1 0 0 0 1 0 0 0 1 3005.dat
1 308 50 -200 590 1 0 0 0 1 0 0 0 1 3005.dat
1 308 110 -200 450 1 0 0 0 1 0 0 0 1 3005.dat
1 308 110 -200 590 1 0 0 0 1 0 0 0 1 3005.dat
1 308 170 -200 450 1 0 0 0 1 0 0 0 1 3005.dat
1 308 170 -200 590 1 0 0 0 1 0 0 0 1 3005.dat
1 308 230 -200 450 1 0 0 0 1 0 0 0 1 3005.dat
1 308 230 -200 510 1 0 0 0 1 0 0 0 1 3005.dat
1 308 230 -200 570 1 0 0 0 1 0 0 0 1 3005.dat
1 308 230 -200 590 1 0 0 0 1 0 0 0 1 3005.dat
1 15 50 -200 480 0 0 1 0 1 0 -1 0 0 3004.dat
1 15 50 -200 540 0 0 1 0 1 0 -1 0 0 3004.dat
1 15 230 -200 480 0 0 1 0 1 0 -1 0 0 3004.dat
1 15 230 -200 540 0 0 1 0 1 0 -1 0 0 3004.dat
1 15 140 -200 450 1 0 0 0 1 0 0 0 1 3004.dat
1 15 80 -200 590 1 0 0 0 1 0 0 0 1 3004.dat
1 15 140 -200 590 1 0 0 0 1 0 0 0 1 3004.dat
1 15 200 -200 590 1 0 0 0 1 0 0 0 1 3004.dat
0 STEP
1 308 50 -224 450 1 0 0 0 1 0 0 0 1 3005.dat
1 308 50 -224 510 1 0 0 0 1 0 0 0 1 3005.dat
1 308 50 -224 570 1 0 0 0 1 0 0 0 1 3005.dat
1 308 50 -224 590 1 0 0 0 1 0 0 0 1 3005.dat
1 308 110 -224 450 1 0 0 0 1 0 0 0 1 3005.dat
1 308 110 -224 590 1 0 0 0 1 0 0 0 1 3005.dat
1 308 170 -224 450 1 0 0 0 1 0 0 0 1 3005.dat
1 308 170 -224 590 1 0 0 0 1 0 0 0 1 3005.dat
1 308 230 -224 450 1 0 0 0 1 0 0 0 1 3005.dat
1 308 230 -224 510 1 0 0 0 1 0 0 0 1 3005.dat
1 308 230 -224 570 1 0 0 0 1 0 0 0 1 3005.dat
1 308 230 -224 590 1 0 0 0 1 0 0 0 1 3005.dat
1 15 80 -224 450 1 0 0 0 1 0 0 0 1 3004.dat
1 15 140 -224 450 1 0 0 0 1 0 0 0 1 3004.dat
1 15 200 -224 450 1 0 0 0 1 0 0 0 1 3004.dat
1 15 80 -224 590 1 0 0 0 1 0 0 0 1 3004.dat
1 15 140 -224 590 1 0 0 0 1 0 0 0 1 3004.dat
1 15 200 -224 590 1 0 0 0 1 0 0 0 1 3004.dat
1 15 50 -224 480 0 0 1 0 1 0 -1 0 0 3004.dat
1 15 50 -224 540 0 0 1 0 1 0 -1 0 0 3004.dat
1 15 230 -224 480 0 0 1 0 1 0 -1 0 0 3004.dat
1 15 230 -224 540 0 0 1 0 1 0 -1 0 0 3004.dat
0 STEP
1 308 120 -232 450 1 0 0 0 1 0 0 0 1 3460.dat
1 308 220 -232 450 1 0 0 0 1 0 0 0 1 3023.dat
1 308 50 -232 520 0 0 1 0 1 0 -1 0 0 3666.dat
1 308 230 -232 520 0 0 1 0 1 0 -1 0 0 3666.dat
1 308 120 -232 590 1 0 0 0 1 0 0 0 1 3460.dat
1 308 220 -232 590 1 0 0 0 1 0 0 0 1 3023.dat
0 STEP
0 // Miller's cottage - roof
1 19 80 -256 450 1 0 0 0 1 0 0 0 1 3037.dat
1 19 160 -256 450 1 0 0 0 1 0 0 0 1 3037.dat
1 19 220 -256 450 1 0 0 0 1 0 0 0 1 3039.dat
1 19 80 -256 590 -1 0 0 0 1 0 0 0 -1 3037.dat
1 19 160 -256 590 -1 0 0 0 1 0 0 0 -1 3037.dat
1 19 220 -256 590 -1 0 0 0 1 0 0 0 -1 3039.dat
1 15 50 -256 480 0 0 1 0 1 0 -1 0 0 3004.dat
1 15 50 -256 540 0 0 1 0 1 0 -1 0 0 3010.dat
1 15 230 -256 480 0 0 1 0 1 0 -1 0 0 3004.dat
1 15 230 -256 540 0 0 1 0 1 0 -1 0 0 3010.dat
0 STEP
1 19 80 -280 470 1 0 0 0 1 0 0 0 1 3037.dat
1 19 160 -280 470 1 0 0 0 1 0 0 0 1 3037.dat
1 19 220 -280 470 1 0 0 0 1 0 0 0 1 3039.dat
1 19 80 -280 570 -1 0 0 0 1 0 0 0 -1 3037.dat
1 19 160 -280 570 -1 0 0 0 1 0 0 0 -1 3037.dat
1 19 220 -280 570 -1 0 0 0 1 0 0 0 -1 3039.dat
1 15 50 -280 520 0 0 1 0 1 0 -1 0 0 3010.dat
1 15 230 -280 520 0 0 1 0 1 0 -1 0 0 3010.dat
0 STEP
1 19 80 -304 490 1 0 0 0 1 0 0 0 1 3037.dat
1 19 160 -304 490 1 0 0 0 1 0 0 0 1 3037.dat
1 19 220 -304 490 1 0 0 0 1 0 0 0 1 3039.dat
1 19 80 -304 550 -1 0 0 0 1 0 0 0 -1 3037.dat
1 19 160 -304 550 -1 0 0 0 1 0 0 0 -1 3037.dat
1 19 220 -304 550 -1 0 0 0 1 0 0 0 -1 3039.dat
1 15 50 -304 520 0 0 1 0 1 0 -1 0 0 3004.dat
1 15 230 -304 520 0 0 1 0 1 0 -1 0 0 3004.dat
0 STEP
1 19 80 -328 510 1 0 0 0 1 0 0 0 1 3037.dat
1 19 160 -328 510 1 0 0 0 1 0 0 0 1 3037.dat
1 19 220 -328 510 1 0 0 0 1 0 0 0 1 3039.dat
1 19 80 -328 530 -1 0 0 0 1 0 0 0 -1 3037.dat
1 19 160 -328 530 -1 0 0 0 1 0 0 0 -1 3037.dat
1 19 220 -328 530 -1 0 0 0 1 0 0 0 -1 3039.dat
0 STEP
1 70 60 -352 520 1 0 0 0 1 0 0 0 1 3043.dat
1 70 100 -352 520 1 0 0 0 1 0 0 0 1 3043.dat
1 70 140 -352 520 1 0 0 0 1 0 0 0 1 3043.dat
1 70 180 -352 520 1 0 0 0 1 0 0 0 1 3043.dat
1 70 220 -352 520 1 0 0 0 1 0 0 0 1 3043.dat
0 STEP
0 // The Quarrelsome Boar tavern - ground floor
1 308 820 -144 470 1 0 0 0 1 0 0 0 1 60596.dat
1 308 783.75 -136.75 463.75 1 0 0 0 1 0 0 0 1 60616a.dat
1 28 750 -24 470 1 0 0 0 1 0 0 0 1 3622.dat
1 72 900 -24 470 1 0 0 0 1 0 0 0 1 3010.dat
1 71 950 -24 470 1 0 0 0 1 0 0 0 1 3005.dat
1 71 740 -24 590 1 0 0 0 1 0 0 0 1 98283.dat
1 19 800 -24 590 1 0 0 0 1 0 0 0 1 3010.dat
1 28 900 -24 590 1 0 0 0 1 0 0 0 1 3009.dat
1 19 730 -24 520 0 0 1 0 1 0 -1 0 0 3010.dat
1 19 730 -24 570 0 0 1 0 1 0 -1 0 0 3005.dat
1 71 950 -24 500 0 0 1 0 1 0 -1 0 0 3004.dat
1 71 950 -24 550 0 0 1 0 1 0 -1 0 0 3622.dat
1 71 760 -48 470 1 0 0 0 1 0 0 0 1 3004.dat
1 19 880 -48 470 1 0 0 0 1 0 0 0 1 3004.dat
1 71 920 -48 470 1 0 0 0 1 0 0 0 1 98283.dat
0 STEP
1 70 760 -96 470 1 0 0 0 1 0 0 0 1 60592.dat
1 47 756.5 -89 467 1 0 0 0 1 0 0 0 1 60601.dat
1 70 900 -96 470 1 0 0 0 1 0 0 0 1 60592.dat
1 47 896.5 -89 467 1 0 0 0 1 0 0 0 1 60601.dat
1 70 820 -96 590 -1 0 0 0 1 0 0 0 -1 60592.dat
1 47 816.5 -89 577 -1 0 0 0 1 0 0 0 -1 60601.dat
1 70 900 -96 590 -1 0 0 0 1 0 0 0 -1 60592.dat
1 47 896.5 -89 577 -1 0 0 0 1 0 0 0 -1 60601.dat
1 71 730 -48 480 0 0 1 0 1 0 -1 0 0 98283.dat
1 72 730 -48 530 0 0 1 0 1 0 -1 0 0 3622.dat
1 28 730 -48 580 0 0 1 0 1 0 -1 0 0 3004.dat
1 71 950 -48 500 0 0 1 0 1 0 -1 0 0 3010.dat
1 72 950 -48 570 0 0 1 0 1 0 -1 0 0 3622.dat
1 71 780 -48 590 1 0 0 0 1 0 0 0 1 3010.dat
1 71 880 -48 590 1 0 0 0 1 0 0 0 1 3009.dat
0 STEP
1 28 730 -72 470 1 0 0 0 1 0 0 0 1 3005.dat
1 19 870 -72 470 1 0 0 0 1 0 0 0 1 3005.dat
1 71 940 -72 470 1 0 0 0 1 0 0 0 1 98283.dat
1 71 740 -72 590 1 0 0 0 1 0 0 0 1 3004.dat
1 71 780 -72 590 1 0 0 0 1 0 0 0 1 98283.dat
1 72 860 -72 590 1 0 0 0 1 0 0 0 1 98283.dat
1 19 940 -72 590 1 0 0 0 1 0 0 0 1 3004.dat
1 71 730 -72 520 0 0 1 0 1 0 -1 0 0 3010.dat
1 19 730 -72 570 0 0 1 0 1 0 -1 0 0 3005.dat
1 28 950 -72 500 0 0 1 0 1 0 -1 0 0 98283.dat
1 71 950 -72 550 0 0 1 0 1 0 -1 0 0 3622.dat
1 19 730 -96 480 0 0 1 0 1 0 -1 0 0 98283.dat
1 72 730 -96 530 0 0 1 0 1 0 -1 0 0 3622.dat
1 72 730 -96 580 0 0 1 0 1 0 -1 0 0 3004.dat
1 72 950 -96 500 0 0 1 0 1 0 -1 0 0 3010.dat
1 19 950 -96 570 0 0 1 0 1 0 -1 0 0 3622.dat
1 71 870 -96 470 1 0 0 0 1 0 0 0 1 3005.dat
1 19 930 -96 470 1 0 0 0 1 0 0 0 1 3005.dat
1 19 770 -96 590 1 0 0 0 1 0 0 0 1 3622.dat
1 28 860 -96 590 1 0 0 0 1 0 0 0 1 98283.dat
1 71 930 -96 590 1 0 0 0 1 0 0 0 1 3005.dat
0 STEP
1 71 750 -120 470 1 0 0 0 1 0 0 0 1 3622.dat
1 71 900 -120 470 1 0 0 0 1 0 0 0 1 3010.dat
1 71 950 -120 470 1 0 0 0 1 0 0 0 1 3005.dat
1 72 740 -120 590 1 0 0 0 1 0 0 0 1 3004.dat
1 19 800 -120 590 1 0 0 0 1 0 0 0 1 3010.dat
1 71 900 -120 590 1 0 0 0 1 0 0 0 1 3009.dat
1 71 730 -120 520 0 0 1 0 1 0 -1 0 0 3010.dat
1 71 730 -120 570 0 0 1 0 1 0 -1 0 0 3005.dat
1 71 950 -120 500 0 0 1 0 1 0 -1 0 0 98283.dat
1 19 950 -120 550 0 0 1 0 1 0 -1 0 0 3622.dat
1 72 730 -144 480 0 0 1 0 1 0 -1 0 0 3004.dat
1 72 730 -144 530 0 0 1 0 1 0 -1 0 0 3622.dat
1 71 730 -144 580 0 0 1 0 1 0 -1 0 0 3004.dat
1 71 950 -144 500 0 0 1 0 1 0 -1 0 0 3010.dat
1 19 950 -144 570 0 0 1 0 1 0 -1 0 0 3622.dat
1 71 760 -144 470 1 0 0 0 1 0 0 0 1 98283.dat
1 28 880 -144 470 1 0 0 0 1 0 0 0 1 3004.dat
1 71 920 -144 470 1 0 0 0 1 0 0 0 1 98283.dat
1 71 780 -144 590 1 0 0 0 1 0 0 0 1 3010.dat
1 72 880 -144 590 1 0 0 0 1 0 0 0 1 3009.dat
0 STEP
0 // The Quarrelsome Boar tavern - timber-framed upper floor
1 70 840 -152 500 1 0 0 0 1 0 0 0 1 3028.dat
1 70 840 -152 580 1 0 0 0 1 0 0 0 1 2445.dat
0 STEP
1 70 760 -200 450 1 0 0 0 1 0 0 0 1 60592.dat
1 47 756.5 -193 447 1 0 0 0 1 0 0 0 1 60601.dat
1 70 840 -200 450 1 0 0 0 1 0 0 0 1 60592.dat
1 47 836.5 -193 447 1 0 0 0 1 0 0 0 1 60601.dat
1 70 920 -200 450 1 0 0 0 1 0 0 0 1 60592.dat
1 47 916.5 -193 447 1 0 0 0 1 0 0 0 1 60601.dat
1 308 730 -176 450 1 0 0 0 1 0 0 0 1 3005.dat
1 308 730 -176 510 1 0 0 0 1 0 0 0 1 3005.dat
1 308 730 -176 570 1 0 0 0 1 0 0 0 1 3005.dat
1 308 730 -176 590 1 0 0 0 1 0 0 0 1 3005.dat
1 308 790 -176 450 1 0 0 0 1 0 0 0 1 3005.dat
1 308 790 -176 590 1 0 0 0 1 0 0 0 1 3005.dat
1 308 850 -176 590 1 0 0 0 1 0 0 0 1 3005.dat
1 308 910 -176 590 1 0 0 0 1 0 0 0 1 3005.dat
1 308 950 -176 450 1 0 0 0 1 0 0 0 1 3005.dat
1 308 950 -176 510 1 0 0 0 1 0 0 0 1 3005.dat
1 308 950 -176 570 1 0 0 0 1 0 0 0 1 3005.dat
1 308 950 -176 590 1 0 0 0 1 0 0 0 1 3005.dat
1 15 810 -176 450 1 0 0 0 1 0 0 0 1 3005.dat
1 15 880 -176 450 1 0 0 0 1 0 0 0 1 3004.dat
1 15 760 -176 590 1 0 0 0 1 0 0 0 1 3004.dat
1 15 820 -176 590 1 0 0 0 1 0 0 0 1 3004.dat
1 15 880 -176 590 1 0 0 0 1 0 0 0 1 3004.dat
1 15 930 -176 590 1 0 0 0 1 0 0 0 1 3005.dat
1 15 730 -176 480 0 0 1 0 1 0 -1 0 0 3004.dat
1 15 730 -176 540 0 0 1 0 1 0 -1 0 0 3004.dat
1 15 950 -176 480 0 0 1 0 1 0 -1 0 0 3004.dat
1 15 950 -176 540 0 0 1 0 1 0 -1 0 0 3004.dat
0 STEP
1 308 730 -200 450 1 0 0 0 1 0 0 0 1 3005.dat
1 308 730 -200 510 1 0 0 0 1 0 0 0 1 3005.dat
1 308 730 -200 570 1 0 0 0 1 0 0 0 1 3005.dat
1 308 730 -200 590 1 0 0 0 1 0 0 0 1 3005.dat
1 308 790 -200 450 1 0 0 0 1 0 0 0 1 3005.dat
1 308 790 -200 590 1 0 0 0 1 0 0 0 1 3005.dat
1 308 850 -200 590 1 0 0 0 1 0 0 0 1 3005.dat
1 308 910 -200 590 1 0 0 0 1 0 0 0 1 3005.dat
1 308 950 -200 450 1 0 0 0 1 0 0 0 1 3005.dat
1 308 950 -200 510 1 0 0 0 1 0 0 0 1 3005.dat
1 308 950 -200 570 1 0 0 0 1 0 0 0 1 3005.dat
1 308 950 -200 590 1 0 0 0 1 0 0 0 1 3005.dat
1 15 730 -200 480 0 0 1 0 1 0 -1 0 0 3004.dat
1 15 730 -200 540 0 0 1 0 1 0 -1 0 0 3004.dat
1 15 950 -200 480 0 0 1 0 1 0 -1 0 0 3004.dat
1 15 950 -200 540 0 0 1 0 1 0 -1 0 0 3004.dat
1 15 810 -200 450 1 0 0 0 1 0 0 0 1 3005.dat
1 15 880 -200 450 1 0 0 0 1 0 0 0 1 3004.dat
1 15 760 -200 590 1 0 0 0 1 0 0 0 1 3004.dat
1 15 820 -200 590 1 0 0 0 1 0 0 0 1 3004.dat
1 15 880 -200 590 1 0 0 0 1 0 0 0 1 3004.dat
1 15 930 -200 590 1 0 0 0 1 0 0 0 1 3005.dat
0 STEP
1 308 730 -224 450 1 0 0 0 1 0 0 0 1 3005.dat
1 308 730 -224 510 1 0 0 0 1 0 0 0 1 3005.dat
1 308 730 -224 570 1 0 0 0 1 0 0 0 1 3005.dat
1 308 730 -224 590 1 0 0 0 1 0 0 0 1 3005.dat
1 308 790 -224 450 1 0 0 0 1 0 0 0 1 3005.dat
1 308 790 -224 590 1 0 0 0 1 0 0 0 1 3005.dat
1 308 850 -224 590 1 0 0 0 1 0 0 0 1 3005.dat
1 308 910 -224 590 1 0 0 0 1 0 0 0 1 3005.dat
1 308 950 -224 450 1 0 0 0 1 0 0 0 1 3005.dat
1 308 950 -224 510 1 0 0 0 1 0 0 0 1 3005.dat
1 308 950 -224 570 1 0 0 0 1 0 0 0 1 3005.dat
1 308 950 -224 590 1 0 0 0 1 0 0 0 1 3005.dat
1 15 760 -224 450 1 0 0 0 1 0 0 0 1 3004.dat
1 15 840 -224 450 1 0 0 0 1 0 0 0 1 3010.dat
1 15 910 -224 450 1 0 0 0 1 0 0 0 1 3622.dat
1 15 760 -224 590 1 0 0 0 1 0 0 0 1 3004.dat
1 15 820 -224 590 1 0 0 0 1 0 0 0 1 3004.dat
1 15 880 -224 590 1 0 0 0 1 0 0 0 1 3004.dat
1 15 930 -224 590 1 0 0 0 1 0 0 0 1 3005.dat
1 15 730 -224 480 0 0 1 0 1 0 -1 0 0 3004.dat
1 15 730 -224 540 0 0 1 0 1 0 -1 0 0 3004.dat
1 15 950 -224 480 0 0 1 0 1 0 -1 0 0 3004.dat
1 15 950 -224 540 0 0 1 0 1 0 -1 0 0 3004.dat
0 STEP
1 308 800 -232 450 1 0 0 0 1 0 0 0 1 3460.dat
1 308 920 -232 450 1 0 0 0 1 0 0 0 1 3710.dat
1 308 730 -232 520 0 0 1 0 1 0 -1 0 0 3666.dat
1 308 950 -232 520 0 0 1 0 1 0 -1 0 0 3666.dat
1 308 800 -232 590 1 0 0 0 1 0 0 0 1 3460.dat
1 308 920 -232 590 1 0 0 0 1 0 0 0 1 3710.dat
0 STEP
0 // The Quarrelsome Boar tavern - roof
1 320 760 -256 450 1 0 0 0 1 0 0 0 1 3037.dat
1 320 840 -256 450 1 0 0 0 1 0 0 0 1 3037.dat
1 320 920 -256 450 1 0 0 0 1 0 0 0 1 3037.dat
1 320 760 -256 590 -1 0 0 0 1 0 0 0 -1 3037.dat
1 320 840 -256 590 -1 0 0 0 1 0 0 0 -1 3037.dat
1 320 920 -256 590 -1 0 0 0 1 0 0 0 -1 3037.dat
1 15 730 -256 480 0 0 1 0 1 0 -1 0 0 3004.dat
1 15 730 -256 540 0 0 1 0 1 0 -1 0 0 3010.dat
1 15 950 -256 480 0 0 1 0 1 0 -1 0 0 3004.dat
1 15 950 -256 540 0 0 1 0 1 0 -1 0 0 3010.dat
0 STEP
1 320 760 -280 470 1 0 0 0 1 0 0 0 1 3037.dat
1 320 840 -280 470 1 0 0 0 1 0 0 0 1 3037.dat
1 320 920 -280 470 1 0 0 0 1 0 0 0 1 3037.dat
1 320 760 -280 570 -1 0 0 0 1 0 0 0 -1 3037.dat
1 320 840 -280 570 -1 0 0 0 1 0 0 0 -1 3037.dat
1 320 920 -280 570 -1 0 0 0 1 0 0 0 -1 3037.dat
1 15 730 -280 520 0 0 1 0 1 0 -1 0 0 3010.dat
1 15 950 -280 520 0 0 1 0 1 0 -1 0 0 3010.dat
0 STEP
1 320 760 -304 490 1 0 0 0 1 0 0 0 1 3037.dat
1 320 840 -304 490 1 0 0 0 1 0 0 0 1 3037.dat
1 320 920 -304 490 1 0 0 0 1 0 0 0 1 3037.dat
1 320 760 -304 550 -1 0 0 0 1 0 0 0 -1 3037.dat
1 320 840 -304 550 -1 0 0 0 1 0 0 0 -1 3037.dat
1 320 920 -304 550 -1 0 0 0 1 0 0 0 -1 3037.dat
1 15 730 -304 520 0 0 1 0 1 0 -1 0 0 3004.dat
1 15 950 -304 520 0 0 1 0 1 0 -1 0 0 3004.dat
0 STEP
1 320 760 -328 510 1 0 0 0 1 0 0 0 1 3037.dat
1 320 840 -328 510 1 0 0 0 1 0 0 0 1 3037.dat
1 320 920 -328 510 1 0 0 0 1 0 0 0 1 3037.dat
1 320 760 -328 530 -1 0 0 0 1 0 0 0 -1 3037.dat
1 320 840 -328 530 -1 0 0 0 1 0 0 0 -1 3037.dat
1 320 920 -328 530 -1 0 0 0 1 0 0 0 -1 3037.dat
0 STEP
1 320 740 -352 520 1 0 0 0 1 0 0 0 1 3043.dat
1 320 780 -352 520 1 0 0 0 1 0 0 0 1 3043.dat
1 320 820 -352 520 1 0 0 0 1 0 0 0 1 3043.dat
1 320 860 -352 520 1 0 0 0 1 0 0 0 1 3043.dat
1 320 900 -352 520 1 0 0 0 1 0 0 0 1 3043.dat
1 320 940 -352 520 1 0 0 0 1 0 0 0 1 3043.dat
0 STEP
0 // Woodcutter's house - ground floor
1 308 1140 -144 470 1 0 0 0 1 0 0 0 1 60596.dat
1 308 1103.75 -136.75 463.75 1 0 0 0 1 0 0 0 1 60616a.dat
1 308 1080 -96 470 1 0 0 0 1 0 0 0 1 60592.dat
1 47 1076.5 -89 467 1 0 0 0 1 0 0 0 1 60601.dat
1 308 1220 -96 470 1 0 0 0 1 0 0 0 1 60592.dat
1 47 1216.5 -89 467 1 0 0 0 1 0 0 0 1 60601.dat
1 308 1070 -24 470 1 0 0 0 1 0 0 0 1 3622.dat
1 308 1210 -24 470 1 0 0 0 1 0 0 0 1 3622.dat
1 70 1060 -24 590 1 0 0 0 1 0 0 0 1 30136.dat
1 70 1120 -24 590 1 0 0 0 1 0 0 0 1 30137.dat
1 70 1200 -24 590 1 0 0 0 1 0 0 0 1 30137.dat
1 70 1050 -24 520 0 0 1 0 1 0 -1 0 0 30137.dat
1 308 1050 -24 570 0 0 1 0 1 0 -1 0 0 3005.dat
1 70 1230 -24 500 0 0 1 0 1 0 -1 0 0 30136.dat
1 308 1230 -24 550 0 0 1 0 1 0 -1 0 0 3622.dat
1 70 1050 -48 480 0 0 1 0 1 0 -1 0 0 30136.dat
1 308 1050 -48 530 0 0 1 0 1 0 -1 0 0 3622.dat
1 70 1050 -48 580 0 0 1 0 1 0 -1 0 0 30136.dat
1 70 1230 -48 500 0 0 1 0 1 0 -1 0 0 30137.dat
1 308 1230 -48 570 0 0 1 0 1 0 -1 0 0 3622.dat
1 70 1080 -48 470 1 0 0 0 1 0 0 0 1 30136.dat
1 70 1200 -48 470 1 0 0 0 1 0 0 0 1 30136.dat
1 70 1100 -48 590 1 0 0 0 1 0 0 0 1 30137.dat
1 70 1180 -48 590 1 0 0 0 1 0 0 0 1 30137.dat
0 STEP
1 308 1050 -72 470 1 0 0 0 1 0 0 0 1 3005.dat
1 308 1190 -72 470 1 0 0 0 1 0 0 0 1 3005.dat
1 70 1060 -72 590 1 0 0 0 1 0 0 0 1 30136.dat
1 70 1120 -72 590 1 0 0 0 1 0 0 0 1 30137.dat
1 70 1200 -72 590 1 0 0 0 1 0 0 0 1 30137.dat
1 70 1050 -72 520 0 0 1 0 1 0 -1 0 0 30137.dat
1 308 1050 -72 570 0 0 1 0 1 0 -1 0 0 3005.dat
1 70 1230 -72 500 0 0 1 0 1 0 -1 0 0 30136.dat
1 308 1230 -72 550 0 0 1 0 1 0 -1 0 0 3622.dat
1 70 1050 -96 480 0 0 1 0 1 0 -1 0 0 30136.dat
1 308 1050 -96 530 0 0 1 0 1 0 -1 0 0 3622.dat
1 70 1050 -96 580 0 0 1 0 1 0 -1 0 0 30136.dat
1 70 1230 -96 520 0 0 1 0 1 0 -1 0 0 30137.dat
1 70 1230 -96 580 0 0 1 0 1 0 -1 0 0 30136.dat
1 308 1190 -96 470 1 0 0 0 1 0 0 0 1 3005.dat
1 70 1100 -96 590 1 0 0 0 1 0 0 0 1 30137.dat
1 70 1180 -96 590 1 0 0 0 1 0 0 0 1 30137.dat
0 STEP
1 308 1070 -120 470 1 0 0 0 1 0 0 0 1 3622.dat
1 308 1210 -120 470 1 0 0 0 1 0 0 0 1 3622.dat
1 70 1060 -120 590 1 0 0 0 1 0 0 0 1 30136.dat
1 70 1120 -120 590 1 0 0 0 1 0 0 0 1 30137.dat
1 70 1200 -120 590 1 0 0 0 1 0 0 0 1 30137.dat
1 70 1050 -120 520 0 0 1 0 1 0 -1 0 0 30137.dat
1 308 1050 -120 570 0 0 1 0 1 0 -1 0 0 3005.dat
1 70 1230 -120 500 0 0 1 0 1 0 -1 0 0 30136.dat
1 308 1230 -120 550 0 0 1 0 1 0 -1 0 0 3622.dat
1 70 1050 -144 480 0 0 1 0 1 0 -1 0 0 30136.dat
1 308 1050 -144 530 0 0 1 0 1 0 -1 0 0 3622.dat
1 70 1050 -144 580 0 0 1 0 1 0 -1 0 0 30136.dat
1 70 1230 -144 500 0 0 1 0 1 0 -1 0 0 30137.dat
1 308 1230 -144 570 0 0 1 0 1 0 -1 0 0 3622.dat
1 70 1080 -144 470 1 0 0 0 1 0 0 0 1 30136.dat
1 70 1200 -144 470 1 0 0 0 1 0 0 0 1 30136.dat
1 70 1100 -144 590 1 0 0 0 1 0 0 0 1 30137.dat
1 70 1180 -144 590 1 0 0 0 1 0 0 0 1 30137.dat
0 STEP
0 // Woodcutter's house - timber-framed upper floor
1 70 1120 -152 520 1 0 0 0 1 0 0 0 1 41539.dat
1 70 1220 -152 520 0 0 1 0 1 0 -1 0 0 3034.dat
0 STEP
1 15 1100 -200 450 1 0 0 0 1 0 0 0 1 60592.dat
1 47 1096.5 -193 447 1 0 0 0 1 0 0 0 1 60601.dat
1 15 1180 -200 450 1 0 0 0 1 0 0 0 1 60592.dat
1 47 1176.5 -193 447 1 0 0 0 1 0 0 0 1 60601.dat
1 308 1050 -176 450 1 0 0 0 1 0 0 0 1 3005.dat
1 308 1050 -176 510 1 0 0 0 1 0 0 0 1 3005.dat
1 308 1050 -176 570 1 0 0 0 1 0 0 0 1 3005.dat
1 308 1050 -176 590 1 0 0 0 1 0 0 0 1 3005.dat
1 308 1110 -176 590 1 0 0 0 1 0 0 0 1 3005.dat
1 308 1170 -176 590 1 0 0 0 1 0 0 0 1 3005.dat
1 308 1230 -176 450 1 0 0 0 1 0 0 0 1 3005.dat
1 308 1230 -176 510 1 0 0 0 1 0 0 0 1 3005.dat
1 308 1230 -176 570 1 0 0 0 1 0 0 0 1 3005.dat
1 308 1230 -176 590 1 0 0 0 1 0 0 0 1 3005.dat
1 19 1070 -176 450 1 0 0 0 1 0 0 0 1 3005.dat
1 19 1140 -176 450 1 0 0 0 1 0 0 0 1 3004.dat
1 19 1210 -176 450 1 0 0 0 1 0 0 0 1 3005.dat
1 19 1080 -176 590 1 0 0 0 1 0 0 0 1 3004.dat
1 19 1140 -176 590 1 0 0 0 1 0 0 0 1 3004.dat
1 19 1200 -176 590 1 0 0 0 1 0 0 0 1 3004.dat
1 19 1050 -176 480 0 0 1 0 1 0 -1 0 0 3004.dat
1 19 1050 -176 540 0 0 1 0 1 0 -1 0 0 3004.dat
1 19 1230 -176 480 0 0 1 0 1 0 -1 0 0 3004.dat
1 19 1230 -176 540 0 0 1 0 1 0 -1 0 0 3004.dat
0 STEP
1 308 1050 -200 450 1 0 0 0 1 0 0 0 1 3005.dat
1 308 1050 -200 510 1 0 0 0 1 0 0 0 1 3005.dat
1 308 1050 -200 570 1 0 0 0 1 0 0 0 1 3005.dat
1 308 1050 -200 590 1 0 0 0 1 0 0 0 1 3005.dat
1 308 1110 -200 590 1 0 0 0 1 0 0 0 1 3005.dat
1 308 1170 -200 590 1 0 0 0 1 0 0 0 1 3005.dat
1 308 1230 -200 450 1 0 0 0 1 0 0 0 1 3005.dat
1 308 1230 -200 510 1 0 0 0 1 0 0 0 1 3005.dat
1 308 1230 -200 570 1 0 0 0 1 0 0 0 1 3005.dat
1 308 1230 -200 590 1 0 0 0 1 0 0 0 1 3005.dat
1 19 1050 -200 480 0 0 1 0 1 0 -1 0 0 3004.dat
1 19 1050 -200 540 0 0 1 0 1 0 -1 0 0 3004.dat
1 19 1230 -200 480 0 0 1 0 1 0 -1 0 0 3004.dat
1 19 1230 -200 540 0 0 1 0 1 0 -1 0 0 3004.dat
1 19 1070 -200 450 1 0 0 0 1 0 0 0 1 3005.dat
1 19 1140 -200 450 1 0 0 0 1 0 0 0 1 3004.dat
1 19 1210 -200 450 1 0 0 0 1 0 0 0 1 3005.dat
1 19 1080 -200 590 1 0 0 0 1 0 0 0 1 3004.dat
1 19 1140 -200 590 1 0 0 0 1 0 0 0 1 3004.dat
1 19 1200 -200 590 1 0 0 0 1 0 0 0 1 3004.dat
0 STEP
1 308 1050 -224 450 1 0 0 0 1 0 0 0 1 3005.dat
1 308 1050 -224 510 1 0 0 0 1 0 0 0 1 3005.dat
1 308 1050 -224 570 1 0 0 0 1 0 0 0 1 3005.dat
1 308 1050 -224 590 1 0 0 0 1 0 0 0 1 3005.dat
1 308 1110 -224 590 1 0 0 0 1 0 0 0 1 3005.dat
1 308 1170 -224 590 1 0 0 0 1 0 0 0 1 3005.dat
1 308 1230 -224 450 1 0 0 0 1 0 0 0 1 3005.dat
1 308 1230 -224 510 1 0 0 0 1 0 0 0 1 3005.dat
1 308 1230 -224 570 1 0 0 0 1 0 0 0 1 3005.dat
1 308 1230 -224 590 1 0 0 0 1 0 0 0 1 3005.dat
1 19 1100 -224 450 1 0 0 0 1 0 0 0 1 3010.dat
1 19 1180 -224 450 1 0 0 0 1 0 0 0 1 3010.dat
1 19 1080 -224 590 1 0 0 0 1 0 0 0 1 3004.dat
1 19 1140 -224 590 1 0 0 0 1 0 0 0 1 3004.dat
1 19 1200 -224 590 1 0 0 0 1 0 0 0 1 3004.dat
1 19 1050 -224 480 0 0 1 0 1 0 -1 0 0 3004.dat
1 19 1050 -224 540 0 0 1 0 1 0 -1 0 0 3004.dat
1 19 1230 -224 480 0 0 1 0 1 0 -1 0 0 3004.dat
1 19 1230 -224 540 0 0 1 0 1 0 -1 0 0 3004.dat
0 STEP
1 308 1120 -232 450 1 0 0 0 1 0 0 0 1 3460.dat
1 308 1220 -232 450 1 0 0 0 1 0 0 0 1 3023.dat
1 308 1050 -232 520 0 0 1 0 1 0 -1 0 0 3666.dat
1 308 1230 -232 520 0 0 1 0 1 0 -1 0 0 3666.dat
1 308 1120 -232 590 1 0 0 0 1 0 0 0 1 3460.dat
1 308 1220 -232 590 1 0 0 0 1 0 0 0 1 3023.dat
0 STEP
0 // Woodcutter's house - roof
1 70 1080 -256 450 1 0 0 0 1 0 0 0 1 3037.dat
1 70 1160 -256 450 1 0 0 0 1 0 0 0 1 3037.dat
1 70 1220 -256 450 1 0 0 0 1 0 0 0 1 3039.dat
1 70 1080 -256 590 -1 0 0 0 1 0 0 0 -1 3037.dat
1 70 1160 -256 590 -1 0 0 0 1 0 0 0 -1 3037.dat
1 70 1220 -256 590 -1 0 0 0 1 0 0 0 -1 3039.dat
1 19 1050 -256 480 0 0 1 0 1 0 -1 0 0 3004.dat
1 19 1050 -256 540 0 0 1 0 1 0 -1 0 0 3010.dat
1 19 1230 -256 480 0 0 1 0 1 0 -1 0 0 3004.dat
1 19 1230 -256 540 0 0 1 0 1 0 -1 0 0 3010.dat
0 STEP
1 70 1080 -280 470 1 0 0 0 1 0 0 0 1 3037.dat
1 70 1160 -280 470 1 0 0 0 1 0 0 0 1 3037.dat
1 70 1220 -280 470 1 0 0 0 1 0 0 0 1 3039.dat
1 70 1080 -280 570 -1 0 0 0 1 0 0 0 -1 3037.dat
1 70 1160 -280 570 -1 0 0 0 1 0 0 0 -1 3037.dat
1 70 1220 -280 570 -1 0 0 0 1 0 0 0 -1 3039.dat
1 19 1050 -280 520 0 0 1 0 1 0 -1 0 0 3010.dat
1 19 1230 -280 520 0 0 1 0 1 0 -1 0 0 3010.dat
0 STEP
1 70 1080 -304 490 1 0 0 0 1 0 0 0 1 3037.dat
1 70 1160 -304 490 1 0 0 0 1 0 0 0 1 3037.dat
1 70 1220 -304 490 1 0 0 0 1 0 0 0 1 3039.dat
1 70 1080 -304 550 -1 0 0 0 1 0 0 0 -1 3037.dat
1 70 1160 -304 550 -1 0 0 0 1 0 0 0 -1 3037.dat
1 70 1220 -304 550 -1 0 0 0 1 0 0 0 -1 3039.dat
1 19 1050 -304 520 0 0 1 0 1 0 -1 0 0 3004.dat
1 19 1230 -304 520 0 0 1 0 1 0 -1 0 0 3004.dat
0 STEP
1 70 1080 -328 510 1 0 0 0 1 0 0 0 1 3037.dat
1 70 1160 -328 510 1 0 0 0 1 0 0 0 1 3037.dat
1 70 1220 -328 510 1 0 0 0 1 0 0 0 1 3039.dat
1 70 1080 -328 530 -1 0 0 0 1 0 0 0 -1 3037.dat
1 70 1160 -328 530 -1 0 0 0 1 0 0 0 -1 3037.dat
1 70 1220 -328 530 -1 0 0 0 1 0 0 0 -1 3039.dat
0 STEP
1 70 1060 -352 520 1 0 0 0 1 0 0 0 1 3043.dat
1 70 1100 -352 520 1 0 0 0 1 0 0 0 1 3043.dat
1 70 1140 -352 520 1 0 0 0 1 0 0 0 1 3043.dat
1 70 1180 -352 520 1 0 0 0 1 0 0 0 1 3043.dat
1 70 1220 -352 520 1 0 0 0 1 0 0 0 1 3043.dat
0 STEP
0 // Blacksmith's forge - walls and hearth
1 72 400 -8 540 1 0 0 0 1 0 0 0 1 3036.dat
0 STEP
1 72 310 -24 470 1 0 0 0 1 0 0 0 1 3005.dat
1 71 400 -24 470 1 0 0 0 1 0 0 0 1 3004.dat
1 71 490 -24 470 1 0 0 0 1 0 0 0 1 3005.dat
1 71 320 -24 610 1 0 0 0 1 0 0 0 1 3004.dat
1 72 380 -24 610 1 0 0 0 1 0 0 0 1 3010.dat
1 71 460 -24 610 1 0 0 0 1 0 0 0 1 3010.dat
1 71 310 -24 520 0 0 1 0 1 0 -1 0 0 3010.dat
1 72 310 -24 580 0 0 1 0 1 0 -1 0 0 3004.dat
1 0 490 -24 500 0 0 1 0 1 0 -1 0 0 3004.dat
1 71 490 -24 560 0 0 1 0 1 0 -1 0 0 3010.dat
1 71 310 -48 480 0 0 1 0 1 0 -1 0 0 98283.dat
1 72 310 -48 560 0 0 1 0 1 0 -1 0 0 3009.dat
1 72 490 -48 500 0 0 1 0 1 0 -1 0 0 3010.dat
1 71 490 -48 580 0 0 1 0 1 0 -1 0 0 3010.dat
1 72 400 -48 470 1 0 0 0 1 0 0 0 1 98283.dat
1 71 360 -48 610 1 0 0 0 1 0 0 0 1 3010.dat
1 72 440 -48 610 1 0 0 0 1 0 0 0 1 3010.dat
0 STEP
1 72 310 -72 470 1 0 0 0 1 0 0 0 1 3005.dat
1 72 400 -72 470 1 0 0 0 1 0 0 0 1 3004.dat
1 71 490 -72 470 1 0 0 0 1 0 0 0 1 3005.dat
1 72 320 -72 610 1 0 0 0 1 0 0 0 1 98283.dat
1 71 380 -72 610 1 0 0 0 1 0 0 0 1 3010.dat
1 72 460 -72 610 1 0 0 0 1 0 0 0 1 3010.dat
1 72 310 -72 520 0 0 1 0 1 0 -1 0 0 3010.dat
1 72 310 -72 580 0 0 1 0 1 0 -1 0 0 3004.dat
1 0 490 -72 500 0 0 1 0 1 0 -1 0 0 3004.dat
1 71 490 -72 560 0 0 1 0 1 0 -1 0 0 3010.dat
1 72 310 -96 480 0 0 1 0 1 0 -1 0 0 98283.dat
1 71 310 -96 560 0 0 1 0 1 0 -1 0 0 3009.dat
1 72 490 -96 500 0 0 1 0 1 0 -1 0 0 3010.dat
1 72 490 -96 580 0 0 1 0 1 0 -1 0 0 3010.dat
1 71 400 -96 470 1 0 0 0 1 0 0 0 1 98283.dat
1 72 360 -96 610 1 0 0 0 1 0 0 0 1 3010.dat
1 71 440 -96 610 1 0 0 0 1 0 0 0 1 3010.dat
0 STEP
1 71 310 -120 470 1 0 0 0 1 0 0 0 1 3005.dat
1 72 400 -120 470 1 0 0 0 1 0 0 0 1 3004.dat
1 72 490 -120 470 1 0 0 0 1 0 0 0 1 3005.dat
1 72 320 -120 610 1 0 0 0 1 0 0 0 1 98283.dat
1 72 380 -120 610 1 0 0 0 1 0 0 0 1 3010.dat
1 72 460 -120 610 1 0 0 0 1 0 0 0 1 3010.dat
1 72 310 -120 520 0 0 1 0 1 0 -1 0 0 3010.dat
1 71 310 -120 580 0 0 1 0 1 0 -1 0 0 3004.dat
1 71 490 -120 500 0 0 1 0 1 0 -1 0 0 3004.dat
1 72 490 -120 560 0 0 1 0 1 0 -1 0 0 3010.dat
1 70 400 -144 470 1 0 0 0 1 0 0 0 1 6111.dat
1 71 310 -144 500 0 0 1 0 1 0 -1 0 0 3004.dat
1 71 310 -144 550 0 0 1 0 1 0 -1 0 0 3622.dat
1 72 310 -144 600 0 0 1 0 1 0 -1 0 0 3004.dat
1 72 490 -144 520 0 0 1 0 1 0 -1 0 0 3010.dat
1 0 490 -144 590 0 0 1 0 1 0 -1 0 0 3622.dat
1 71 360 -144 610 1 0 0 0 1 0 0 0 1 3010.dat
1 72 440 -144 610 1 0 0 0 1 0 0 0 1 3010.dat
1 0 340 -168 470 1 0 0 0 1 0 0 0 1 3010.dat
1 71 440 -168 470 1 0 0 0 1 0 0 0 1 3009.dat
1 71 320 -168 610 1 0 0 0 1 0 0 0 1 3004.dat
1 0 380 -168 610 1 0 0 0 1 0 0 0 1 3010.dat
1 71 460 -168 610 1 0 0 0 1 0 0 0 1 3010.dat
1 71 310 -168 520 0 0 1 0 1 0 -1 0 0 3010.dat
1 71 310 -168 580 0 0 1 0 1 0 -1 0 0 98283.dat
1 71 490 -168 500 0 0 1 0 1 0 -1 0 0 98283.dat
1 71 490 -168 560 0 0 1 0 1 0 -1 0 0 3010.dat
0 STEP
1 72 450 -32 560 1 0 0 0 1 0 0 0 1 3002.dat
1 57 430 -40 550 1 0 0 0 1 0 0 0 1 6141.dat
1 36 450 -40 550 1 0 0 0 1 0 0 0 1 6141.dat
1 57 470 -40 550 1 0 0 0 1 0 0 0 1 6141.dat
1 57 450 -40 570 1 0 0 0 1 0 0 0 1 6141.dat
1 72 380 -32 530 1 0 0 0 1 0 0 0 1 3004.dat
1 0 380 -40 530 1 0 0 0 1 0 0 0 1 3069b.dat
1 70 340 -48 580 1 0 0 0 1 0 0 0 1 2489.dat
0 STEP
0 // Blacksmith's forge - slate roof
1 308 380 -176 470 1 0 0 0 1 0 0 0 1 3460.dat
1 308 480 -176 470 1 0 0 0 1 0 0 0 1 3023.dat
1 308 310 -176 540 0 0 1 0 1 0 -1 0 0 3666.dat
1 308 490 -176 540 0 0 1 0 1 0 -1 0 0 3666.dat
1 308 380 -176 610 1 0 0 0 1 0 0 0 1 3460.dat
1 308 480 -176 610 1 0 0 0 1 0 0 0 1 3023.dat
0 STEP
1 72 340 -200 470 1 0 0 0 1 0 0 0 1 3037.dat
1 72 420 -200 470 1 0 0 0 1 0 0 0 1 3037.dat
1 72 480 -200 470 1 0 0 0 1 0 0 0 1 3039.dat
1 72 340 -200 610 -1 0 0 0 1 0 0 0 -1 3037.dat
1 72 420 -200 610 -1 0 0 0 1 0 0 0 -1 3037.dat
1 72 480 -200 610 -1 0 0 0 1 0 0 0 -1 3039.dat
1 72 310 -200 500 0 0 1 0 1 0 -1 0 0 3004.dat
1 0 310 -200 560 0 0 1 0 1 0 -1 0 0 3010.dat
1 72 490 -200 500 0 0 1 0 1 0 -1 0 0 3004.dat
1 72 490 -200 560 0 0 1 0 1 0 -1 0 0 3010.dat
0 STEP
1 72 340 -224 490 1 0 0 0 1 0 0 0 1 3037.dat
1 72 420 -224 490 1 0 0 0 1 0 0 0 1 3037.dat
1 72 480 -224 490 1 0 0 0 1 0 0 0 1 3039.dat
1 72 340 -224 590 -1 0 0 0 1 0 0 0 -1 3037.dat
1 72 420 -224 590 -1 0 0 0 1 0 0 0 -1 3037.dat
1 72 480 -224 590 -1 0 0 0 1 0 0 0 -1 3039.dat
1 0 310 -224 540 0 0 1 0 1 0 -1 0 0 3010.dat
1 72 490 -224 540 0 0 1 0 1 0 -1 0 0 3010.dat
0 STEP
1 72 340 -248 510 1 0 0 0 1 0 0 0 1 3037.dat
1 72 420 -248 510 1 0 0 0 1 0 0 0 1 3037.dat
1 72 480 -248 510 1 0 0 0 1 0 0 0 1 3039.dat
1 72 340 -248 570 -1 0 0 0 1 0 0 0 -1 3037.dat
1 72 420 -248 570 -1 0 0 0 1 0 0 0 -1 3037.dat
1 72 480 -248 570 -1 0 0 0 1 0 0 0 -1 3039.dat
1 72 310 -248 540 0 0 1 0 1 0 -1 0 0 3004.dat
1 72 490 -248 540 0 0 1 0 1 0 -1 0 0 3004.dat
0 STEP
1 72 340 -272 530 1 0 0 0 1 0 0 0 1 3037.dat
1 72 420 -272 530 1 0 0 0 1 0 0 0 1 3037.dat
1 72 480 -272 530 1 0 0 0 1 0 0 0 1 3039.dat
1 72 340 -272 550 -1 0 0 0 1 0 0 0 -1 3037.dat
1 72 420 -272 550 -1 0 0 0 1 0 0 0 -1 3037.dat
1 72 480 -272 550 -1 0 0 0 1 0 0 0 -1 3039.dat
0 STEP
1 0 320 -296 540 1 0 0 0 1 0 0 0 1 3043.dat
1 0 360 -296 540 1 0 0 0 1 0 0 0 1 3043.dat
1 0 400 -296 540 1 0 0 0 1 0 0 0 1 3043.dat
1 0 440 -296 540 1 0 0 0 1 0 0 0 1 3043.dat
1 0 480 -296 540 1 0 0 0 1 0 0 0 1 3043.dat
0 STEP
0 // Market stall 1
1 70 70 -24 110 1 0 0 0 1 0 0 0 1 3062b.dat
1 70 70 -48 110 1 0 0 0 1 0 0 0 1 3062b.dat
1 70 70 -72 110 1 0 0 0 1 0 0 0 1 3062b.dat
1 70 70 -96 110 1 0 0 0 1 0 0 0 1 3062b.dat
1 70 170 -24 110 1 0 0 0 1 0 0 0 1 3062b.dat
1 70 170 -48 110 1 0 0 0 1 0 0 0 1 3062b.dat
1 70 170 -72 110 1 0 0 0 1 0 0 0 1 3062b.dat
1 70 170 -96 110 1 0 0 0 1 0 0 0 1 3062b.dat
1 70 70 -24 170 1 0 0 0 1 0 0 0 1 3062b.dat
1 70 70 -48 170 1 0 0 0 1 0 0 0 1 3062b.dat
1 70 70 -72 170 1 0 0 0 1 0 0 0 1 3062b.dat
1 70 70 -96 170 1 0 0 0 1 0 0 0 1 3062b.dat
1 70 170 -24 170 1 0 0 0 1 0 0 0 1 3062b.dat
1 70 170 -48 170 1 0 0 0 1 0 0 0 1 3062b.dat
1 70 170 -72 170 1 0 0 0 1 0 0 0 1 3062b.dat
1 70 170 -96 170 1 0 0 0 1 0 0 0 1 3062b.dat
1 70 120 -24 110 1 0 0 0 1 0 0 0 1 3010.dat
1 19 120 -32 110 1 0 0 0 1 0 0 0 1 3710.dat
0 STEP
1 70 120 -104 140 1 0 0 0 1 0 0 0 1 3032.dat
1 4 120 -112 110 1 0 0 0 1 0 0 0 1 6636.dat
1 15 120 -112 130 1 0 0 0 1 0 0 0 1 6636.dat
1 4 120 -112 150 1 0 0 0 1 0 0 0 1 6636.dat
1 15 120 -112 170 1 0 0 0 1 0 0 0 1 6636.dat
0 STEP
0 // Market stall 2
1 70 250 -24 110 1 0 0 0 1 0 0 0 1 3062b.dat
1 70 250 -48 110 1 0 0 0 1 0 0 0 1 3062b.dat
1 70 250 -72 110 1 0 0 0 1 0 0 0 1 3062b.dat
1 70 250 -96 110 1 0 0 0 1 0 0 0 1 3062b.dat
1 70 350 -24 110 1 0 0 0 1 0 0 0 1 3062b.dat
1 70 350 -48 110 1 0 0 0 1 0 0 0 1 3062b.dat
1 70 350 -72 110 1 0 0 0 1 0 0 0 1 3062b.dat
1 70 350 -96 110 1 0 0 0 1 0 0 0 1 3062b.dat
1 70 250 -24 170 1 0 0 0 1 0 0 0 1 3062b.dat
1 70 250 -48 170 1 0 0 0 1 0 0 0 1 3062b.dat
1 70 250 -72 170 1 0 0 0 1 0 0 0 1 3062b.dat
1 70 250 -96 170 1 0 0 0 1 0 0 0 1 3062b.dat
1 70 350 -24 170 1 0 0 0 1 0 0 0 1 3062b.dat
1 70 350 -48 170 1 0 0 0 1 0 0 0 1 3062b.dat
1 70 350 -72 170 1 0 0 0 1 0 0 0 1 3062b.dat
1 70 350 -96 170 1 0 0 0 1 0 0 0 1 3062b.dat
1 70 300 -24 110 1 0 0 0 1 0 0 0 1 3010.dat
1 19 300 -32 110 1 0 0 0 1 0 0 0 1 3710.dat
0 STEP
1 70 300 -104 140 1 0 0 0 1 0 0 0 1 3032.dat
1 14 300 -112 110 1 0 0 0 1 0 0 0 1 6636.dat
1 288 300 -112 130 1 0 0 0 1 0 0 0 1 6636.dat
1 14 300 -112 150 1 0 0 0 1 0 0 0 1 6636.dat
1 288 300 -112 170 1 0 0 0 1 0 0 0 1 6636.dat
0 STEP
1 4 90 -32 110 1 0 0 0 1 0 0 0 1 33051.dat
1 27 110 -32 110 1 0 0 0 1 0 0 0 1 33051.dat
1 25 130 -32 110 1 0 0 0 1 0 0 0 1 33172.dat
1 4 150 -32 110 1 0 0 0 1 0 0 0 1 33051.dat
1 15 270 -32 110 1 0 0 0 1 0 0 0 1 3899.dat
1 297 290 -32 110 1 0 0 0 1 0 0 0 1 2343.dat
1 70 310 -32 110 1 0 0 0 1 0 0 0 1 33054.dat
1 15 330 -32 110 1 0 0 0 1 0 0 0 1 3899.dat
0 STEP
0 // Village well
1 1 560 -16 200 1 0 0 0 1 0 0 0 1 3068b.dat
1 71 560 -32 170 1 0 0 0 1 0 0 0 1 3010.dat
1 71 540 -32 230 1 0 0 0 1 0 0 0 1 98283.dat
1 71 580 -32 230 1 0 0 0 1 0 0 0 1 98283.dat
1 71 530 -32 200 0 0 1 0 1 0 -1 0 0 98283.dat
1 72 590 -32 200 0 0 1 0 1 0 -1 0 0 98283.dat
1 71 530 -56 180 0 0 1 0 1 0 -1 0 0 98283.dat
1 71 530 -56 220 0 0 1 0 1 0 -1 0 0 3004.dat
1 72 590 -56 200 0 0 1 0 1 0 -1 0 0 3010.dat
1 71 560 -56 170 1 0 0 0 1 0 0 0 1 3004.dat
1 71 560 -56 230 1 0 0 0 1 0 0 0 1 98283.dat
0 STEP
1 70 530 -80 190 1 0 0 0 1 0 0 0 1 3062b.dat
1 70 530 -104 190 1 0 0 0 1 0 0 0 1 3062b.dat
1 70 530 -128 190 1 0 0 0 1 0 0 0 1 3062b.dat
1 70 590 -80 190 1 0 0 0 1 0 0 0 1 3062b.dat
1 70 590 -104 190 1 0 0 0 1 0 0 0 1 3062b.dat
1 70 590 -128 190 1 0 0 0 1 0 0 0 1 3062b.dat
1 70 530 -80 210 1 0 0 0 1 0 0 0 1 3062b.dat
1 70 530 -104 210 1 0 0 0 1 0 0 0 1 3062b.dat
1 70 530 -128 210 1 0 0 0 1 0 0 0 1 3062b.dat
1 70 590 -80 210 1 0 0 0 1 0 0 0 1 3062b.dat
1 70 590 -104 210 1 0 0 0 1 0 0 0 1 3062b.dat
1 70 590 -128 210 1 0 0 0 1 0 0 0 1 3062b.dat
1 70 560 -136 200 1 0 0 0 1 0 0 0 1 3031.dat
1 70 560 -160 190 1 0 0 0 1 0 0 0 1 3037.dat
1 70 560 -160 210 -1 0 0 0 1 0 0 0 -1 3037.dat
0 STEP
1 70 540 -184 200 1 0 0 0 1 0 0 0 1 3043.dat
1 70 580 -184 200 1 0 0 0 1 0 0 0 1 3043.dat
0 STEP
0 // Farm field and fence
1 70 960 -8 60 1 0 0 0 1 0 0 0 1 3034.dat
1 70 1120 -8 60 1 0 0 0 1 0 0 0 1 3034.dat
1 308 960 -8 100 1 0 0 0 1 0 0 0 1 3034.dat
1 308 1120 -8 100 1 0 0 0 1 0 0 0 1 3034.dat
1 70 960 -8 140 1 0 0 0 1 0 0 0 1 3034.dat
1 70 1120 -8 140 1 0 0 0 1 0 0 0 1 3034.dat
1 308 960 -8 180 1 0 0 0 1 0 0 0 1 3034.dat
1 308 1120 -8 180 1 0 0 0 1 0 0 0 1 3034.dat
0 STEP
1 2 910 -16 85.8 1 0 0 0 1 0 0 0 1 32607.dat
1 2 950 -16 85.8 1 0 0 0 1 0 0 0 1 32607.dat
1 2 990 -16 85.8 1 0 0 0 1 0 0 0 1 32607.dat
1 2 1030 -16 85.8 1 0 0 0 1 0 0 0 1 32607.dat
1 2 1070 -16 85.8 1 0 0 0 1 0 0 0 1 32607.dat
1 2 1110 -16 85.8 1 0 0 0 1 0 0 0 1 32607.dat
1 2 1150 -16 85.8 1 0 0 0 1 0 0 0 1 32607.dat
1 2 1190 -16 85.8 1 0 0 0 1 0 0 0 1 32607.dat
1 10 910 -16 125.8 1 0 0 0 1 0 0 0 1 32607.dat
1 10 950 -16 125.8 1 0 0 0 1 0 0 0 1 32607.dat
1 10 990 -16 125.8 1 0 0 0 1 0 0 0 1 32607.dat
1 10 1030 -16 125.8 1 0 0 0 1 0 0 0 1 32607.dat
1 10 1070 -16 125.8 1 0 0 0 1 0 0 0 1 32607.dat
1 10 1110 -16 125.8 1 0 0 0 1 0 0 0 1 32607.dat
1 10 1150 -16 125.8 1 0 0 0 1 0 0 0 1 32607.dat
1 10 1190 -16 125.8 1 0 0 0 1 0 0 0 1 32607.dat
1 2 912 -16 152 1 0 0 0 1 0 0 0 1 33291.dat
1 2 952 -16 152 1 0 0 0 1 0 0 0 1 33291.dat
1 2 992 -16 152 1 0 0 0 1 0 0 0 1 33291.dat
1 2 1032 -16 152 1 0 0 0 1 0 0 0 1 33291.dat
0 STEP
1 10 910 -16 150 1 0 0 0 1 0 0 0 1 33183.dat
1 10 950 -16 150 1 0 0 0 1 0 0 0 1 33183.dat
1 10 990 -16 150 1 0 0 0 1 0 0 0 1 33183.dat
1 10 1030 -16 150 1 0 0 0 1 0 0 0 1 33183.dat
1 2 1072 -16 152 1 0 0 0 1 0 0 0 1 33291.dat
1 10 1070 -16 150 1 0 0 0 1 0 0 0 1 33183.dat
1 2 1112 -16 152 1 0 0 0 1 0 0 0 1 33291.dat
1 10 1110 -16 150 1 0 0 0 1 0 0 0 1 33183.dat
1 2 1152 -16 152 1 0 0 0 1 0 0 0 1 33291.dat
1 10 1150 -16 150 1 0 0 0 1 0 0 0 1 33183.dat
1 2 1192 -16 152 1 0 0 0 1 0 0 0 1 33291.dat
1 10 1190 -16 150 1 0 0 0 1 0 0 0 1 33183.dat
1 10 910 -16 205.8 1 0 0 0 1 0 0 0 1 32607.dat
1 10 950 -16 205.8 1 0 0 0 1 0 0 0 1 32607.dat
1 10 990 -16 205.8 1 0 0 0 1 0 0 0 1 32607.dat
1 10 1030 -16 205.8 1 0 0 0 1 0 0 0 1 32607.dat
1 10 1070 -16 205.8 1 0 0 0 1 0 0 0 1 32607.dat
1 10 1110 -16 205.8 1 0 0 0 1 0 0 0 1 32607.dat
1 10 1150 -16 205.8 1 0 0 0 1 0 0 0 1 32607.dat
1 10 1190 -16 205.8 1 0 0 0 1 0 0 0 1 32607.dat
0 STEP
1 70 920 -48 230 1 0 0 0 1 0 0 0 1 30055.dat
1 70 1000 -48 230 1 0 0 0 1 0 0 0 1 30055.dat
1 70 1080 -48 230 1 0 0 0 1 0 0 0 1 30055.dat
1 70 1160 -48 230 1 0 0 0 1 0 0 0 1 30055.dat
1 19 1240 -24 80 1 0 0 0 1 0 0 0 1 3003.dat
1 14 1240 -32 80 1 0 0 0 1 0 0 0 1 3068b.dat
1 19 1240 -24 140 1 0 0 0 1 0 0 0 1 3003.dat
1 14 1240 -32 140 1 0 0 0 1 0 0 0 1 3068b.dat
0 STEP
0 // Trees
1 2 260 -8 560 1 0 0 0 1 0 0 0 1 3471.dat
1 2 440 -8 60 1 0 0 0 1 0 0 0 1 3470.dat
1 288 820 -8 80 1 0 0 0 1 0 0 0 1 2435.dat
1 2 1260 -8 20 1 0 0 0 1 0 0 0 1 2435.dat
1 2 1000 -8 560 1 0 0 0 1 0 0 0 1 3470.dat
1 2 20 -8 40 1 0 0 0 1 0 0 0 1 3471.dat
1 288 680 -8 560 1 0 0 0 1 0 0 0 1 2435.dat
0 STEP
0 // The commoners' barricade
1 70 680 -48 280 1 0 0 0 1 0 0 0 1 2489.dat
1 70 680 -48 360 1 0 0 0 1 0 0 0 1 2489.dat
1 70 680 -32 320 1 0 0 0 1 0 0 0 1 3003.dat
1 308 680 -40 320 1 0 0 0 1 0 0 0 1 3068b.dat
1 70 710 -32 300 0 0 1 0 1 0 -1 0 0 30137.dat
1 308 710 -32 360 0 0 1 0 1 0 -1 0 0 30136.dat
1 308 710 -56 300 0 0 1 0 1 0 -1 0 0 30137.dat
1 70 710 -56 360 0 0 1 0 1 0 -1 0 0 30136.dat
0 STEP
0 // Gardens, flowers and bushes
1 4 52 -8 432 1 0 0 0 1 0 0 0 1 33291.dat
1 14 72 -8 412 1 0 0 0 1 0 0 0 1 33291.dat
1 15 212 -8 432 1 0 0 0 1 0 0 0 1 33291.dat
1 191 232 -8 412 1 0 0 0 1 0 0 0 1 33291.dat
1 322 272 -8 432 1 0 0 0 1 0 0 0 1 33291.dat
1 4 532 -8 432 1 0 0 0 1 0 0 0 1 33291.dat
1 14 552 -8 412 1 0 0 0 1 0 0 0 1 33291.dat
1 15 712 -8 432 1 0 0 0 1 0 0 0 1 33291.dat
1 191 732 -8 412 1 0 0 0 1 0 0 0 1 33291.dat
1 322 952 -8 432 1 0 0 0 1 0 0 0 1 33291.dat
1 4 972 -8 412 1 0 0 0 1 0 0 0 1 33291.dat
1 14 1032 -8 432 1 0 0 0 1 0 0 0 1 33291.dat
1 15 1252 -8 412 1 0 0 0 1 0 0 0 1 33291.dat
1 191 1272 -8 432 1 0 0 0 1 0 0 0 1 33291.dat
1 322 32 -8 232 1 0 0 0 1 0 0 0 1 33291.dat
1 4 52 -8 212 1 0 0 0 1 0 0 0 1 33291.dat
1 14 412 -8 192 1 0 0 0 1 0 0 0 1 33291.dat
1 15 452 -8 232 1 0 0 0 1 0 0 0 1 33291.dat
1 191 832 -8 192 1 0 0 0 1 0 0 0 1 33291.dat
1 322 852 -8 232 1 0 0 0 1 0 0 0 1 33291.dat
1 4 1212 -8 232 1 0 0 0 1 0 0 0 1 33291.dat
1 14 632 -8 72 1 0 0 0 1 0 0 0 1 33291.dat
1 15 672 -8 112 1 0 0 0 1 0 0 0 1 33291.dat
1 191 192 -8 32 1 0 0 0 1 0 0 0 1 33291.dat
0 STEP
1 10 590 -8 510 1 0 0 0 1 0 0 0 1 2423.dat
0 STEP
1 70 1010 -24 440 0 0 1 0 1 0 -1 0 0 30137.dat
1 70 1010 -48 440 0 0 1 0 1 0 -1 0 0 30137.dat
0 STEP
