0 Ravencrag Keep - Stronghold of House Corvane
0 Name: ravencrag.ldr
0 Author: Nobles & Common Folk at Quarrel generator
0 !LICENSE Redistributable under CCAL version 2.0 : see CAreadme.txt

0 // Baseplate, moat and courtyard paths
1 2 320 0 320 1 0 0 0 1 0 0 0 1 3811.dat
0 STEP
1 1 60 -8 80 0 0 1 0 1 0 -1 0 0 3035.dat
1 1 60 -8 240 0 0 1 0 1 0 -1 0 0 3035.dat
1 1 60 -8 400 0 0 1 0 1 0 -1 0 0 3035.dat
1 1 60 -8 560 0 0 1 0 1 0 -1 0 0 3035.dat
0 STEP
1 73 40 -16 60 1 0 0 0 1 0 0 0 1 3068b.dat
1 73 80 -16 140 1 0 0 0 1 0 0 0 1 3068b.dat
1 43 60 -16 200 1 0 0 0 1 0 0 0 1 3068b.dat
1 43 40 -16 440 1 0 0 0 1 0 0 0 1 3068b.dat
1 73 80 -16 500 1 0 0 0 1 0 0 0 1 3068b.dat
1 73 60 -16 580 1 0 0 0 1 0 0 0 1 3068b.dat
1 19 10 -8 320 0 0 1 0 1 0 -1 0 0 3666.dat
0 STEP
1 28 160 -8 320 1 0 0 0 1 0 0 0 1 3032.dat
1 28 300 -8 320 1 0 0 0 1 0 0 0 1 3035.dat
1 28 420 -8 340 1 0 0 0 1 0 0 0 1 3020.dat
0 STEP
0 // Gatehouse - lower level with gate passage
1 378 140 -24 230 1 0 0 0 1 0 0 0 1 3010.dat
1 378 200 -24 230 1 0 0 0 1 0 0 0 1 3004.dat
1 72 120 -24 410 1 0 0 0 1 0 0 0 1 3004.dat
1 72 180 -24 410 1 0 0 0 1 0 0 0 1 3010.dat
1 0 110 -24 260 0 0 1 0 1 0 -1 0 0 3004.dat
1 72 110 -24 380 0 0 1 0 1 0 -1 0 0 3004.dat
1 72 210 -24 260 0 0 1 0 1 0 -1 0 0 3004.dat
1 72 210 -24 380 0 0 1 0 1 0 -1 0 0 98283.dat
1 0 160 -24 270 1 0 0 0 1 0 0 0 1 3010.dat
1 72 160 -24 370 1 0 0 0 1 0 0 0 1 3010.dat
1 72 110 -48 240 0 0 1 0 1 0 -1 0 0 3004.dat
1 72 110 -48 270 0 0 1 0 1 0 -1 0 0 3005.dat
1 72 110 -48 380 0 0 1 0 1 0 -1 0 0 3004.dat
1 72 110 -48 410 0 0 1 0 1 0 -1 0 0 3005.dat
1 72 210 -48 250 0 0 1 0 1 0 -1 0 0 3622.dat
1 72 210 -48 390 0 0 1 0 1 0 -1 0 0 3622.dat
1 378 140 -48 230 1 0 0 0 1 0 0 0 1 3004.dat
1 72 180 -48 230 1 0 0 0 1 0 0 0 1 3004.dat
1 72 160 -48 410 1 0 0 0 1 0 0 0 1 3010.dat
1 72 140 -48 270 1 0 0 0 1 0 0 0 1 98283.dat
1 72 180 -48 270 1 0 0 0 1 0 0 0 1 3004.dat
1 72 140 -48 370 1 0 0 0 1 0 0 0 1 3004.dat
1 72 180 -48 370 1 0 0 0 1 0 0 0 1 3004.dat
0 STEP
1 72 140 -72 230 1 0 0 0 1 0 0 0 1 3010.dat
1 72 200 -72 230 1 0 0 0 1 0 0 0 1 98283.dat
1 0 120 -72 410 1 0 0 0 1 0 0 0 1 3004.dat
1 72 180 -72 410 1 0 0 0 1 0 0 0 1 3010.dat
1 72 110 -72 260 0 0 1 0 1 0 -1 0 0 98283.dat
1 72 110 -72 380 0 0 1 0 1 0 -1 0 0 3004.dat
1 0 210 -72 260 0 0 1 0 1 0 -1 0 0 3004.dat
1 72 210 -72 380 0 0 1 0 1 0 -1 0 0 98283.dat
1 72 160 -72 270 1 0 0 0 1 0 0 0 1 3010.dat
1 72 160 -72 370 1 0 0 0 1 0 0 0 1 3010.dat
1 72 110 -96 240 0 0 1 0 1 0 -1 0 0 98283.dat
1 72 110 -96 270 0 0 1 0 1 0 -1 0 0 3005.dat
1 72 110 -96 380 0 0 1 0 1 0 -1 0 0 3004.dat
1 0 110 -96 410 0 0 1 0 1 0 -1 0 0 3005.dat
1 72 210 -96 250 0 0 1 0 1 0 -1 0 0 3622.dat
1 72 210 -96 390 0 0 1 0 1 0 -1 0 0 3622.dat
1 71 140 -96 230 1 0 0 0 1 0 0 0 1 3004.dat
1 71 180 -96 230 1 0 0 0 1 0 0 0 1 98283.dat
1 378 160 -96 410 1 0 0 0 1 0 0 0 1 3010.dat
1 72 140 -96 270 1 0 0 0 1 0 0 0 1 3004.dat
1 72 180 -96 270 1 0 0 0 1 0 0 0 1 3004.dat
1 72 140 -96 370 1 0 0 0 1 0 0 0 1 3004.dat
1 0 180 -96 370 1 0 0 0 1 0 0 0 1 3004.dat
0 STEP
1 72 140 -120 230 1 0 0 0 1 0 0 0 1 3010.dat
1 378 200 -120 230 1 0 0 0 1 0 0 0 1 3004.dat
1 72 120 -120 410 1 0 0 0 1 0 0 0 1 3004.dat
1 72 180 -120 410 1 0 0 0 1 0 0 0 1 3010.dat
1 72 110 -120 260 0 0 1 0 1 0 -1 0 0 98283.dat
1 72 110 -120 380 0 0 1 0 1 0 -1 0 0 98283.dat
1 71 210 -120 260 0 0 1 0 1 0 -1 0 0 3004.dat
1 72 210 -120 380 0 0 1 0 1 0 -1 0 0 98283.dat
1 72 160 -120 270 1 0 0 0 1 0 0 0 1 3010.dat
1 72 160 -120 370 1 0 0 0 1 0 0 0 1 3010.dat
1 72 110 -144 240 0 0 1 0 1 0 -1 0 0 3004.dat
1 72 110 -144 270 0 0 1 0 1 0 -1 0 0 3005.dat
1 72 110 -144 380 0 0 1 0 1 0 -1 0 0 3004.dat
1 72 110 -144 410 0 0 1 0 1 0 -1 0 0 3005.dat
1 72 210 -144 250 0 0 1 0 1 0 -1 0 0 3622.dat
1 71 210 -144 390 0 0 1 0 1 0 -1 0 0 3622.dat
1 0 140 -144 230 1 0 0 0 1 0 0 0 1 3004.dat
1 72 180 -144 230 1 0 0 0 1 0 0 0 1 3004.dat
1 72 160 -144 410 1 0 0 0 1 0 0 0 1 3010.dat
1 0 140 -144 270 1 0 0 0 1 0 0 0 1 3004.dat
1 72 180 -144 270 1 0 0 0 1 0 0 0 1 98283.dat
1 72 140 -144 370 1 0 0 0 1 0 0 0 1 3004.dat
1 72 180 -144 370 1 0 0 0 1 0 0 0 1 3004.dat
0 STEP
1 0 140 -168 230 1 0 0 0 1 0 0 0 1 3010.dat
1 72 200 -168 230 1 0 0 0 1 0 0 0 1 3004.dat
1 72 120 -168 410 1 0 0 0 1 0 0 0 1 3004.dat
1 0 180 -168 410 1 0 0 0 1 0 0 0 1 3010.dat
1 72 110 -168 260 0 0 1 0 1 0 -1 0 0 3004.dat
1 72 110 -168 380 0 0 1 0 1 0 -1 0 0 3004.dat
1 72 210 -168 260 0 0 1 0 1 0 -1 0 0 98283.dat
1 72 210 -168 380 0 0 1 0 1 0 -1 0 0 3004.dat
1 72 160 -168 270 1 0 0 0 1 0 0 0 1 3010.dat
1 72 160 -168 370 1 0 0 0 1 0 0 0 1 3010.dat
1 72 110 -192 240 0 0 1 0 1 0 -1 0 0 3004.dat
1 72 110 -192 270 0 0 1 0 1 0 -1 0 0 3005.dat
1 72 110 -192 380 0 0 1 0 1 0 -1 0 0 3004.dat
1 72 110 -192 410 0 0 1 0 1 0 -1 0 0 3005.dat
1 72 210 -192 250 0 0 1 0 1 0 -1 0 0 3622.dat
1 72 210 -192 390 0 0 1 0 1 0 -1 0 0 3622.dat
1 72 140 -192 230 1 0 0 0 1 0 0 0 1 3004.dat
1 72 180 -192 230 1 0 0 0 1 0 0 0 1 3004.dat
1 72 160 -192 410 1 0 0 0 1 0 0 0 1 3010.dat
1 72 140 -192 270 1 0 0 0 1 0 0 0 1 3004.dat
1 72 180 -192 270 1 0 0 0 1 0 0 0 1 3004.dat
1 72 140 -192 370 1 0 0 0 1 0 0 0 1 3004.dat
1 72 180 -192 370 1 0 0 0 1 0 0 0 1 3004.dat
0 STEP
1 72 110 -216 320 0 0 1 0 1 0 -1 0 0 3455.dat
1 72 210 -216 320 0 0 1 0 1 0 -1 0 0 3455.dat
1 0 140 -216 230 1 0 0 0 1 0 0 0 1 3010.dat
1 72 200 -216 230 1 0 0 0 1 0 0 0 1 3004.dat
1 72 120 -216 410 1 0 0 0 1 0 0 0 1 3004.dat
1 72 180 -216 410 1 0 0 0 1 0 0 0 1 3010.dat
1 72 110 -216 250 0 0 1 0 1 0 -1 0 0 3005.dat
1 72 110 -216 390 0 0 1 0 1 0 -1 0 0 3005.dat
1 72 210 -216 250 0 0 1 0 1 0 -1 0 0 3005.dat
1 71 210 -216 390 0 0 1 0 1 0 -1 0 0 3005.dat
1 72 160 -216 270 1 0 0 0 1 0 0 0 1 3010.dat
1 72 160 -216 370 1 0 0 0 1 0 0 0 1 3010.dat
0 STEP
1 0 160 -224 320 0 0 1 0 1 0 -1 0 0 3035.dat
0 STEP
1 0 130 -216 320 0 0 1 0 1 0 -1 0 0 30055.dat
1 0 130 -168 320 0 0 1 0 1 0 -1 0 0 30055.dat
0 STEP
0 // Gatehouse - upper level, turrets and spires
1 72 110 -240 240 0 0 1 0 1 0 -1 0 0 3004.dat
1 72 110 -240 300 0 0 1 0 1 0 -1 0 0 3010.dat
1 72 110 -240 380 0 0 1 0 1 0 -1 0 0 3010.dat
1 72 210 -240 260 0 0 1 0 1 0 -1 0 0 3010.dat
1 72 210 -240 360 0 0 1 0 1 0 -1 0 0 3009.dat
1 72 140 -240 230 1 0 0 0 1 0 0 0 1 98283.dat
1 72 180 -240 230 1 0 0 0 1 0 0 0 1 3004.dat
1 72 160 -240 410 1 0 0 0 1 0 0 0 1 3010.dat
1 72 110 -304 300 0 0 1 0 1 0 -1 0 0 30044.dat
1 0 102 -272.75 296.75 0 0 1 0 1 0 -1 0 0 30046.dat
1 72 110 -312 300 0 0 1 0 1 0 -1 0 0 3023.dat
1 72 110 -304 340 0 0 1 0 1 0 -1 0 0 30044.dat
1 0 102 -272.75 336.75 0 0 1 0 1 0 -1 0 0 30046.dat
1 72 110 -312 340 0 0 1 0 1 0 -1 0 0 3023.dat
1 72 140 -264 230 1 0 0 0 1 0 0 0 1 3010.dat
1 72 200 -264 230 1 0 0 0 1 0 0 0 1 98283.dat
1 72 120 -264 410 1 0 0 0 1 0 0 0 1 3004.dat
1 0 180 -264 410 1 0 0 0 1 0 0 0 1 3010.dat
1 72 110 -264 260 0 0 1 0 1 0 -1 0 0 3004.dat
1 72 110 -264 380 0 0 1 0 1 0 -1 0 0 3004.dat
1 72 210 -264 260 0 0 1 0 1 0 -1 0 0 98283.dat
1 0 210 -264 340 0 0 1 0 1 0 -1 0 0 3009.dat
0 STEP
1 72 110 -288 240 0 0 1 0 1 0 -1 0 0 3004.dat
1 72 110 -288 270 0 0 1 0 1 0 -1 0 0 3005.dat
1 0 110 -288 380 0 0 1 0 1 0 -1 0 0 3004.dat
1 72 110 -288 410 0 0 1 0 1 0 -1 0 0 3005.dat
1 72 210 -288 260 0 0 1 0 1 0 -1 0 0 3010.dat
1 72 210 -288 360 0 0 1 0 1 0 -1 0 0 3009.dat
1 72 140 -288 230 1 0 0 0 1 0 0 0 1 98283.dat
1 71 180 -288 230 1 0 0 0 1 0 0 0 1 3004.dat
1 72 160 -288 410 1 0 0 0 1 0 0 0 1 3010.dat
1 378 140 -312 230 1 0 0 0 1 0 0 0 1 3010.dat
1 71 200 -312 230 1 0 0 0 1 0 0 0 1 98283.dat
1 72 120 -312 410 1 0 0 0 1 0 0 0 1 3004.dat
1 72 180 -312 410 1 0 0 0 1 0 0 0 1 3010.dat
1 72 110 -312 260 0 0 1 0 1 0 -1 0 0 3004.dat
1 72 110 -312 380 0 0 1 0 1 0 -1 0 0 3004.dat
1 72 210 -312 260 0 0 1 0 1 0 -1 0 0 3004.dat
1 72 210 -312 340 0 0 1 0 1 0 -1 0 0 3009.dat
0 STEP
1 72 110 -336 240 0 0 1 0 1 0 -1 0 0 98283.dat
1 72 110 -336 300 0 0 1 0 1 0 -1 0 0 3010.dat
1 72 110 -336 380 0 0 1 0 1 0 -1 0 0 3010.dat
1 0 210 -336 260 0 0 1 0 1 0 -1 0 0 3010.dat
1 72 210 -336 360 0 0 1 0 1 0 -1 0 0 3009.dat
1 72 140 -336 230 1 0 0 0 1 0 0 0 1 98283.dat
1 72 180 -336 230 1 0 0 0 1 0 0 0 1 3004.dat
1 0 160 -336 410 1 0 0 0 1 0 0 0 1 3010.dat
1 72 140 -360 230 1 0 0 0 1 0 0 0 1 3010.dat
1 72 200 -360 230 1 0 0 0 1 0 0 0 1 3004.dat
1 72 120 -360 410 1 0 0 0 1 0 0 0 1 3004.dat
1 72 180 -360 410 1 0 0 0 1 0 0 0 1 3010.dat
1 71 110 -360 280 0 0 1 0 1 0 -1 0 0 3010.dat
1 378 110 -360 360 0 0 1 0 1 0 -1 0 0 3010.dat
1 378 210 -360 260 0 0 1 0 1 0 -1 0 0 3004.dat
1 72 210 -360 340 0 0 1 0 1 0 -1 0 0 3009.dat
0 STEP
1 72 110 -384 240 0 0 1 0 1 0 -1 0 0 3004.dat
1 72 110 -384 300 0 0 1 0 1 0 -1 0 0 3010.dat
1 72 110 -384 380 0 0 1 0 1 0 -1 0 0 3010.dat
1 72 210 -384 260 0 0 1 0 1 0 -1 0 0 3010.dat
1 72 210 -384 360 0 0 1 0 1 0 -1 0 0 3009.dat
1 72 140 -384 230 1 0 0 0 1 0 0 0 1 98283.dat
1 72 180 -384 230 1 0 0 0 1 0 0 0 1 98283.dat
1 72 160 -384 410 1 0 0 0 1 0 0 0 1 3010.dat
0 STEP
1 0 160 -392 320 0 0 1 0 1 0 -1 0 0 3033.dat
0 STEP
1 72 150 -416 230 1 0 0 0 1 0 0 0 1 3005.dat
1 72 150 -424 230 1 0 0 0 1 0 0 0 1 3070b.dat
1 72 190 -416 230 1 0 0 0 1 0 0 0 1 3005.dat
1 72 190 -424 230 1 0 0 0 1 0 0 0 1 3070b.dat
1 72 150 -416 410 1 0 0 0 1 0 0 0 1 3005.dat
1 72 150 -424 410 1 0 0 0 1 0 0 0 1 3070b.dat
1 72 190 -416 410 1 0 0 0 1 0 0 0 1 3005.dat
1 72 190 -424 410 1 0 0 0 1 0 0 0 1 3070b.dat
1 72 210 -416 250 0 0 1 0 1 0 -1 0 0 3005.dat
1 72 210 -424 250 0 0 1 0 1 0 -1 0 0 3070b.dat
1 72 210 -416 290 0 0 1 0 1 0 -1 0 0 3005.dat
1 72 210 -424 290 0 0 1 0 1 0 -1 0 0 3070b.dat
1 72 210 -416 330 0 0 1 0 1 0 -1 0 0 3005.dat
1 72 210 -424 330 0 0 1 0 1 0 -1 0 0 3070b.dat
1 72 210 -416 370 0 0 1 0 1 0 -1 0 0 3005.dat
1 72 210 -424 370 0 0 1 0 1 0 -1 0 0 3070b.dat
1 72 110 -416 270 0 0 1 0 1 0 -1 0 0 3005.dat
1 72 110 -424 270 0 0 1 0 1 0 -1 0 0 3070b.dat
1 72 110 -416 310 0 0 1 0 1 0 -1 0 0 3005.dat
1 72 110 -424 310 0 0 1 0 1 0 -1 0 0 3070b.dat
1 72 110 -416 350 0 0 1 0 1 0 -1 0 0 3005.dat
1 72 110 -424 350 0 0 1 0 1 0 -1 0 0 3070b.dat
0 STEP
1 72 120 -416 240 1 0 0 0 1 0 0 0 1 3941.dat
1 72 120 -440 240 1 0 0 0 1 0 0 0 1 3941.dat
1 72 120 -464 240 1 0 0 0 1 0 0 0 1 3941.dat
1 272 120 -512 240 1 0 0 0 1 0 0 0 1 3688.dat
1 70 120 -536 240 1 0 0 0 1 0 0 0 1 3062b.dat
1 272 120 -560 240 1 0 0 0 1 0 0 0 1 4495b.dat
1 297 120 -584 240 1 0 0 0 1 0 0 0 1 4589.dat
1 72 120 -416 400 1 0 0 0 1 0 0 0 1 3941.dat
1 72 120 -440 400 1 0 0 0 1 0 0 0 1 3941.dat
1 72 120 -464 400 1 0 0 0 1 0 0 0 1 3941.dat
1 272 120 -512 400 1 0 0 0 1 0 0 0 1 3688.dat
1 70 120 -536 400 1 0 0 0 1 0 0 0 1 3062b.dat
1 272 120 -560 400 1 0 0 0 1 0 0 0 1 4495b.dat
1 297 120 -584 400 1 0 0 0 1 0 0 0 1 4589.dat
0 STEP
0 // Great Keep - sloped plinth and entrance
1 72 590 -24 450 1 0 0 0 1 0 0 0 1 3045.dat
1 72 450 -24 450 0 0 1 0 1 0 -1 0 0 3045.dat
1 72 450 -24 590 -1 0 0 0 1 0 0 0 -1 3045.dat
1 72 590 -24 590 0 0 -1 0 1 0 1 0 0 3045.dat
1 72 500 -24 450 1 0 0 0 1 0 0 0 1 3037.dat
1 72 560 -24 450 1 0 0 0 1 0 0 0 1 3039.dat
1 72 500 -24 590 -1 0 0 0 1 0 0 0 -1 3037.dat
1 72 560 -24 590 -1 0 0 0 1 0 0 0 -1 3039.dat
1 72 450 -24 470 0 0 1 0 1 0 -1 0 0 3040b.dat
1 72 450 -24 570 0 0 1 0 1 0 -1 0 0 3040b.dat
1 72 590 -24 500 0 0 -1 0 1 0 1 0 0 3037.dat
1 72 590 -24 560 0 0 -1 0 1 0 1 0 0 3039.dat
1 72 440 -24 520 0 0 1 0 1 0 -1 0 0 3001.dat
0 STEP
1 0 450 -168 520 0 0 1 0 1 0 -1 0 0 60596.dat
1 308 443.75 -160.75 547 0 0 1 0 1 0 -1 0 0 60616a.dat
1 72 390 -8 520 0 0 1 0 1 0 -1 0 0 3710.dat
1 72 410 -8 520 0 0 1 0 1 0 -1 0 0 3710.dat
1 72 410 -16 520 0 0 1 0 1 0 -1 0 0 3710.dat
0 STEP
0 // Great Keep - walls
1 0 500 -304 450 1 0 0 0 1 0 0 0 1 30044.dat
1 0 496.75 -272.75 442 1 0 0 0 1 0 0 0 1 30046.dat
1 0 560 -304 450 1 0 0 0 1 0 0 0 1 30044.dat
1 0 556.75 -272.75 442 1 0 0 0 1 0 0 0 1 30046.dat
1 72 450 -48 460 0 0 1 0 1 0 -1 0 0 3004.dat
1 72 450 -48 580 0 0 1 0 1 0 -1 0 0 3004.dat
1 72 590 -48 480 0 0 1 0 1 0 -1 0 0 3010.dat
1 72 590 -48 560 0 0 1 0 1 0 -1 0 0 3010.dat
1 72 480 -48 450 1 0 0 0 1 0 0 0 1 3004.dat
1 72 540 -48 450 1 0 0 0 1 0 0 0 1 3010.dat
1 0 500 -48 590 1 0 0 0 1 0 0 0 1 3010.dat
1 72 560 -48 590 1 0 0 0 1 0 0 0 1 3004.dat
1 72 480 -72 450 1 0 0 0 1 0 0 0 1 3010.dat
1 72 560 -72 450 1 0 0 0 1 0 0 0 1 3010.dat
1 72 460 -72 590 1 0 0 0 1 0 0 0 1 3004.dat
1 71 540 -72 590 1 0 0 0 1 0 0 0 1 3009.dat
1 71 450 -72 470 0 0 1 0 1 0 -1 0 0 3005.dat
1 72 450 -72 570 0 0 1 0 1 0 -1 0 0 3005.dat
1 72 590 -72 480 0 0 1 0 1 0 -1 0 0 98283.dat
1 0 590 -72 540 0 0 1 0 1 0 -1 0 0 3010.dat
0 STEP
1 72 500 -312 450 1 0 0 0 1 0 0 0 1 3023.dat
1 72 560 -312 450 1 0 0 0 1 0 0 0 1 3023.dat
1 0 450 -352 500 0 0 1 0 1 0 -1 0 0 30044.dat
1 0 442 -320.75 496.75 0 0 1 0 1 0 -1 0 0 30046.dat
1 72 450 -360 500 0 0 1 0 1 0 -1 0 0 3023.dat
1 0 450 -352 560 0 0 1 0 1 0 -1 0 0 30044.dat
1 0 442 -320.75 556.75 0 0 1 0 1 0 -1 0 0 30046.dat
1 72 450 -360 560 0 0 1 0 1 0 -1 0 0 3023.dat
1 0 520 -424 450 1 0 0 0 1 0 0 0 1 30044.dat
1 0 516.75 -392.75 442 1 0 0 0 1 0 0 0 1 30046.dat
1 72 520 -432 450 1 0 0 0 1 0 0 0 1 3023.dat
1 0 450 -424 520 0 0 1 0 1 0 -1 0 0 30044.dat
1 0 442 -392.75 516.75 0 0 1 0 1 0 -1 0 0 30046.dat
1 72 450 -432 520 0 0 1 0 1 0 -1 0 0 3023.dat
1 0 520 -424 590 -1 0 0 0 1 0 0 0 -1 30044.dat
1 0 516.75 -392.75 582 -1 0 0 0 1 0 0 0 -1 30046.dat
1 72 520 -432 590 1 0 0 0 1 0 0 0 1 3023.dat
1 0 590 -424 520 0 0 -1 0 1 0 1 0 0 30044.dat
1 0 582 -392.75 516.75 0 0 -1 0 1 0 1 0 0 30046.dat
1 72 590 -432 520 0 0 1 0 1 0 -1 0 0 3023.dat
0 STEP
1 72 450 -96 460 0 0 1 0 1 0 -1 0 0 98283.dat
1 72 450 -96 580 0 0 1 0 1 0 -1 0 0 98283.dat
1 72 590 -96 480 0 0 1 0 1 0 -1 0 0 3010.dat
1 71 590 -96 560 0 0 1 0 1 0 -1 0 0 3010.dat
1 72 480 -96 450 1 0 0 0 1 0 0 0 1 3004.dat
1 72 540 -96 450 1 0 0 0 1 0 0 0 1 3010.dat
1 72 500 -96 590 1 0 0 0 1 0 0 0 1 3010.dat
1 72 560 -96 590 1 0 0 0 1 0 0 0 1 3004.dat
1 72 480 -120 450 1 0 0 0 1 0 0 0 1 3010.dat
1 72 560 -120 450 1 0 0 0 1 0 0 0 1 3010.dat
1 72 460 -120 590 1 0 0 0 1 0 0 0 1 3004.dat
1 72 490 -120 590 1 0 0 0 1 0 0 0 1 3005.dat
1 72 540 -120 590 1 0 0 0 1 0 0 0 1 3004.dat
1 72 580 -120 590 1 0 0 0 1 0 0 0 1 3004.dat
1 72 450 -120 470 0 0 1 0 1 0 -1 0 0 3005.dat
1 72 450 -120 570 0 0 1 0 1 0 -1 0 0 3005.dat
1 72 590 -120 480 0 0 1 0 1 0 -1 0 0 3004.dat
1 72 590 -120 540 0 0 1 0 1 0 -1 0 0 98283.dat
1 72 590 -120 570 0 0 1 0 1 0 -1 0 0 3005.dat
0 STEP
1 71 450 -144 460 0 0 1 0 1 0 -1 0 0 98283.dat
1 72 450 -144 580 0 0 1 0 1 0 -1 0 0 3004.dat
1 72 590 -144 470 0 0 1 0 1 0 -1 0 0 3622.dat
1 72 590 -144 560 0 0 1 0 1 0 -1 0 0 3010.dat
1 72 480 -144 450 1 0 0 0 1 0 0 0 1 3004.dat
1 72 540 -144 450 1 0 0 0 1 0 0 0 1 3010.dat
1 72 480 -144 590 1 0 0 0 1 0 0 0 1 3004.dat
1 0 550 -144 590 1 0 0 0 1 0 0 0 1 3622.dat
1 72 480 -168 450 1 0 0 0 1 0 0 0 1 3010.dat
1 72 560 -168 450 1 0 0 0 1 0 0 0 1 3010.dat
1 71 460 -168 590 1 0 0 0 1 0 0 0 1 3004.dat
1 72 540 -168 590 1 0 0 0 1 0 0 0 1 3009.dat
1 71 450 -168 470 0 0 1 0 1 0 -1 0 0 3005.dat
1 71 450 -168 570 0 0 1 0 1 0 -1 0 0 3005.dat
1 72 590 -168 480 0 0 1 0 1 0 -1 0 0 3004.dat
1 72 590 -168 540 0 0 1 0 1 0 -1 0 0 3010.dat
0 STEP
1 72 450 -192 460 0 0 1 0 1 0 -1 0 0 3004.dat
1 72 450 -192 540 0 0 1 0 1 0 -1 0 0 3009.dat
1 71 590 -192 480 0 0 1 0 1 0 -1 0 0 3010.dat
1 72 590 -192 560 0 0 1 0 1 0 -1 0 0 3010.dat
1 72 480 -192 450 1 0 0 0 1 0 0 0 1 98283.dat
1 72 510 -192 450 1 0 0 0 1 0 0 0 1 3005.dat
1 71 560 -192 450 1 0 0 0 1 0 0 0 1 3004.dat
1 0 500 -192 590 1 0 0 0 1 0 0 0 1 3010.dat
1 72 560 -192 590 1 0 0 0 1 0 0 0 1 3004.dat
1 72 480 -216 450 1 0 0 0 1 0 0 0 1 3010.dat
1 72 570 -216 450 1 0 0 0 1 0 0 0 1 3622.dat
1 0 460 -216 590 1 0 0 0 1 0 0 0 1 3004.dat
1 72 540 -216 590 1 0 0 0 1 0 0 0 1 3009.dat
1 72 450 -216 500 0 0 1 0 1 0 -1 0 0 3010.dat
1 72 450 -216 560 0 0 1 0 1 0 -1 0 0 98283.dat
1 71 590 -216 480 0 0 1 0 1 0 -1 0 0 98283.dat
1 72 590 -216 540 0 0 1 0 1 0 -1 0 0 3010.dat
0 STEP
1 72 450 -240 460 0 0 1 0 1 0 -1 0 0 3004.dat
1 72 450 -240 540 0 0 1 0 1 0 -1 0 0 3009.dat
1 72 590 -240 480 0 0 1 0 1 0 -1 0 0 3010.dat
1 72 590 -240 560 0 0 1 0 1 0 -1 0 0 3010.dat
1 72 480 -240 450 1 0 0 0 1 0 0 0 1 3004.dat
1 72 540 -240 450 1 0 0 0 1 0 0 0 1 3010.dat
1 72 500 -240 590 1 0 0 0 1 0 0 0 1 3010.dat
1 72 560 -240 590 1 0 0 0 1 0 0 0 1 3004.dat
1 72 460 -264 450 1 0 0 0 1 0 0 0 1 3004.dat
1 72 530 -264 450 1 0 0 0 1 0 0 0 1 3005.dat
1 72 590 -264 450 1 0 0 0 1 0 0 0 1 3005.dat
1 72 460 -264 590 1 0 0 0 1 0 0 0 1 3004.dat
1 0 540 -264 590 1 0 0 0 1 0 0 0 1 3009.dat
1 72 450 -264 500 0 0 1 0 1 0 -1 0 0 3010.dat
1 72 450 -264 560 0 0 1 0 1 0 -1 0 0 3004.dat
1 72 590 -264 480 0 0 1 0 1 0 -1 0 0 98283.dat
1 72 590 -264 510 0 0 1 0 1 0 -1 0 0 3005.dat
1 71 590 -264 560 0 0 1 0 1 0 -1 0 0 3004.dat
0 STEP
1 72 450 -288 460 0 0 1 0 1 0 -1 0 0 3004.dat
1 72 450 -288 540 0 0 1 0 1 0 -1 0 0 3009.dat
1 72 590 -288 480 0 0 1 0 1 0 -1 0 0 3010.dat
1 72 590 -288 570 0 0 1 0 1 0 -1 0 0 3622.dat
1 72 470 -288 450 1 0 0 0 1 0 0 0 1 3005.dat
1 71 530 -288 450 1 0 0 0 1 0 0 0 1 3005.dat
1 72 500 -288 590 1 0 0 0 1 0 0 0 1 3010.dat
1 0 560 -288 590 1 0 0 0 1 0 0 0 1 3004.dat
1 72 460 -312 450 1 0 0 0 1 0 0 0 1 3004.dat
1 72 530 -312 450 1 0 0 0 1 0 0 0 1 3005.dat
1 71 590 -312 450 1 0 0 0 1 0 0 0 1 3005.dat
1 71 460 -312 590 1 0 0 0 1 0 0 0 1 98283.dat
1 72 540 -312 590 1 0 0 0 1 0 0 0 1 3009.dat
1 72 450 -312 470 0 0 1 0 1 0 -1 0 0 3005.dat
1 72 450 -312 530 0 0 1 0 1 0 -1 0 0 3005.dat
1 72 590 -312 480 0 0 1 0 1 0 -1 0 0 3004.dat
1 72 590 -312 540 0 0 1 0 1 0 -1 0 0 3010.dat
0 STEP
1 72 450 -336 460 0 0 1 0 1 0 -1 0 0 98283.dat
1 72 450 -336 530 0 0 1 0 1 0 -1 0 0 3005.dat
1 0 450 -336 590 0 0 1 0 1 0 -1 0 0 3005.dat
1 72 590 -336 480 0 0 1 0 1 0 -1 0 0 3010.dat
1 72 590 -336 560 0 0 1 0 1 0 -1 0 0 3010.dat
1 72 480 -336 450 1 0 0 0 1 0 0 0 1 98283.dat
1 72 540 -336 450 1 0 0 0 1 0 0 0 1 3010.dat
1 72 500 -336 590 1 0 0 0 1 0 0 0 1 3010.dat
1 71 560 -336 590 1 0 0 0 1 0 0 0 1 3004.dat
1 72 480 -360 450 1 0 0 0 1 0 0 0 1 3010.dat
1 72 560 -360 450 1 0 0 0 1 0 0 0 1 3010.dat
1 72 460 -360 590 1 0 0 0 1 0 0 0 1 3004.dat
1 72 540 -360 590 1 0 0 0 1 0 0 0 1 3009.dat
1 72 450 -360 470 0 0 1 0 1 0 -1 0 0 3005.dat
1 72 450 -360 530 0 0 1 0 1 0 -1 0 0 3005.dat
1 71 590 -360 480 0 0 1 0 1 0 -1 0 0 98283.dat
1 72 590 -360 540 0 0 1 0 1 0 -1 0 0 3010.dat
0 STEP
1 72 450 -384 460 0 0 1 0 1 0 -1 0 0 3004.dat
1 72 450 -384 490 0 0 1 0 1 0 -1 0 0 3005.dat
1 72 450 -384 560 0 0 1 0 1 0 -1 0 0 3004.dat
1 72 450 -384 590 0 0 1 0 1 0 -1 0 0 3005.dat
1 72 590 -384 470 0 0 1 0 1 0 -1 0 0 3622.dat
1 72 590 -384 570 0 0 1 0 1 0 -1 0 0 3622.dat
1 72 480 -384 450 1 0 0 0 1 0 0 0 1 98283.dat
1 72 560 -384 450 1 0 0 0 1 0 0 0 1 98283.dat
1 0 480 -384 590 1 0 0 0 1 0 0 0 1 3004.dat
1 72 560 -384 590 1 0 0 0 1 0 0 0 1 3004.dat
1 72 470 -408 450 1 0 0 0 1 0 0 0 1 3622.dat
1 72 570 -408 450 1 0 0 0 1 0 0 0 1 3622.dat
1 72 460 -408 590 1 0 0 0 1 0 0 0 1 3004.dat
1 72 490 -408 590 1 0 0 0 1 0 0 0 1 3005.dat
1 72 560 -408 590 1 0 0 0 1 0 0 0 1 3004.dat
1 71 590 -408 590 1 0 0 0 1 0 0 0 1 3005.dat
1 72 450 -408 480 0 0 1 0 1 0 -1 0 0 3004.dat
1 72 450 -408 560 0 0 1 0 1 0 -1 0 0 98283.dat
1 72 590 -408 480 0 0 1 0 1 0 -1 0 0 3004.dat
1 71 590 -408 560 0 0 1 0 1 0 -1 0 0 3004.dat
0 STEP
1 72 450 -432 460 0 0 1 0 1 0 -1 0 0 3004.dat
1 71 450 -432 490 0 0 1 0 1 0 -1 0 0 3005.dat
1 72 450 -432 560 0 0 1 0 1 0 -1 0 0 3004.dat
1 72 450 -432 590 0 0 1 0 1 0 -1 0 0 3005.dat
1 72 590 -432 470 0 0 1 0 1 0 -1 0 0 3622.dat
1 72 590 -432 570 0 0 1 0 1 0 -1 0 0 3622.dat
1 72 480 -432 450 1 0 0 0 1 0 0 0 1 98283.dat
1 72 560 -432 450 1 0 0 0 1 0 0 0 1 98283.dat
1 72 480 -432 590 1 0 0 0 1 0 0 0 1 3004.dat
1 72 560 -432 590 1 0 0 0 1 0 0 0 1 3004.dat
1 72 470 -456 450 1 0 0 0 1 0 0 0 1 3665a.dat
1 72 450 -456 470 0 0 1 0 1 0 -1 0 0 3665a.dat
1 72 510 -456 450 1 0 0 0 1 0 0 0 1 3665a.dat
1 72 550 -456 450 1 0 0 0 1 0 0 0 1 3665a.dat
1 72 450 -456 450 1 0 0 0 1 0 0 0 1 3005.dat
1 72 490 -456 450 1 0 0 0 1 0 0 0 1 3005.dat
1 0 530 -456 450 1 0 0 0 1 0 0 0 1 3005.dat
1 72 580 -456 450 1 0 0 0 1 0 0 0 1 98283.dat
0 STEP
1 72 470 -456 590 -1 0 0 0 1 0 0 0 -1 3665a.dat
1 72 590 -456 470 0 0 -1 0 1 0 1 0 0 3665a.dat
1 72 510 -456 590 -1 0 0 0 1 0 0 0 -1 3665a.dat
1 72 450 -456 510 0 0 1 0 1 0 -1 0 0 3665a.dat
1 72 590 -456 510 0 0 -1 0 1 0 1 0 0 3665a.dat
1 72 550 -456 590 -1 0 0 0 1 0 0 0 -1 3665a.dat
1 72 450 -456 550 0 0 1 0 1 0 -1 0 0 3665a.dat
1 72 590 -456 550 0 0 -1 0 1 0 1 0 0 3665a.dat
1 72 450 -456 590 1 0 0 0 1 0 0 0 1 3005.dat
1 72 490 -456 590 1 0 0 0 1 0 0 0 1 3005.dat
1 71 530 -456 590 1 0 0 0 1 0 0 0 1 3005.dat
1 72 580 -456 590 1 0 0 0 1 0 0 0 1 3004.dat
1 72 450 -456 490 0 0 1 0 1 0 -1 0 0 3005.dat
1 72 450 -456 530 0 0 1 0 1 0 -1 0 0 3005.dat
1 72 450 -456 570 0 0 1 0 1 0 -1 0 0 3005.dat
1 72 590 -456 490 0 0 1 0 1 0 -1 0 0 3005.dat
1 72 590 -456 530 0 0 1 0 1 0 -1 0 0 3005.dat
1 71 590 -456 570 0 0 1 0 1 0 -1 0 0 3005.dat
0 STEP
0 // Great Keep - roof and spire
1 0 500 -464 500 1 0 0 0 1 0 0 0 1 41539.dat
1 0 600 -464 520 0 0 1 0 1 0 -1 0 0 3832.dat
1 0 500 -464 600 1 0 0 0 1 0 0 0 1 3034.dat
0 STEP
1 272 590 -488 450 1 0 0 0 1 0 0 0 1 3045.dat
1 272 450 -488 450 0 0 1 0 1 0 -1 0 0 3045.dat
1 272 450 -488 590 -1 0 0 0 1 0 0 0 -1 3045.dat
1 272 590 -488 590 0 0 -1 0 1 0 1 0 0 3045.dat
1 272 500 -488 450 1 0 0 0 1 0 0 0 1 3037.dat
1 272 560 -488 450 1 0 0 0 1 0 0 0 1 3039.dat
1 272 500 -488 590 -1 0 0 0 1 0 0 0 -1 3037.dat
1 272 560 -488 590 -1 0 0 0 1 0 0 0 -1 3039.dat
1 272 450 -488 500 0 0 1 0 1 0 -1 0 0 3037.dat
1 272 450 -488 560 0 0 1 0 1 0 -1 0 0 3039.dat
1 272 590 -488 500 0 0 -1 0 1 0 1 0 0 3037.dat
1 272 590 -488 560 0 0 -1 0 1 0 1 0 0 3039.dat
0 STEP
1 272 570 -512 470 1 0 0 0 1 0 0 0 1 3045.dat
1 272 470 -512 470 0 0 1 0 1 0 -1 0 0 3045.dat
1 272 470 -512 570 -1 0 0 0 1 0 0 0 -1 3045.dat
1 272 570 -512 570 0 0 -1 0 1 0 1 0 0 3045.dat
1 272 520 -512 470 1 0 0 0 1 0 0 0 1 3037.dat
1 272 520 -512 570 -1 0 0 0 1 0 0 0 -1 3037.dat
1 272 470 -512 520 0 0 1 0 1 0 -1 0 0 3037.dat
1 272 570 -512 520 0 0 -1 0 1 0 1 0 0 3037.dat
0 STEP
1 272 550 -536 490 1 0 0 0 1 0 0 0 1 3045.dat
1 272 490 -536 490 0 0 1 0 1 0 -1 0 0 3045.dat
1 272 490 -536 550 -1 0 0 0 1 0 0 0 -1 3045.dat
1 272 550 -536 550 0 0 -1 0 1 0 1 0 0 3045.dat
1 272 520 -536 490 1 0 0 0 1 0 0 0 1 3039.dat
1 272 520 -536 550 -1 0 0 0 1 0 0 0 -1 3039.dat
1 272 490 -536 520 0 0 1 0 1 0 -1 0 0 3039.dat
1 272 550 -536 520 0 0 -1 0 1 0 1 0 0 3039.dat
0 STEP
1 272 530 -560 510 1 0 0 0 1 0 0 0 1 3045.dat
1 272 510 -560 510 0 0 1 0 1 0 -1 0 0 3045.dat
1 272 510 -560 530 -1 0 0 0 1 0 0 0 -1 3045.dat
1 272 530 -560 530 0 0 -1 0 1 0 1 0 0 3045.dat
0 STEP
1 272 520 -608 520 1 0 0 0 1 0 0 0 1 3688.dat
1 70 520 -632 520 1 0 0 0 1 0 0 0 1 3062b.dat
1 70 520 -656 520 1 0 0 0 1 0 0 0 1 3062b.dat
1 272 520 -680 520 1 0 0 0 1 0 0 0 1 4495b.dat
1 297 520 -704 520 1 0 0 0 1 0 0 0 1 4589.dat
0 STEP
0 // South-east tower
1 72 560 -208 130 -1 0 0 0 1 0 0 0 -1 30044.dat
1 0 556.75 -176.75 122 -1 0 0 0 1 0 0 0 -1 30046.dat
1 72 560 -216 130 1 0 0 0 1 0 0 0 1 3023.dat
1 72 510 -208 100 0 0 1 0 1 0 -1 0 0 30044.dat
1 0 502 -176.75 96.75 0 0 1 0 1 0 -1 0 0 30046.dat
1 72 510 -216 100 0 0 1 0 1 0 -1 0 0 3023.dat
1 378 540 -24 30 1 0 0 0 1 0 0 0 1 3010.dat
1 0 600 -24 30 1 0 0 0 1 0 0 0 1 3004.dat
1 378 520 -24 130 1 0 0 0 1 0 0 0 1 3004.dat
1 0 580 -24 130 1 0 0 0 1 0 0 0 1 3010.dat
1 0 510 -24 80 0 0 1 0 1 0 -1 0 0 3010.dat
1 0 610 -24 60 0 0 1 0 1 0 -1 0 0 3004.dat
1 0 610 -24 100 0 0 1 0 1 0 -1 0 0 3004.dat
1 0 510 -48 40 0 0 1 0 1 0 -1 0 0 3004.dat
1 72 510 -48 100 0 0 1 0 1 0 -1 0 0 3010.dat
1 72 610 -48 60 0 0 1 0 1 0 -1 0 0 3010.dat
1 72 610 -48 120 0 0 1 0 1 0 -1 0 0 98283.dat
1 72 540 -48 30 1 0 0 0 1 0 0 0 1 98283.dat
1 72 580 -48 30 1 0 0 0 1 0 0 0 1 3004.dat
1 0 560 -48 130 1 0 0 0 1 0 0 0 1 3010.dat
0 STEP
1 72 540 -72 30 1 0 0 0 1 0 0 0 1 3010.dat
1 72 600 -72 30 1 0 0 0 1 0 0 0 1 3004.dat
1 72 520 -72 130 1 0 0 0 1 0 0 0 1 3004.dat
1 72 580 -72 130 1 0 0 0 1 0 0 0 1 3010.dat
1 72 510 -72 80 0 0 1 0 1 0 -1 0 0 3010.dat
1 72 610 -72 60 0 0 1 0 1 0 -1 0 0 3004.dat
1 0 610 -72 100 0 0 1 0 1 0 -1 0 0 3004.dat
1 71 510 -96 40 0 0 1 0 1 0 -1 0 0 3004.dat
1 72 510 -96 100 0 0 1 0 1 0 -1 0 0 3010.dat
1 72 610 -96 60 0 0 1 0 1 0 -1 0 0 3010.dat
1 72 610 -96 120 0 0 1 0 1 0 -1 0 0 3004.dat
1 72 540 -96 30 1 0 0 0 1 0 0 0 1 3004.dat
1 0 580 -96 30 1 0 0 0 1 0 0 0 1 3004.dat
1 72 560 -96 130 1 0 0 0 1 0 0 0 1 3010.dat
0 STEP
1 72 520 -120 30 1 0 0 0 1 0 0 0 1 3004.dat
1 72 590 -120 30 1 0 0 0 1 0 0 0 1 3622.dat
1 71 520 -120 130 1 0 0 0 1 0 0 0 1 3004.dat
1 72 580 -120 130 1 0 0 0 1 0 0 0 1 3010.dat
1 72 510 -120 80 0 0 1 0 1 0 -1 0 0 3010.dat
1 71 610 -120 60 0 0 1 0 1 0 -1 0 0 3004.dat
1 72 610 -120 110 0 0 1 0 1 0 -1 0 0 3005.dat
1 72 510 -144 40 0 0 1 0 1 0 -1 0 0 3004.dat
1 72 510 -144 100 0 0 1 0 1 0 -1 0 0 3010.dat
1 72 610 -144 50 0 0 1 0 1 0 -1 0 0 3622.dat
1 378 610 -144 120 0 0 1 0 1 0 -1 0 0 3004.dat
1 72 530 -144 30 1 0 0 0 1 0 0 0 1 3005.dat
1 0 580 -144 30 1 0 0 0 1 0 0 0 1 3004.dat
1 72 560 -144 130 1 0 0 0 1 0 0 0 1 3010.dat
0 STEP
1 72 540 -168 30 1 0 0 0 1 0 0 0 1 3010.dat
1 72 600 -168 30 1 0 0 0 1 0 0 0 1 3004.dat
1 72 520 -168 130 1 0 0 0 1 0 0 0 1 98283.dat
1 72 600 -168 130 1 0 0 0 1 0 0 0 1 3004.dat
1 72 510 -168 60 0 0 1 0 1 0 -1 0 0 3004.dat
1 378 610 -168 60 0 0 1 0 1 0 -1 0 0 3004.dat
1 72 610 -168 100 0 0 1 0 1 0 -1 0 0 3004.dat
1 72 510 -192 40 0 0 1 0 1 0 -1 0 0 98283.dat
1 72 510 -192 70 0 0 1 0 1 0 -1 0 0 3005.dat
1 72 510 -192 130 0 0 1 0 1 0 -1 0 0 3005.dat
1 72 610 -192 60 0 0 1 0 1 0 -1 0 0 3010.dat
1 72 610 -192 120 0 0 1 0 1 0 -1 0 0 98283.dat
1 72 540 -192 30 1 0 0 0 1 0 0 0 1 3004.dat
1 72 580 -192 30 1 0 0 0 1 0 0 0 1 3004.dat
1 72 530 -192 130 1 0 0 0 1 0 0 0 1 3005.dat
1 72 590 -192 130 1 0 0 0 1 0 0 0 1 3005.dat
0 STEP
1 72 540 -216 30 1 0 0 0 1 0 0 0 1 3010.dat
1 72 600 -216 30 1 0 0 0 1 0 0 0 1 3004.dat
1 72 520 -216 130 1 0 0 0 1 0 0 0 1 3004.dat
1 72 600 -216 130 1 0 0 0 1 0 0 0 1 3004.dat
1 72 510 -216 60 0 0 1 0 1 0 -1 0 0 98283.dat
1 0 610 -216 60 0 0 1 0 1 0 -1 0 0 3004.dat
1 72 610 -216 100 0 0 1 0 1 0 -1 0 0 98283.dat
1 72 510 -240 40 0 0 1 0 1 0 -1 0 0 98283.dat
1 72 510 -240 100 0 0 1 0 1 0 -1 0 0 3010.dat
1 72 610 -240 60 0 0 1 0 1 0 -1 0 0 3010.dat
1 72 610 -240 120 0 0 1 0 1 0 -1 0 0 98283.dat
1 0 540 -240 30 1 0 0 0 1 0 0 0 1 3004.dat
1 72 580 -240 30 1 0 0 0 1 0 0 0 1 3004.dat
1 0 560 -240 130 1 0 0 0 1 0 0 0 1 3010.dat
0 STEP
1 72 530 -264 30 1 0 0 0 1 0 0 0 1 3622.dat
1 72 600 -264 30 1 0 0 0 1 0 0 0 1 3004.dat
1 72 520 -264 130 1 0 0 0 1 0 0 0 1 3004.dat
1 72 580 -264 130 1 0 0 0 1 0 0 0 1 3010.dat
1 0 510 -264 80 0 0 1 0 1 0 -1 0 0 3010.dat
1 72 610 -264 50 0 0 1 0 1 0 -1 0 0 3005.dat
1 72 610 -264 100 0 0 1 0 1 0 -1 0 0 98283.dat
1 72 510 -288 40 0 0 1 0 1 0 -1 0 0 98283.dat
1 72 510 -288 100 0 0 1 0 1 0 -1 0 0 3010.dat
1 71 610 -288 40 0 0 1 0 1 0 -1 0 0 3004.dat
1 72 610 -288 110 0 0 1 0 1 0 -1 0 0 3622.dat
1 0 540 -288 30 1 0 0 0 1 0 0 0 1 3004.dat
1 0 590 -288 30 1 0 0 0 1 0 0 0 1 3005.dat
1 72 560 -288 130 1 0 0 0 1 0 0 0 1 3010.dat
0 STEP
1 72 540 -312 30 1 0 0 0 1 0 0 0 1 3010.dat
1 72 600 -312 30 1 0 0 0 1 0 0 0 1 3004.dat
1 72 520 -312 130 1 0 0 0 1 0 0 0 1 98283.dat
1 378 580 -312 130 1 0 0 0 1 0 0 0 1 3010.dat
1 72 510 -312 80 0 0 1 0 1 0 -1 0 0 3010.dat
1 72 610 -312 60 0 0 1 0 1 0 -1 0 0 3004.dat
1 72 610 -312 100 0 0 1 0 1 0 -1 0 0 98283.dat
1 71 510 -336 40 0 0 1 0 1 0 -1 0 0 98283.dat
1 0 510 -336 100 0 0 1 0 1 0 -1 0 0 3010.dat
1 72 610 -336 60 0 0 1 0 1 0 -1 0 0 3010.dat
1 72 610 -336 120 0 0 1 0 1 0 -1 0 0 3004.dat
1 71 540 -336 30 1 0 0 0 1 0 0 0 1 98283.dat
1 72 580 -336 30 1 0 0 0 1 0 0 0 1 3004.dat
1 72 560 -336 130 1 0 0 0 1 0 0 0 1 3010.dat
0 STEP
1 72 540 -360 30 1 0 0 0 1 0 0 0 1 3010.dat
1 72 600 -360 30 1 0 0 0 1 0 0 0 1 98283.dat
1 72 520 -360 130 1 0 0 0 1 0 0 0 1 98283.dat
1 72 580 -360 130 1 0 0 0 1 0 0 0 1 3010.dat
1 72 510 -360 80 0 0 1 0 1 0 -1 0 0 3010.dat
1 72 610 -360 60 0 0 1 0 1 0 -1 0 0 3004.dat
1 71 610 -360 100 0 0 1 0 1 0 -1 0 0 98283.dat
1 72 530 -384 30 1 0 0 0 1 0 0 0 1 3665a.dat
1 72 530 -384 130 -1 0 0 0 1 0 0 0 -1 3665a.dat
1 72 510 -384 50 0 0 1 0 1 0 -1 0 0 3665a.dat
1 72 610 -384 50 0 0 -1 0 1 0 1 0 0 3665a.dat
1 72 570 -384 30 1 0 0 0 1 0 0 0 1 3665a.dat
1 72 570 -384 130 -1 0 0 0 1 0 0 0 -1 3665a.dat
1 72 510 -384 90 0 0 1 0 1 0 -1 0 0 3665a.dat
1 72 610 -384 90 0 0 -1 0 1 0 1 0 0 3665a.dat
1 0 510 -384 30 0 0 1 0 1 0 -1 0 0 3005.dat
1 72 510 -384 70 0 0 1 0 1 0 -1 0 0 3005.dat
1 72 510 -384 120 0 0 1 0 1 0 -1 0 0 98283.dat
1 72 610 -384 30 0 0 1 0 1 0 -1 0 0 3005.dat
1 71 610 -384 70 0 0 1 0 1 0 -1 0 0 3005.dat
1 72 610 -384 120 0 0 1 0 1 0 -1 0 0 98283.dat
1 72 550 -384 30 1 0 0 0 1 0 0 0 1 3005.dat
1 0 590 -384 30 1 0 0 0 1 0 0 0 1 3005.dat
1 72 550 -384 130 1 0 0 0 1 0 0 0 1 3005.dat
1 72 590 -384 130 1 0 0 0 1 0 0 0 1 3005.dat
0 STEP
1 0 560 -392 80 1 0 0 0 1 0 0 0 1 41539.dat
0 STEP
1 72 490 -416 10 1 0 0 0 1 0 0 0 1 3005.dat
1 72 490 -424 10 1 0 0 0 1 0 0 0 1 3070b.dat
1 72 630 -416 10 1 0 0 0 1 0 0 0 1 3005.dat
1 72 630 -424 10 1 0 0 0 1 0 0 0 1 3070b.dat
1 72 490 -416 150 1 0 0 0 1 0 0 0 1 3005.dat
1 72 490 -424 150 1 0 0 0 1 0 0 0 1 3070b.dat
1 72 630 -416 150 1 0 0 0 1 0 0 0 1 3005.dat
1 72 630 -424 150 1 0 0 0 1 0 0 0 1 3070b.dat
1 72 530 -416 10 1 0 0 0 1 0 0 0 1 3005.dat
1 72 530 -424 10 1 0 0 0 1 0 0 0 1 3070b.dat
1 72 570 -416 10 1 0 0 0 1 0 0 0 1 3005.dat
1 72 570 -424 10 1 0 0 0 1 0 0 0 1 3070b.dat
1 72 530 -416 150 1 0 0 0 1 0 0 0 1 3005.dat
1 72 530 -424 150 1 0 0 0 1 0 0 0 1 3070b.dat
1 72 570 -416 150 1 0 0 0 1 0 0 0 1 3005.dat
1 72 570 -424 150 1 0 0 0 1 0 0 0 1 3070b.dat
1 72 490 -416 50 1 0 0 0 1 0 0 0 1 3005.dat
1 72 490 -424 50 1 0 0 0 1 0 0 0 1 3070b.dat
1 72 490 -416 90 1 0 0 0 1 0 0 0 1 3005.dat
1 72 490 -424 90 1 0 0 0 1 0 0 0 1 3070b.dat
1 72 630 -416 50 1 0 0 0 1 0 0 0 1 3005.dat
1 72 630 -424 50 1 0 0 0 1 0 0 0 1 3070b.dat
1 72 630 -416 90 1 0 0 0 1 0 0 0 1 3005.dat
1 72 630 -424 90 1 0 0 0 1 0 0 0 1 3070b.dat
0 STEP
1 70 550 -416 70 1 0 0 0 1 0 0 0 1 3062b.dat
1 70 550 -440 70 1 0 0 0 1 0 0 0 1 3062b.dat
1 70 550 -464 70 1 0 0 0 1 0 0 0 1 3062b.dat
1 272 550 -488 70 1 0 0 0 1 0 0 0 1 4495b.dat
1 297 550 -512 70 1 0 0 0 1 0 0 0 1 4589.dat
0 STEP
0 // South-west turret
1 378 140 -24 30 1 0 0 0 1 0 0 0 1 3010.dat
1 0 120 -24 90 1 0 0 0 1 0 0 0 1 3004.dat
1 378 160 -24 90 1 0 0 0 1 0 0 0 1 3004.dat
1 0 110 -24 60 0 0 1 0 1 0 -1 0 0 3004.dat
1 72 170 -24 60 0 0 1 0 1 0 -1 0 0 3004.dat
1 72 110 -48 40 0 0 1 0 1 0 -1 0 0 98283.dat
1 72 110 -48 80 0 0 1 0 1 0 -1 0 0 3004.dat
1 71 170 -48 60 0 0 1 0 1 0 -1 0 0 3010.dat
1 72 140 -48 30 1 0 0 0 1 0 0 0 1 3004.dat
1 72 140 -48 90 1 0 0 0 1 0 0 0 1 98283.dat
0 STEP
1 0 140 -72 30 1 0 0 0 1 0 0 0 1 3010.dat
1 72 120 -72 90 1 0 0 0 1 0 0 0 1 3004.dat
1 72 160 -72 90 1 0 0 0 1 0 0 0 1 3004.dat
1 72 110 -72 60 0 0 1 0 1 0 -1 0 0 3004.dat
1 72 170 -72 60 0 0 1 0 1 0 -1 0 0 3004.dat
1 71 110 -96 40 0 0 1 0 1 0 -1 0 0 98283.dat
1 72 110 -96 80 0 0 1 0 1 0 -1 0 0 3004.dat
1 378 170 -96 60 0 0 1 0 1 0 -1 0 0 3010.dat
1 72 140 -96 30 1 0 0 0 1 0 0 0 1 98283.dat
1 0 140 -96 90 1 0 0 0 1 0 0 0 1 3004.dat
0 STEP
1 72 120 -120 30 1 0 0 0 1 0 0 0 1 3004.dat
1 71 170 -120 30 1 0 0 0 1 0 0 0 1 3005.dat
1 72 120 -120 90 1 0 0 0 1 0 0 0 1 98283.dat
1 72 160 -120 90 1 0 0 0 1 0 0 0 1 98283.dat
1 72 110 -120 70 0 0 1 0 1 0 -1 0 0 3005.dat
1 72 170 -120 60 0 0 1 0 1 0 -1 0 0 3004.dat
1 72 110 -144 30 0 0 1 0 1 0 -1 0 0 3005.dat
1 72 110 -144 80 0 0 1 0 1 0 -1 0 0 98283.dat
1 72 170 -144 60 0 0 1 0 1 0 -1 0 0 3010.dat
1 72 130 -144 30 1 0 0 0 1 0 0 0 1 3005.dat
1 72 140 -144 90 1 0 0 0 1 0 0 0 1 3004.dat
0 STEP
1 72 140 -168 30 1 0 0 0 1 0 0 0 1 3010.dat
1 72 120 -168 90 1 0 0 0 1 0 0 0 1 3004.dat
1 71 160 -168 90 1 0 0 0 1 0 0 0 1 98283.dat
1 72 110 -168 60 0 0 1 0 1 0 -1 0 0 98283.dat
1 72 170 -168 60 0 0 1 0 1 0 -1 0 0 3004.dat
1 0 110 -192 40 0 0 1 0 1 0 -1 0 0 3004.dat
1 72 110 -192 80 0 0 1 0 1 0 -1 0 0 3004.dat
1 72 170 -192 60 0 0 1 0 1 0 -1 0 0 3010.dat
1 72 140 -192 30 1 0 0 0 1 0 0 0 1 3004.dat
1 72 140 -192 90 1 0 0 0 1 0 0 0 1 3004.dat
0 STEP
1 72 140 -216 30 1 0 0 0 1 0 0 0 1 3010.dat
1 72 120 -216 90 1 0 0 0 1 0 0 0 1 3004.dat
1 72 160 -216 90 1 0 0 0 1 0 0 0 1 3004.dat
1 72 110 -216 60 0 0 1 0 1 0 -1 0 0 98283.dat
1 72 170 -216 60 0 0 1 0 1 0 -1 0 0 3004.dat
1 72 110 -240 40 0 0 1 0 1 0 -1 0 0 3004.dat
1 72 110 -240 80 0 0 1 0 1 0 -1 0 0 98283.dat
1 72 170 -240 60 0 0 1 0 1 0 -1 0 0 3010.dat
1 72 140 -240 30 1 0 0 0 1 0 0 0 1 3004.dat
1 378 140 -240 90 1 0 0 0 1 0 0 0 1 3004.dat
0 STEP
1 72 140 -264 30 1 0 0 0 1 0 0 0 1 3010.dat
1 71 120 -264 90 1 0 0 0 1 0 0 0 1 3004.dat
1 0 160 -264 90 1 0 0 0 1 0 0 0 1 3004.dat
1 72 110 -264 60 0 0 1 0 1 0 -1 0 0 3004.dat
1 72 170 -264 60 0 0 1 0 1 0 -1 0 0 3004.dat
1 72 110 -288 40 0 0 1 0 1 0 -1 0 0 3004.dat
1 72 110 -288 80 0 0 1 0 1 0 -1 0 0 98283.dat
1 72 170 -288 60 0 0 1 0 1 0 -1 0 0 3010.dat
1 72 140 -288 30 1 0 0 0 1 0 0 0 1 98283.dat
1 72 140 -288 90 1 0 0 0 1 0 0 0 1 98283.dat
0 STEP
1 72 130 -312 30 1 0 0 0 1 0 0 0 1 3665a.dat
1 72 130 -312 90 -1 0 0 0 1 0 0 0 -1 3665a.dat
1 72 110 -312 50 0 0 1 0 1 0 -1 0 0 3665a.dat
1 72 170 -312 50 0 0 -1 0 1 0 1 0 0 3665a.dat
1 72 110 -312 30 1 0 0 0 1 0 0 0 1 3005.dat
1 72 160 -312 30 1 0 0 0 1 0 0 0 1 98283.dat
1 71 110 -312 90 1 0 0 0 1 0 0 0 1 3005.dat
1 378 160 -312 90 1 0 0 0 1 0 0 0 1 3004.dat
1 0 110 -312 70 0 0 1 0 1 0 -1 0 0 3005.dat
1 72 170 -312 70 0 0 1 0 1 0 -1 0 0 3005.dat
0 STEP
1 0 140 -320 60 1 0 0 0 1 0 0 0 1 3958.dat
0 STEP
1 272 170 -344 30 1 0 0 0 1 0 0 0 1 3045.dat
1 272 110 -344 30 0 0 1 0 1 0 -1 0 0 3045.dat
1 272 110 -344 90 -1 0 0 0 1 0 0 0 -1 3045.dat
1 272 170 -344 90 0 0 -1 0 1 0 1 0 0 3045.dat
1 272 140 -344 30 1 0 0 0 1 0 0 0 1 3039.dat
1 272 140 -344 90 -1 0 0 0 1 0 0 0 -1 3039.dat
1 272 110 -344 60 0 0 1 0 1 0 -1 0 0 3039.dat
1 272 170 -344 60 0 0 -1 0 1 0 1 0 0 3039.dat
0 STEP
1 272 150 -368 50 1 0 0 0 1 0 0 0 1 3045.dat
1 272 130 -368 50 0 0 1 0 1 0 -1 0 0 3045.dat
1 272 130 -368 70 -1 0 0 0 1 0 0 0 -1 3045.dat
1 272 150 -368 70 0 0 -1 0 1 0 1 0 0 3045.dat
0 STEP
1 272 140 -416 60 1 0 0 0 1 0 0 0 1 3688.dat
1 70 140 -440 60 1 0 0 0 1 0 0 0 1 3062b.dat
1 272 140 -464 60 1 0 0 0 1 0 0 0 1 4495b.dat
1 297 140 -488 60 1 0 0 0 1 0 0 0 1 4589.dat
0 STEP
0 // North-west turret
1 72 140 -24 550 1 0 0 0 1 0 0 0 1 3010.dat
1 72 120 -24 610 1 0 0 0 1 0 0 0 1 98283.dat
1 72 160 -24 610 1 0 0 0 1 0 0 0 1 3004.dat
1 0 110 -24 580 0 0 1 0 1 0 -1 0 0 3004.dat
1 0 170 -24 580 0 0 1 0 1 0 -1 0 0 3004.dat
1 72 110 -48 560 0 0 1 0 1 0 -1 0 0 98283.dat
1 72 110 -48 600 0 0 1 0 1 0 -1 0 0 3004.dat
1 72 170 -48 580 0 0 1 0 1 0 -1 0 0 3010.dat
1 72 140 -48 550 1 0 0 0 1 0 0 0 1 3004.dat
1 72 140 -48 610 1 0 0 0 1 0 0 0 1 3004.dat
0 STEP
1 378 140 -72 550 1 0 0 0 1 0 0 0 1 3010.dat
1 72 120 -72 610 1 0 0 0 1 0 0 0 1 3004.dat
1 71 160 -72 610 1 0 0 0 1 0 0 0 1 3004.dat
1 72 110 -72 580 0 0 1 0 1 0 -1 0 0 3004.dat
1 72 170 -72 580 0 0 1 0 1 0 -1 0 0 3004.dat
1 72 110 -96 560 0 0 1 0 1 0 -1 0 0 3004.dat
1 72 110 -96 600 0 0 1 0 1 0 -1 0 0 3004.dat
1 72 170 -96 580 0 0 1 0 1 0 -1 0 0 3010.dat
1 71 140 -96 550 1 0 0 0 1 0 0 0 1 3004.dat
1 72 140 -96 610 1 0 0 0 1 0 0 0 1 3004.dat
0 STEP
1 72 140 -120 550 1 0 0 0 1 0 0 0 1 3010.dat
1 72 120 -120 610 1 0 0 0 1 0 0 0 1 98283.dat
1 378 170 -120 610 1 0 0 0 1 0 0 0 1 3005.dat
1 72 110 -120 590 0 0 1 0 1 0 -1 0 0 3005.dat
1 72 170 -120 580 0 0 1 0 1 0 -1 0 0 3004.dat
1 72 110 -144 550 0 0 1 0 1 0 -1 0 0 3005.dat
1 72 110 -144 600 0 0 1 0 1 0 -1 0 0 98283.dat
1 72 170 -144 580 0 0 1 0 1 0 -1 0 0 3010.dat
1 72 140 -144 550 1 0 0 0 1 0 0 0 1 3004.dat
1 72 130 -144 610 1 0 0 0 1 0 0 0 1 3005.dat
0 STEP
1 72 140 -168 550 1 0 0 0 1 0 0 0 1 3010.dat
1 72 120 -168 610 1 0 0 0 1 0 0 0 1 3004.dat
1 72 160 -168 610 1 0 0 0 1 0 0 0 1 3004.dat
1 0 110 -168 580 0 0 1 0 1 0 -1 0 0 3004.dat
1 72 170 -168 580 0 0 1 0 1 0 -1 0 0 3004.dat
1 72 110 -192 560 0 0 1 0 1 0 -1 0 0 3004.dat
1 72 110 -192 600 0 0 1 0 1 0 -1 0 0 3004.dat
1 72 170 -192 580 0 0 1 0 1 0 -1 0 0 3010.dat
1 72 140 -192 550 1 0 0 0 1 0 0 0 1 98283.dat
1 72 140 -192 610 1 0 0 0 1 0 0 0 1 3004.dat
0 STEP
1 72 140 -216 550 1 0 0 0 1 0 0 0 1 3010.dat
1 72 120 -216 610 1 0 0 0 1 0 0 0 1 98283.dat
1 72 160 -216 610 1 0 0 0 1 0 0 0 1 3004.dat
1 72 110 -216 580 0 0 1 0 1 0 -1 0 0 98283.dat
1 72 170 -216 580 0 0 1 0 1 0 -1 0 0 3004.dat
1 72 110 -240 560 0 0 1 0 1 0 -1 0 0 98283.dat
1 72 110 -240 600 0 0 1 0 1 0 -1 0 0 3004.dat
1 72 170 -240 580 0 0 1 0 1 0 -1 0 0 3010.dat
1 72 140 -240 550 1 0 0 0 1 0 0 0 1 3004.dat
1 72 140 -240 610 1 0 0 0 1 0 0 0 1 3004.dat
0 STEP
1 0 140 -264 550 1 0 0 0 1 0 0 0 1 3010.dat
1 72 120 -264 610 1 0 0 0 1 0 0 0 1 98283.dat
1 72 160 -264 610 1 0 0 0 1 0 0 0 1 3004.dat
1 71 110 -264 580 0 0 1 0 1 0 -1 0 0 98283.dat
1 71 170 -264 580 0 0 1 0 1 0 -1 0 0 3004.dat
1 72 110 -288 560 0 0 1 0 1 0 -1 0 0 3004.dat
1 72 110 -288 600 0 0 1 0 1 0 -1 0 0 3004.dat
1 72 170 -288 580 0 0 1 0 1 0 -1 0 0 3010.dat
1 72 140 -288 550 1 0 0 0 1 0 0 0 1 98283.dat
1 72 140 -288 610 1 0 0 0 1 0 0 0 1 98283.dat
0 STEP
1 72 130 -312 550 1 0 0 0 1 0 0 0 1 3665a.dat
1 72 130 -312 610 -1 0 0 0 1 0 0 0 -1 3665a.dat
1 72 110 -312 570 0 0 1 0 1 0 -1 0 0 3665a.dat
1 72 170 -312 570 0 0 -1 0 1 0 1 0 0 3665a.dat
1 72 110 -312 550 1 0 0 0 1 0 0 0 1 3005.dat
1 72 160 -312 550 1 0 0 0 1 0 0 0 1 98283.dat
1 72 110 -312 610 1 0 0 0 1 0 0 0 1 3005.dat
1 72 160 -312 610 1 0 0 0 1 0 0 0 1 98283.dat
1 72 110 -312 590 0 0 1 0 1 0 -1 0 0 3005.dat
1 72 170 -312 590 0 0 1 0 1 0 -1 0 0 3005.dat
0 STEP
1 0 140 -320 580 1 0 0 0 1 0 0 0 1 3958.dat
0 STEP
1 272 170 -344 550 1 0 0 0 1 0 0 0 1 3045.dat
1 272 110 -344 550 0 0 1 0 1 0 -1 0 0 3045.dat
1 272 110 -344 610 -1 0 0 0 1 0 0 0 -1 3045.dat
1 272 170 -344 610 0 0 -1 0 1 0 1 0 0 3045.dat
1 272 140 -344 550 1 0 0 0 1 0 0 0 1 3039.dat
1 272 140 -344 610 -1 0 0 0 1 0 0 0 -1 3039.dat
1 272 110 -344 580 0 0 1 0 1 0 -1 0 0 3039.dat
1 272 170 -344 580 0 0 -1 0 1 0 1 0 0 3039.dat
0 STEP
1 272 150 -368 570 1 0 0 0 1 0 0 0 1 3045.dat
1 272 130 -368 570 0 0 1 0 1 0 -1 0 0 3045.dat
1 272 130 -368 590 -1 0 0 0 1 0 0 0 -1 3045.dat
1 272 150 -368 590 0 0 -1 0 1 0 1 0 0 3045.dat
0 STEP
1 272 140 -416 580 1 0 0 0 1 0 0 0 1 3688.dat
1 70 140 -440 580 1 0 0 0 1 0 0 0 1 3062b.dat
1 272 140 -464 580 1 0 0 0 1 0 0 0 1 4495b.dat
1 297 140 -488 580 1 0 0 0 1 0 0 0 1 4589.dat
0 STEP
0 // South curtain wall
1 72 220 -24 30 1 0 0 0 1 0 0 0 1 3010.dat
1 0 300 -24 30 1 0 0 0 1 0 0 0 1 3010.dat
1 72 380 -24 30 1 0 0 0 1 0 0 0 1 3010.dat
1 72 460 -24 30 1 0 0 0 1 0 0 0 1 3010.dat
1 71 200 -48 30 1 0 0 0 1 0 0 0 1 3004.dat
1 72 260 -48 30 1 0 0 0 1 0 0 0 1 3010.dat
1 72 340 -48 30 1 0 0 0 1 0 0 0 1 3010.dat
1 72 440 -48 30 1 0 0 0 1 0 0 0 1 3009.dat
1 72 220 -72 30 1 0 0 0 1 0 0 0 1 3010.dat
1 72 300 -72 30 1 0 0 0 1 0 0 0 1 3010.dat
1 72 380 -72 30 1 0 0 0 1 0 0 0 1 3010.dat
1 72 460 -72 30 1 0 0 0 1 0 0 0 1 3010.dat
0 STEP
1 72 200 -96 30 1 0 0 0 1 0 0 0 1 98283.dat
1 72 260 -96 30 1 0 0 0 1 0 0 0 1 3010.dat
1 378 340 -96 30 1 0 0 0 1 0 0 0 1 3010.dat
1 72 440 -96 30 1 0 0 0 1 0 0 0 1 3009.dat
1 72 200 -120 30 1 0 0 0 1 0 0 0 1 3004.dat
1 72 260 -120 30 1 0 0 0 1 0 0 0 1 3004.dat
1 72 320 -120 30 1 0 0 0 1 0 0 0 1 3004.dat
1 72 380 -120 30 1 0 0 0 1 0 0 0 1 3004.dat
1 72 440 -120 30 1 0 0 0 1 0 0 0 1 3004.dat
1 72 490 -120 30 1 0 0 0 1 0 0 0 1 3005.dat
1 72 200 -144 30 1 0 0 0 1 0 0 0 1 3004.dat
1 72 260 -144 30 1 0 0 0 1 0 0 0 1 3004.dat
1 72 320 -144 30 1 0 0 0 1 0 0 0 1 98283.dat
1 72 380 -144 30 1 0 0 0 1 0 0 0 1 98283.dat
1 72 440 -144 30 1 0 0 0 1 0 0 0 1 3004.dat
1 71 490 -144 30 1 0 0 0 1 0 0 0 1 3005.dat
0 STEP
1 72 220 -168 30 1 0 0 0 1 0 0 0 1 3010.dat
1 72 300 -168 30 1 0 0 0 1 0 0 0 1 3010.dat
1 72 380 -168 30 1 0 0 0 1 0 0 0 1 3010.dat
1 72 460 -168 30 1 0 0 0 1 0 0 0 1 3010.dat
1 72 200 -192 30 1 0 0 0 1 0 0 0 1 98283.dat
1 72 260 -192 30 1 0 0 0 1 0 0 0 1 3010.dat
1 72 340 -192 30 1 0 0 0 1 0 0 0 1 3010.dat
1 71 440 -192 30 1 0 0 0 1 0 0 0 1 3009.dat
1 72 220 -216 30 1 0 0 0 1 0 0 0 1 3010.dat
1 72 300 -216 30 1 0 0 0 1 0 0 0 1 3010.dat
1 72 380 -216 30 1 0 0 0 1 0 0 0 1 3010.dat
1 72 460 -216 30 1 0 0 0 1 0 0 0 1 3010.dat
0 STEP
1 0 340 -224 40 1 0 0 0 1 0 0 0 1 4282.dat
0 STEP
1 72 190 -248 30 1 0 0 0 1 0 0 0 1 3005.dat
1 72 190 -256 30 1 0 0 0 1 0 0 0 1 3070b.dat
1 72 230 -248 30 1 0 0 0 1 0 0 0 1 3005.dat
1 72 230 -256 30 1 0 0 0 1 0 0 0 1 3070b.dat
1 72 270 -248 30 1 0 0 0 1 0 0 0 1 3005.dat
1 72 270 -256 30 1 0 0 0 1 0 0 0 1 3070b.dat
1 72 310 -248 30 1 0 0 0 1 0 0 0 1 3005.dat
1 72 310 -256 30 1 0 0 0 1 0 0 0 1 3070b.dat
1 72 350 -248 30 1 0 0 0 1 0 0 0 1 3005.dat
1 72 350 -256 30 1 0 0 0 1 0 0 0 1 3070b.dat
1 72 390 -248 30 1 0 0 0 1 0 0 0 1 3005.dat
1 72 390 -256 30 1 0 0 0 1 0 0 0 1 3070b.dat
1 72 430 -248 30 1 0 0 0 1 0 0 0 1 3005.dat
1 72 430 -256 30 1 0 0 0 1 0 0 0 1 3070b.dat
1 72 470 -248 30 1 0 0 0 1 0 0 0 1 3005.dat
1 72 470 -256 30 1 0 0 0 1 0 0 0 1 3070b.dat
0 STEP
0 // North curtain wall
1 72 220 -24 610 1 0 0 0 1 0 0 0 1 3010.dat
1 0 300 -24 610 1 0 0 0 1 0 0 0 1 3010.dat
1 0 380 -24 610 1 0 0 0 1 0 0 0 1 3010.dat
1 72 200 -48 610 1 0 0 0 1 0 0 0 1 98283.dat
1 71 260 -48 610 1 0 0 0 1 0 0 0 1 3010.dat
1 72 360 -48 610 1 0 0 0 1 0 0 0 1 3009.dat
1 71 220 -72 610 1 0 0 0 1 0 0 0 1 3010.dat
1 0 300 -72 610 1 0 0 0 1 0 0 0 1 3010.dat
1 71 380 -72 610 1 0 0 0 1 0 0 0 1 3010.dat
0 STEP
1 0 200 -96 610 1 0 0 0 1 0 0 0 1 3004.dat
1 72 260 -96 610 1 0 0 0 1 0 0 0 1 3010.dat
1 72 360 -96 610 1 0 0 0 1 0 0 0 1 3009.dat
1 72 200 -120 610 1 0 0 0 1 0 0 0 1 3004.dat
1 0 260 -120 610 1 0 0 0 1 0 0 0 1 3004.dat
1 72 320 -120 610 1 0 0 0 1 0 0 0 1 98283.dat
1 72 390 -120 610 1 0 0 0 1 0 0 0 1 3622.dat
1 71 200 -144 610 1 0 0 0 1 0 0 0 1 3004.dat
1 72 260 -144 610 1 0 0 0 1 0 0 0 1 3004.dat
1 72 320 -144 610 1 0 0 0 1 0 0 0 1 98283.dat
1 72 380 -144 610 1 0 0 0 1 0 0 0 1 3004.dat
1 72 410 -144 610 1 0 0 0 1 0 0 0 1 3005.dat
0 STEP
1 72 220 -168 610 1 0 0 0 1 0 0 0 1 3010.dat
1 72 300 -168 610 1 0 0 0 1 0 0 0 1 3010.dat
1 71 380 -168 610 1 0 0 0 1 0 0 0 1 3010.dat
1 72 200 -192 610 1 0 0 0 1 0 0 0 1 3004.dat
1 72 260 -192 610 1 0 0 0 1 0 0 0 1 3010.dat
1 72 360 -192 610 1 0 0 0 1 0 0 0 1 3009.dat
1 72 220 -216 610 1 0 0 0 1 0 0 0 1 3010.dat
1 72 300 -216 610 1 0 0 0 1 0 0 0 1 3010.dat
1 72 380 -216 610 1 0 0 0 1 0 0 0 1 3010.dat
0 STEP
1 0 300 -224 600 1 0 0 0 1 0 0 0 1 2445.dat
0 STEP
1 72 190 -248 610 1 0 0 0 1 0 0 0 1 3005.dat
1 72 190 -256 610 1 0 0 0 1 0 0 0 1 3070b.dat
1 72 230 -248 610 1 0 0 0 1 0 0 0 1 3005.dat
1 72 230 -256 610 1 0 0 0 1 0 0 0 1 3070b.dat
1 72 270 -248 610 1 0 0 0 1 0 0 0 1 3005.dat
1 72 270 -256 610 1 0 0 0 1 0 0 0 1 3070b.dat
1 72 310 -248 610 1 0 0 0 1 0 0 0 1 3005.dat
1 72 310 -256 610 1 0 0 0 1 0 0 0 1 3070b.dat
1 72 350 -248 610 1 0 0 0 1 0 0 0 1 3005.dat
1 72 350 -256 610 1 0 0 0 1 0 0 0 1 3070b.dat
1 72 390 -248 610 1 0 0 0 1 0 0 0 1 3005.dat
1 72 390 -256 610 1 0 0 0 1 0 0 0 1 3070b.dat
0 STEP
0 // East curtain wall
1 72 610 -24 180 0 0 1 0 1 0 -1 0 0 3010.dat
1 72 610 -24 260 0 0 1 0 1 0 -1 0 0 3010.dat
1 378 610 -24 360 0 0 1 0 1 0 -1 0 0 3009.dat
1 0 610 -48 160 0 0 1 0 1 0 -1 0 0 3004.dat
1 72 610 -48 220 0 0 1 0 1 0 -1 0 0 3010.dat
1 72 610 -48 300 0 0 1 0 1 0 -1 0 0 3010.dat
1 72 610 -48 380 0 0 1 0 1 0 -1 0 0 3010.dat
1 72 610 -72 180 0 0 1 0 1 0 -1 0 0 3010.dat
1 72 610 -72 260 0 0 1 0 1 0 -1 0 0 3010.dat
1 72 610 -72 360 0 0 1 0 1 0 -1 0 0 3009.dat
0 STEP
1 378 610 -96 160 0 0 1 0 1 0 -1 0 0 3004.dat
1 72 610 -96 220 0 0 1 0 1 0 -1 0 0 3010.dat
1 0 610 -96 300 0 0 1 0 1 0 -1 0 0 3010.dat
1 72 610 -96 380 0 0 1 0 1 0 -1 0 0 3010.dat
1 72 610 -120 160 0 0 1 0 1 0 -1 0 0 3004.dat
1 72 610 -120 220 0 0 1 0 1 0 -1 0 0 3004.dat
1 72 610 -120 280 0 0 1 0 1 0 -1 0 0 3004.dat
1 72 610 -120 340 0 0 1 0 1 0 -1 0 0 3004.dat
1 72 610 -120 400 0 0 1 0 1 0 -1 0 0 98283.dat
1 72 610 -144 160 0 0 1 0 1 0 -1 0 0 98283.dat
1 72 610 -144 220 0 0 1 0 1 0 -1 0 0 3004.dat
1 72 610 -144 280 0 0 1 0 1 0 -1 0 0 3004.dat
1 72 610 -144 340 0 0 1 0 1 0 -1 0 0 3004.dat
1 0 610 -144 400 0 0 1 0 1 0 -1 0 0 3004.dat
0 STEP
1 72 610 -168 180 0 0 1 0 1 0 -1 0 0 3010.dat
1 72 610 -168 260 0 0 1 0 1 0 -1 0 0 3010.dat
1 72 610 -168 360 0 0 1 0 1 0 -1 0 0 3009.dat
1 72 610 -192 160 0 0 1 0 1 0 -1 0 0 3004.dat
1 378 610 -192 220 0 0 1 0 1 0 -1 0 0 3010.dat
1 0 610 -192 300 0 0 1 0 1 0 -1 0 0 3010.dat
1 72 610 -192 380 0 0 1 0 1 0 -1 0 0 3010.dat
1 72 610 -216 180 0 0 1 0 1 0 -1 0 0 3010.dat
1 72 610 -216 260 0 0 1 0 1 0 -1 0 0 3010.dat
1 72 610 -216 360 0 0 1 0 1 0 -1 0 0 3009.dat
0 STEP
1 0 600 -224 260 0 0 1 0 1 0 -1 0 0 2445.dat
1 0 600 -224 400 1 0 0 0 1 0 0 0 1 3022.dat
0 STEP
1 72 610 -248 150 0 0 1 0 1 0 -1 0 0 3005.dat
1 72 610 -256 150 0 0 1 0 1 0 -1 0 0 3070b.dat
1 72 610 -248 190 0 0 1 0 1 0 -1 0 0 3005.dat
1 72 610 -256 190 0 0 1 0 1 0 -1 0 0 3070b.dat
1 72 610 -248 230 0 0 1 0 1 0 -1 0 0 3005.dat
1 72 610 -256 230 0 0 1 0 1 0 -1 0 0 3070b.dat
1 72 610 -248 270 0 0 1 0 1 0 -1 0 0 3005.dat
1 72 610 -256 270 0 0 1 0 1 0 -1 0 0 3070b.dat
1 72 610 -248 310 0 0 1 0 1 0 -1 0 0 3005.dat
1 72 610 -256 310 0 0 1 0 1 0 -1 0 0 3070b.dat
1 72 610 -248 350 0 0 1 0 1 0 -1 0 0 3005.dat
1 72 610 -256 350 0 0 1 0 1 0 -1 0 0 3070b.dat
1 72 610 -248 390 0 0 1 0 1 0 -1 0 0 3005.dat
1 72 610 -256 390 0 0 1 0 1 0 -1 0 0 3070b.dat
0 STEP
0 // West curtain walls
1 0 110 -24 140 0 0 1 0 1 0 -1 0 0 3010.dat
1 0 110 -24 200 0 0 1 0 1 0 -1 0 0 3004.dat
1 72 110 -48 120 0 0 1 0 1 0 -1 0 0 3004.dat
1 72 110 -48 180 0 0 1 0 1 0 -1 0 0 3010.dat
1 72 110 -72 140 0 0 1 0 1 0 -1 0 0 3010.dat
1 72 110 -72 200 0 0 1 0 1 0 -1 0 0 98283.dat
0 STEP
1 72 110 -96 120 0 0 1 0 1 0 -1 0 0 3004.dat
1 72 110 -96 180 0 0 1 0 1 0 -1 0 0 3010.dat
1 72 110 -120 120 0 0 1 0 1 0 -1 0 0 3004.dat
1 0 110 -120 190 0 0 1 0 1 0 -1 0 0 3622.dat
1 72 110 -144 120 0 0 1 0 1 0 -1 0 0 3004.dat
1 0 110 -144 180 0 0 1 0 1 0 -1 0 0 3004.dat
1 72 110 -144 210 0 0 1 0 1 0 -1 0 0 3005.dat
0 STEP
1 72 110 -168 140 0 0 1 0 1 0 -1 0 0 3010.dat
1 72 110 -168 200 0 0 1 0 1 0 -1 0 0 98283.dat
1 72 110 -192 120 0 0 1 0 1 0 -1 0 0 98283.dat
1 72 110 -192 180 0 0 1 0 1 0 -1 0 0 3010.dat
1 72 110 -216 140 0 0 1 0 1 0 -1 0 0 3010.dat
1 72 110 -216 200 0 0 1 0 1 0 -1 0 0 98283.dat
0 STEP
1 0 120 -224 160 0 0 1 0 1 0 -1 0 0 3795.dat
0 STEP
1 72 110 -248 110 0 0 1 0 1 0 -1 0 0 3005.dat
1 72 110 -256 110 0 0 1 0 1 0 -1 0 0 3070b.dat
1 72 110 -248 150 0 0 1 0 1 0 -1 0 0 3005.dat
1 72 110 -256 150 0 0 1 0 1 0 -1 0 0 3070b.dat
1 72 110 -248 190 0 0 1 0 1 0 -1 0 0 3005.dat
1 72 110 -256 190 0 0 1 0 1 0 -1 0 0 3070b.dat
0 STEP
1 72 110 -24 460 0 0 1 0 1 0 -1 0 0 3010.dat
1 72 110 -24 520 0 0 1 0 1 0 -1 0 0 98283.dat
1 72 110 -48 440 0 0 1 0 1 0 -1 0 0 3004.dat
1 72 110 -48 500 0 0 1 0 1 0 -1 0 0 3010.dat
1 72 110 -72 460 0 0 1 0 1 0 -1 0 0 3010.dat
1 72 110 -72 520 0 0 1 0 1 0 -1 0 0 98283.dat
0 STEP
1 72 110 -96 440 0 0 1 0 1 0 -1 0 0 3004.dat
1 72 110 -96 500 0 0 1 0 1 0 -1 0 0 3010.dat
1 72 110 -120 440 0 0 1 0 1 0 -1 0 0 3004.dat
1 72 110 -120 510 0 0 1 0 1 0 -1 0 0 3622.dat
1 72 110 -144 440 0 0 1 0 1 0 -1 0 0 3004.dat
1 72 110 -144 500 0 0 1 0 1 0 -1 0 0 3004.dat
1 0 110 -144 530 0 0 1 0 1 0 -1 0 0 3005.dat
0 STEP
1 72 110 -168 460 0 0 1 0 1 0 -1 0 0 3010.dat
1 72 110 -168 520 0 0 1 0 1 0 -1 0 0 3004.dat
1 72 110 -192 440 0 0 1 0 1 0 -1 0 0 98283.dat
1 72 110 -192 500 0 0 1 0 1 0 -1 0 0 3010.dat
1 72 110 -216 460 0 0 1 0 1 0 -1 0 0 3010.dat
1 72 110 -216 520 0 0 1 0 1 0 -1 0 0 3004.dat
0 STEP
1 0 120 -224 480 0 0 1 0 1 0 -1 0 0 3795.dat
0 STEP
1 72 110 -248 430 0 0 1 0 1 0 -1 0 0 3005.dat
1 72 110 -256 430 0 0 1 0 1 0 -1 0 0 3070b.dat
1 72 110 -248 470 0 0 1 0 1 0 -1 0 0 3005.dat
1 72 110 -256 470 0 0 1 0 1 0 -1 0 0 3070b.dat
1 72 110 -248 510 0 0 1 0 1 0 -1 0 0 3005.dat
1 72 110 -256 510 0 0 1 0 1 0 -1 0 0 3070b.dat
0 STEP
0 // Barracks
1 0 320 -144 170 1 0 0 0 1 0 0 0 1 60596.dat
1 70 283.75 -136.75 163.75 1 0 0 0 1 0 0 0 1 60616a.dat
1 0 260 -96 170 1 0 0 0 1 0 0 0 1 60592.dat
1 47 256.5 -89 167 1 0 0 0 1 0 0 0 1 60601.dat
1 0 380 -96 170 1 0 0 0 1 0 0 0 1 60592.dat
1 47 376.5 -89 167 1 0 0 0 1 0 0 0 1 60601.dat
1 72 260 -24 70 1 0 0 0 1 0 0 0 1 3010.dat
1 72 360 -24 70 1 0 0 0 1 0 0 0 1 3009.dat
1 72 240 -24 170 1 0 0 0 1 0 0 0 1 3004.dat
1 0 270 -24 170 1 0 0 0 1 0 0 0 1 3005.dat
1 72 380 -24 170 1 0 0 0 1 0 0 0 1 3004.dat
1 72 410 -24 170 1 0 0 0 1 0 0 0 1 3005.dat
1 72 230 -24 120 0 0 1 0 1 0 -1 0 0 3010.dat
1 72 410 -24 100 0 0 1 0 1 0 -1 0 0 3004.dat
1 72 410 -24 140 0 0 1 0 1 0 -1 0 0 3004.dat
1 72 230 -48 80 0 0 1 0 1 0 -1 0 0 3004.dat
1 72 230 -48 140 0 0 1 0 1 0 -1 0 0 3010.dat
1 72 410 -48 100 0 0 1 0 1 0 -1 0 0 3010.dat
1 72 410 -48 160 0 0 1 0 1 0 -1 0 0 3004.dat
1 0 260 -48 70 1 0 0 0 1 0 0 0 1 3004.dat
1 72 340 -48 70 1 0 0 0 1 0 0 0 1 3009.dat
1 72 260 -48 170 1 0 0 0 1 0 0 0 1 3004.dat
1 72 380 -48 170 1 0 0 0 1 0 0 0 1 3004.dat
0 STEP
1 308 260 -72 70 1 0 0 0 1 0 0 0 1 3010.dat
1 70 360 -72 70 1 0 0 0 1 0 0 0 1 3009.dat
1 0 230 -72 170 1 0 0 0 1 0 0 0 1 3005.dat
1 308 410 -72 170 1 0 0 0 1 0 0 0 1 3005.dat
1 0 230 -72 120 0 0 1 0 1 0 -1 0 0 3010.dat
1 72 410 -72 100 0 0 1 0 1 0 -1 0 0 3004.dat
1 70 410 -72 140 0 0 1 0 1 0 -1 0 0 3004.dat
1 0 230 -96 80 0 0 1 0 1 0 -1 0 0 3004.dat
1 72 230 -96 140 0 0 1 0 1 0 -1 0 0 3010.dat
1 0 410 -96 100 0 0 1 0 1 0 -1 0 0 3010.dat
1 70 410 -96 160 0 0 1 0 1 0 -1 0 0 3004.dat
1 0 260 -96 70 1 0 0 0 1 0 0 0 1 3004.dat
1 72 340 -96 70 1 0 0 0 1 0 0 0 1 3009.dat
0 STEP
1 70 260 -120 70 1 0 0 0 1 0 0 0 1 3010.dat
1 0 360 -120 70 1 0 0 0 1 0 0 0 1 3009.dat
1 308 240 -120 170 1 0 0 0 1 0 0 0 1 3004.dat
1 308 270 -120 170 1 0 0 0 1 0 0 0 1 3005.dat
1 308 380 -120 170 1 0 0 0 1 0 0 0 1 3004.dat
1 308 410 -120 170 1 0 0 0 1 0 0 0 1 3005.dat
1 72 230 -120 120 0 0 1 0 1 0 -1 0 0 3010.dat
1 308 410 -120 100 0 0 1 0 1 0 -1 0 0 3004.dat
1 308 410 -120 140 0 0 1 0 1 0 -1 0 0 3004.dat
1 308 230 -144 80 0 0 1 0 1 0 -1 0 0 3004.dat
1 72 230 -144 140 0 0 1 0 1 0 -1 0 0 3010.dat
1 0 410 -144 100 0 0 1 0 1 0 -1 0 0 3010.dat
1 72 410 -144 160 0 0 1 0 1 0 -1 0 0 3004.dat
1 70 260 -144 70 1 0 0 0 1 0 0 0 1 3004.dat
1 70 340 -144 70 1 0 0 0 1 0 0 0 1 3009.dat
1 0 260 -144 170 1 0 0 0 1 0 0 0 1 3004.dat
1 70 380 -144 170 1 0 0 0 1 0 0 0 1 3004.dat
0 STEP
1 272 260 -168 90 1 0 0 0 1 0 0 0 1 3037.dat
1 272 340 -168 90 1 0 0 0 1 0 0 0 1 3037.dat
1 272 400 -168 90 1 0 0 0 1 0 0 0 1 3039.dat
1 272 260 -168 150 -1 0 0 0 1 0 0 0 -1 3037.dat
1 272 340 -168 150 -1 0 0 0 1 0 0 0 -1 3037.dat
1 272 400 -168 150 -1 0 0 0 1 0 0 0 -1 3039.dat
1 308 230 -168 120 0 0 1 0 1 0 -1 0 0 3004.dat
1 308 410 -168 120 0 0 1 0 1 0 -1 0 0 3004.dat
0 STEP
1 272 260 -192 110 1 0 0 0 1 0 0 0 1 3037.dat
1 272 340 -192 110 1 0 0 0 1 0 0 0 1 3037.dat
1 272 400 -192 110 1 0 0 0 1 0 0 0 1 3039.dat
1 272 260 -192 130 -1 0 0 0 1 0 0 0 -1 3037.dat
1 272 340 -192 130 -1 0 0 0 1 0 0 0 -1 3037.dat
1 272 400 -192 130 -1 0 0 0 1 0 0 0 -1 3039.dat
0 STEP
1 0 240 -216 120 1 0 0 0 1 0 0 0 1 3043.dat
1 0 280 -216 120 1 0 0 0 1 0 0 0 1 3043.dat
1 0 320 -216 120 1 0 0 0 1 0 0 0 1 3043.dat
1 0 360 -216 120 1 0 0 0 1 0 0 0 1 3043.dat
1 0 400 -216 120 1 0 0 0 1 0 0 0 1 3043.dat
0 STEP
1 70 460 -40 200 1 0 0 0 1 0 0 0 1 2489.dat
1 70 500 -40 200 1 0 0 0 1 0 0 0 1 2489.dat
1 70 460 -24 260 1 0 0 0 1 0 0 0 1 3003.dat
1 70 460 -32 260 1 0 0 0 1 0 0 0 1 3068b.dat
0 STEP
